{
.appVersion = "1356";
copyright = "©2003-2016  Robert E. Leuschke";
customParameters = (
{
name = description;
value = "©2003-2016  Robert E. Leuschke -- This font is not Shareware and may not be copied, sold, distributed or shared without permission from TypeSETit, LLC.  114 Long and Winding Road, St. Peters, MO 63376  USA ";
},
{
name = trademark;
value = "GrechenFuemen is a trademark of Robert E. Leuschke.";
},
{
name = licenseURL;
value = "http://www.typesetit.com/license.html";
},
{
name = license;

glyphs = (
{
glyphname = A;
lastChange = "2021-04-16 08:59:06 +0000";
layers = (
{
hints = (
{
place = "{471, 36}";
type = Stem;
}
);
layerId = "5B1D346E-B0E2-499B-AAFE-AE2E263C1006";
paths = (
{
closed = 1;
nodes = (
"50 33 OFFCURVE",
"93 107 OFFCURVE",
"136 174 CURVE",
"228 184 OFFCURVE",
"350 195 OFFCURVE",
"448 205 CURVE",
"462 137 OFFCURVE",
"471 59 OFFCURVE",
"471 -30 CURVE SMOOTH",
"471 -42 OFFCURVE",
"476 -50 OFFCURVE",
"482 -50 CURVE SMOOTH",
"492 -50 OFFCURVE",
"507 -25 OFFCURVE",
"507 50 CURVE SMOOTH",
"507 103 OFFCURVE",
"505 158 OFFCURVE",
"505 212 CURVE",
"554 218 OFFCURVE",
"592 224 OFFCURVE",
"609 230 CURVE",
"591 243 OFFCURVE",
"553 253 OFFCURVE",
"505 257 CURVE",
"500 405 OFFCURVE",
"487 545 OFFCURVE",
"450 630 CURVE SMOOTH",
"441 651 OFFCURVE",
"426 659 OFFCURVE",
"410 659 CURVE SMOOTH",
"379 659 OFFCURVE",
"345 625 OFFCURVE",
"345 577 CURVE SMOOTH",
"345 560 OFFCURVE",
"349 543 OFFCURVE",
"358 524 CURVE",
"254 418 OFFCURVE",
"291 458 OFFCURVE",
"148 249 CURVE",
"129 249 OFFCURVE",
"111 243 OFFCURVE",
"95 243 CURVE SMOOTH",
"84 243 OFFCURVE",
"68 219 OFFCURVE",
"68 198 CURVE SMOOTH",
"68 185 OFFCURVE",
"75 174 OFFCURVE",
"93 171 CURVE",
"58 122 OFFCURVE",
"34 87 OFFCURVE",
"3 19 CURVE",
"-14 0 OFFCURVE",
"-20 -16 OFFCURVE",
"-20 -27 CURVE SMOOTH",
"-20 -42 OFFCURVE",
"-9 -50 OFFCURVE",
"0 -50 CURVE SMOOTH",
"5 -50 OFFCURVE",
"10 -48 OFFCURVE",
"12 -43 CURVE SMOOTH"
);
},
{
closed = 1;
nodes = (
"266 363 OFFCURVE",
"335 445 OFFCURVE",
"370 480 CURVE",
"385 428 OFFCURVE",
"414 356 OFFCURVE",
"437 261 CURVE",
"359 261 OFFCURVE",
"269 260 OFFCURVE",
"190 253 CURVE"
);
}
);
width = 577;
}
);
note = A;
unicode = 0041;
},
{
glyphname = AE;
lastChange = "2021-04-16 08:59:06 +0000";
layers = (
{
hints = (
{
place = "{471, 36}";
type = Stem;
}
);
layerId = "5B1D346E-B0E2-499B-AAFE-AE2E263C1006";
paths = (
{
closed = 1;
nodes = (
"660 -51 OFFCURVE",
"674 -52 OFFCURVE",
"689 -52 CURVE SMOOTH",
"835 -52 OFFCURVE",
"1037 12 OFFCURVE",
"1037 91 CURVE SMOOTH",
"1037 123 OFFCURVE",
"1030 137 OFFCURVE",
"1022 137 CURVE SMOOTH",
"1011 137 OFFCURVE",
"998 118 OFFCURVE",
"989 90 CURVE SMOOTH",
"972 37 OFFCURVE",
"839 -8 OFFCURVE",
"719 -8 CURVE SMOOTH",
"696 -8 OFFCURVE",
"674 -7 OFFCURVE",
"653 -3 CURVE SMOOTH",
"568 12 OFFCURVE",
"520 86 OFFCURVE",
"520 189 CURVE SMOOTH",
"520 247 OFFCURVE",
"539 228 OFFCURVE",
"572 246 CURVE",
"672 263 OFFCURVE",
"784 284 OFFCURVE",
"881 296 CURVE SMOOTH",
"916 300 OFFCURVE",
"931 305 OFFCURVE",
"931 308 CURVE SMOOTH",
"931 318 OFFCURVE",
"828 325 OFFCURVE",
"723 325 CURVE SMOOTH",
"665 325 OFFCURVE",
"607 323 OFFCURVE",
"564 318 CURVE SMOOTH",
"555 317 LINE",
"602 416 OFFCURVE",
"690 507 OFFCURVE",
"764 531 CURVE SMOOTH",
"814 548 OFFCURVE",
"857 555 OFFCURVE",
"890 555 CURVE SMOOTH",
"944 555 OFFCURVE",
"973 535 OFFCURVE",
"973 498 CURVE SMOOTH",
"973 480 OFFCURVE",
"979 473 OFFCURVE",
"985 473 CURVE SMOOTH",
"998 473 OFFCURVE",
"1014 494 OFFCURVE",
"1014 514 CURVE SMOOTH",
"1014 520 OFFCURVE",
"1013 525 OFFCURVE",
"1010 530 CURVE SMOOTH",
"991 563 OFFCURVE",
"932 586 OFFCURVE",
"857 586 CURVE SMOOTH",
"821 586 OFFCURVE",
"781 580 OFFCURVE",
"739 568 CURVE SMOOTH",
"627 534 OFFCURVE",
"548 454 OFFCURVE",
"499 370 CURVE",
"492 474 OFFCURVE",
"478 567 OFFCURVE",
"450 630 CURVE SMOOTH",
"441 651 OFFCURVE",
"426 659 OFFCURVE",
"410 659 CURVE SMOOTH",
"379 659 OFFCURVE",
"345 625 OFFCURVE",
"345 577 CURVE SMOOTH",
"345 560 OFFCURVE",
"349 543 OFFCURVE",
"358 524 CURVE",
"254 418 OFFCURVE",
"291 458 OFFCURVE",
"148 249 CURVE",
"129 249 OFFCURVE",
"111 243 OFFCURVE",
"95 243 CURVE SMOOTH",
"84 243 OFFCURVE",
"68 219 OFFCURVE",
"68 198 CURVE SMOOTH",
"68 185 OFFCURVE",
"75 174 OFFCURVE",
"93 171 CURVE",
"58 122 OFFCURVE",
"34 87 OFFCURVE",
"3 19 CURVE",
"-14 0 OFFCURVE",
"-20 -16 OFFCURVE",
"-20 -27 CURVE SMOOTH",
"-20 -42 OFFCURVE",
"-9 -50 OFFCURVE",
"0 -50 CURVE SMOOTH",
"5 -50 OFFCURVE",
"10 -48 OFFCURVE",
"12 -43 CURVE SMOOTH",
"50 33 OFFCURVE",
"93 107 OFFCURVE",
"136 174 CURVE",
"226 184 OFFCURVE",
"344 194 OFFCURVE",
"441 204 CURVE",
"439 194 OFFCURVE",
"437 185 OFFCURVE",
"437 176 CURVE SMOOTH",
"434 102 OFFCURVE",
"442 51 OFFCURVE",
"470 16 CURVE",
"471 1 OFFCURVE",
"471 -14 OFFCURVE",
"471 -30 CURVE SMOOTH",
"471 -42 OFFCURVE",
"476 -50 OFFCURVE",
"482 -50 CURVE SMOOTH",
"489 -50 OFFCURVE",
"497 -40 OFFCURVE",
"502 -12 CURVE",
"535 -32 OFFCURVE",
"581 -43 OFFCURVE",
"646 -50 CURVE SMOOTH"
);
},
{
closed = 1;
nodes = (
"266 363 OFFCURVE",
"335 445 OFFCURVE",
"370 480 CURVE",
"383 434 OFFCURVE",
"411 390 OFFCURVE",
"432 311 CURVE",
"427 305 OFFCURVE",
"423 292 OFFCURVE",
"422 279 CURVE",
"348 279 OFFCURVE",
"263 259 OFFCURVE",
"190 253 CURVE"
);
}
);
width = 1049;
}
);
note = AE;
unicode = 00C6;
},
{
glyphname = B;
lastChange = "2021-04-16 08:59:06 +0000";
layers = (
{
hints = (
{
horizontal = 1;
place = "{247, 20}";
type = Stem;
}
);
layerId = "5B1D346E-B0E2-499B-AAFE-AE2E263C1006";
paths = (
{
closed = 1;
nodes = (
"424 -35 OFFCURVE",
"567 7 OFFCURVE",
"604 79 CURVE SMOOTH",
"613 96 OFFCURVE",
"617 111 OFFCURVE",
"617 125 CURVE SMOOTH",
"617 196 OFFCURVE",
"519 237 OFFCURVE",
"431 255 CURVE",
"582 280 OFFCURVE",
"684 344 OFFCURVE",
"712 391 CURVE SMOOTH",
"719 402 OFFCURVE",
"722 413 OFFCURVE",
"722 425 CURVE SMOOTH",
"722 503 OFFCURVE",
"576 587 OFFCURVE",
"402 587 CURVE SMOOTH",
"321 587 OFFCURVE",
"234 569 OFFCURVE",
"152 525 CURVE SMOOTH",
"131 513 OFFCURVE",
"123 505 OFFCURVE",
"123 500 CURVE SMOOTH",
"123 495 OFFCURVE",
"129 493 OFFCURVE",
"138 493 CURVE SMOOTH",
"145 493 OFFCURVE",
"155 495 OFFCURVE",
"163 499 CURVE SMOOTH",
"242 541 OFFCURVE",
"326 558 OFFCURVE",
"401 558 CURVE SMOOTH",
"531 558 OFFCURVE",
"633 506 OFFCURVE",
"633 446 CURVE SMOOTH",
"633 435 OFFCURVE",
"629 423 OFFCURVE",
"621 411 CURVE SMOOTH",
"585 357 OFFCURVE",
"502 267 OFFCURVE",
"355 267 CURVE SMOOTH",
"287 267 OFFCURVE",
"253 265 OFFCURVE",
"253 258 CURVE SMOOTH",
"253 256 OFFCURVE",
"258 252 OFFCURVE",
"270 248 CURVE SMOOTH",
"276 246 OFFCURVE",
"288 245 OFFCURVE",
"301 245 CURVE SMOOTH",
"323 245 OFFCURVE",
"347 247 OFFCURVE",
"351 247 CURVE SMOOTH",
"426 247 OFFCURVE",
"502 223 OFFCURVE",
"502 157 CURVE SMOOTH",
"502 140 OFFCURVE",
"497 120 OFFCURVE",
"485 97 CURVE SMOOTH",
"456 41 OFFCURVE",
"374 -20 OFFCURVE",
"253 -20 CURVE SMOOTH",
"241 -20 OFFCURVE",
"228 -19 OFFCURVE",
"214 -18 CURVE SMOOTH",
"201 -17 OFFCURVE",
"191 -16 OFFCURVE",
"182 -16 CURVE SMOOTH",
"165 -16 OFFCURVE",
"156 -19 OFFCURVE",
"156 -22 CURVE SMOOTH",
"156 -29 OFFCURVE",
"197 -41 OFFCURVE",
"275 -41 CURVE SMOOTH",
"286 -41 OFFCURVE",
"299 -41 OFFCURVE",
"312 -40 CURVE SMOOTH"
);
},
{
closed = 1;
nodes = (
"72 59 OFFCURVE",
"208 354 OFFCURVE",
"319 490 CURVE SMOOTH",
"328 501 OFFCURVE",
"304 510 OFFCURVE",
"273 510 CURVE SMOOTH",
"241 510 OFFCURVE",
"201 500 OFFCURVE",
"182 470 CURVE SMOOTH",
"125 382 OFFCURVE",
"36 143 OFFCURVE",
"36 30 CURVE SMOOTH",
"36 21 OFFCURVE",
"37 12 OFFCURVE",
"38 4 CURVE SMOOTH",
"48 -48 OFFCURVE",
"65 -62 OFFCURVE",
"76 -62 CURVE SMOOTH",
"82 -62 OFFCURVE",
"86 -57 OFFCURVE",
"86 -53 CURVE"
);
}
);
width = 675;
}
);
note = B;
unicode = 0042;
},
{
glyphname = C;
lastChange = "2021-04-16 08:59:06 +0000";
layers = (
{
hints = (
{
horizontal = 1;
place = "{502, 84}";
type = Stem;
},
{
place = "{71, 89}";
type = Stem;
},
{
place = "{800, 41}";
type = Stem;
}
);
layerId = "5B1D346E-B0E2-499B-AAFE-AE2E263C1006";
paths = (
{
closed = 1;
nodes = (
"342 -52 OFFCURVE",
"358 -52 OFFCURVE",
"375 -52 CURVE SMOOTH",
"517 -52 OFFCURVE",
"700 3 OFFCURVE",
"786 91 CURVE SMOOTH",
"805 110 OFFCURVE",
"815 128 OFFCURVE",
"815 137 CURVE SMOOTH",
"815 141 OFFCURVE",
"813 143 OFFCURVE",
"809 143 CURVE SMOOTH",
"799 143 OFFCURVE",
"776 128 OFFCURVE",
"738 90 CURVE SMOOTH",
"675 27 OFFCURVE",
"538 -12 OFFCURVE",
"405 -12 CURVE SMOOTH",
"385 -12 OFFCURVE",
"365 -11 OFFCURVE",
"345 -9 CURVE SMOOTH",
"257 -1 OFFCURVE",
"159 74 OFFCURVE",
"159 171 CURVE SMOOTH",
"159 263 OFFCURVE",
"249 374 OFFCURVE",
"523 464 CURVE SMOOTH",
"593 487 OFFCURVE",
"666 502 OFFCURVE",
"720 502 CURVE SMOOTH",
"768 502 OFFCURVE",
"800 490 OFFCURVE",
"800 462 CURVE SMOOTH",
"800 446 OFFCURVE",
"804 440 OFFCURVE",
"810 440 CURVE SMOOTH",
"822 440 OFFCURVE",
"841 468 OFFCURVE",
"841 492 CURVE SMOOTH",
"841 498 OFFCURVE",
"840 504 OFFCURVE",
"837 509 CURVE SMOOTH",
"817 542 OFFCURVE",
"789 586 OFFCURVE",
"688 586 CURVE SMOOTH",
"640 586 OFFCURVE",
"576 576 OFFCURVE",
"488 550 CURVE SMOOTH",
"232 474 OFFCURVE",
"130 361 OFFCURVE",
"87 251 CURVE SMOOTH",
"76 222 OFFCURVE",
"71 195 OFFCURVE",
"71 170 CURVE SMOOTH",
"71 50 OFFCURVE",
"183 -35 OFFCURVE",
"326 -50 CURVE SMOOTH"
);
}
);
width = 819;
}
);
note = C;
unicode = 0043;
},
{
glyphname = D;
lastChange = "2021-04-16 08:59:06 +0000";
layers = (
{
hints = (
{
horizontal = 1;
place = "{325, 16}";
type = Stem;
},
{
horizontal = 1;
place = "{554, 21}";
target = up;
type = BottomGhost;
}
);
layerId = "5B1D346E-B0E2-499B-AAFE-AE2E263C1006";
paths = (
{
closed = 1;
nodes = (
"558 -60 OFFCURVE",
"904 -31 OFFCURVE",
"999 219 CURVE SMOOTH",
"1004 233 OFFCURVE",
"1007 249 OFFCURVE",
"1007 267 CURVE SMOOTH",
"1007 388 OFFCURVE",
"869 575 OFFCURVE",
"488 575 CURVE SMOOTH",
"478 575 OFFCURVE",
"468 575 OFFCURVE",
"457 575 CURVE SMOOTH",
"28 564 OFFCURVE",
"-62 454 OFFCURVE",
"-62 392 CURVE SMOOTH",
"-62 378 OFFCURVE",
"-57 366 OFFCURVE",
"-51 359 CURVE SMOOTH",
"-41 346 OFFCURVE",
"50 325 OFFCURVE",
"89 325 CURVE SMOOTH",
"98 325 OFFCURVE",
"108 330 OFFCURVE",
"108 335 CURVE SMOOTH",
"108 338 OFFCURVE",
"103 341 OFFCURVE",
"88 341 CURVE SMOOTH",
"46 341 OFFCURVE",
"41 389 OFFCURVE",
"41 394 CURVE",
"89 466 OFFCURVE",
"110 545 OFFCURVE",
"458 554 CURVE SMOOTH",
"712 560 OFFCURVE",
"920 411 OFFCURVE",
"920 251 CURVE SMOOTH",
"920 228 OFFCURVE",
"916 205 OFFCURVE",
"907 183 CURVE SMOOTH",
"856 50 OFFCURVE",
"538 -45 OFFCURVE",
"381 -45 CURVE SMOOTH",
"370 -45 OFFCURVE",
"359 -44 OFFCURVE",
"350 -43 CURVE SMOOTH",
"337 -42 OFFCURVE",
"327 -41 OFFCURVE",
"318 -41 CURVE SMOOTH",
"301 -41 OFFCURVE",
"292 -44 OFFCURVE",
"292 -47 CURVE SMOOTH",
"292 -54 OFFCURVE",
"332 -66 OFFCURVE",
"409 -66 CURVE SMOOTH",
"420 -66 OFFCURVE",
"433 -66 OFFCURVE",
"446 -65 CURVE SMOOTH"
);
},
{
closed = 1;
nodes = (
"208 34 OFFCURVE",
"343 330 OFFCURVE",
"453 465 CURVE SMOOTH",
"462 476 OFFCURVE",
"438 486 OFFCURVE",
"407 486 CURVE SMOOTH",
"375 486 OFFCURVE",
"334 475 OFFCURVE",
"315 445 CURVE SMOOTH",
"260 357 OFFCURVE",
"170 118 OFFCURVE",
"170 5 CURVE SMOOTH",
"170 -5 OFFCURVE",
"171 -13 OFFCURVE",
"172 -21 CURVE SMOOTH",
"182 -73 OFFCURVE",
"199 -87 OFFCURVE",
"210 -87 CURVE SMOOTH",
"217 -87 OFFCURVE",
"221 -82 OFFCURVE",
"221 -78 CURVE"
);
}
);
width = 1018;
}
);
note = D;
unicode = 0044;
},
{
glyphname = Eth;
lastChange = "2021-04-16 08:59:06 +0000";
layers = (
{
hints = (
{
horizontal = 1;
place = "{325, 16}";
type = Stem;
},
{
horizontal = 1;
place = "{554, 21}";
target = up;
type = BottomGhost;
}
);
layerId = "5B1D346E-B0E2-499B-AAFE-AE2E263C1006";
paths = (
{
closed = 1;
nodes = (
"558 -60 OFFCURVE",
"904 -31 OFFCURVE",
"999 219 CURVE SMOOTH",
"1004 233 OFFCURVE",
"1007 249 OFFCURVE",
"1007 267 CURVE SMOOTH",
"1007 388 OFFCURVE",
"869 575 OFFCURVE",
"488 575 CURVE SMOOTH",
"478 575 OFFCURVE",
"468 575 OFFCURVE",
"457 575 CURVE SMOOTH",
"28 564 OFFCURVE",
"-62 454 OFFCURVE",
"-62 392 CURVE SMOOTH",
"-62 378 OFFCURVE",
"-57 366 OFFCURVE",
"-51 359 CURVE SMOOTH",
"-41 346 OFFCURVE",
"50 325 OFFCURVE",
"89 325 CURVE SMOOTH",
"98 325 OFFCURVE",
"108 330 OFFCURVE",
"108 335 CURVE SMOOTH",
"108 338 OFFCURVE",
"103 341 OFFCURVE",
"88 341 CURVE SMOOTH",
"46 341 OFFCURVE",
"41 389 OFFCURVE",
"41 394 CURVE",
"89 466 OFFCURVE",
"110 545 OFFCURVE",
"458 554 CURVE SMOOTH",
"712 560 OFFCURVE",
"920 411 OFFCURVE",
"920 251 CURVE SMOOTH",
"920 228 OFFCURVE",
"916 205 OFFCURVE",
"907 183 CURVE SMOOTH",
"856 50 OFFCURVE",
"538 -45 OFFCURVE",
"381 -45 CURVE SMOOTH",
"370 -45 OFFCURVE",
"359 -44 OFFCURVE",
"350 -43 CURVE SMOOTH",
"337 -42 OFFCURVE",
"327 -41 OFFCURVE",
"318 -41 CURVE SMOOTH",
"301 -41 OFFCURVE",
"292 -44 OFFCURVE",
"292 -47 CURVE SMOOTH",
"292 -54 OFFCURVE",
"332 -66 OFFCURVE",
"409 -66 CURVE SMOOTH",
"420 -66 OFFCURVE",
"433 -66 OFFCURVE",
"446 -65 CURVE SMOOTH"
);
},
{
closed = 1;
nodes = (
"216 -36 OFFCURVE",
"231 31 OFFCURVE",
"259 106 CURVE",
"319 112 OFFCURVE",
"377 127 OFFCURVE",
"411 137 CURVE SMOOTH",
"435 143 OFFCURVE",
"457 151 OFFCURVE",
"457 157 CURVE SMOOTH",
"457 163 OFFCURVE",
"434 168 OFFCURVE",
"366 168 CURVE SMOOTH",
"333 168 OFFCURVE",
"306 168 OFFCURVE",
"283 167 CURVE",
"330 277 OFFCURVE",
"395 394 OFFCURVE",
"453 465 CURVE SMOOTH",
"462 476 OFFCURVE",
"438 486 OFFCURVE",
"407 486 CURVE SMOOTH",
"375 486 OFFCURVE",
"334 475 OFFCURVE",
"315 445 CURVE SMOOTH",
"280 389 OFFCURVE",
"231 274 OFFCURVE",
"200 168 CURVE",
"179 169 OFFCURVE",
"159 172 OFFCURVE",
"134 178 CURVE SMOOTH",
"121 181 OFFCURVE",
"111 182 OFFCURVE",
"102 182 CURVE SMOOTH",
"80 182 OFFCURVE",
"72 173 OFFCURVE",
"72 162 CURVE SMOOTH",
"72 151 OFFCURVE",
"80 138 OFFCURVE",
"90 131 CURVE SMOOTH",
"114 113 OFFCURVE",
"147 105 OFFCURVE",
"183 103 CURVE",
"175 66 OFFCURVE",
"170 32 OFFCURVE",
"170 5 CURVE SMOOTH",
"170 -5 OFFCURVE",
"170 -13 OFFCURVE",
"172 -21 CURVE SMOOTH",
"182 -73 OFFCURVE",
"199 -87 OFFCURVE",
"210 -87 CURVE SMOOTH",
"217 -87 OFFCURVE",
"221 -82 OFFCURVE",
"221 -78 CURVE"
);
}
);
width = 1018;
}
);
note = Eth;
unicode = 00D0;
},
{
glyphname = E;
lastChange = "2021-04-16 08:59:06 +0000";
layers = (
{
hints = (
{
horizontal = 1;
place = "{225, 72}";
type = Stem;
},
{
place = "{72, 84}";
type = Stem;
}
);
layerId = "5B1D346E-B0E2-499B-AAFE-AE2E263C1006";
paths = (
{
closed = 1;
nodes = (
"295 -51 OFFCURVE",
"309 -52 OFFCURVE",
"324 -52 CURVE SMOOTH",
"470 -52 OFFCURVE",
"672 12 OFFCURVE",
"672 91 CURVE SMOOTH",
"672 123 OFFCURVE",
"665 137 OFFCURVE",
"657 137 CURVE SMOOTH",
"646 137 OFFCURVE",
"633 118 OFFCURVE",
"624 90 CURVE SMOOTH",
"607 37 OFFCURVE",
"474 -8 OFFCURVE",
"354 -8 CURVE SMOOTH",
"331 -8 OFFCURVE",
"309 -7 OFFCURVE",
"288 -3 CURVE SMOOTH",
"208 11 OFFCURVE",
"161 77 OFFCURVE",
"156 170 CURVE SMOOTH",
"155 192 OFFCURVE",
"158 215 OFFCURVE",
"162 238 CURVE",
"273 257 OFFCURVE",
"404 282 OFFCURVE",
"516 296 CURVE SMOOTH",
"551 300 OFFCURVE",
"566 305 OFFCURVE",
"566 308 CURVE SMOOTH",
"566 318 OFFCURVE",
"463 325 OFFCURVE",
"358 325 CURVE SMOOTH",
"300 325 OFFCURVE",
"242 323 OFFCURVE",
"199 318 CURVE SMOOTH",
"190 317 LINE",
"237 416 OFFCURVE",
"325 507 OFFCURVE",
"399 531 CURVE SMOOTH",
"449 548 OFFCURVE",
"492 555 OFFCURVE",
"525 555 CURVE SMOOTH",
"579 555 OFFCURVE",
"608 535 OFFCURVE",
"608 498 CURVE SMOOTH",
"608 480 OFFCURVE",
"614 473 OFFCURVE",
"620 473 CURVE SMOOTH",
"633 473 OFFCURVE",
"649 494 OFFCURVE",
"649 514 CURVE SMOOTH",
"649 520 OFFCURVE",
"648 525 OFFCURVE",
"645 530 CURVE SMOOTH",
"626 563 OFFCURVE",
"567 586 OFFCURVE",
"492 586 CURVE SMOOTH",
"456 586 OFFCURVE",
"416 580 OFFCURVE",
"374 568 CURVE SMOOTH",
"232 525 OFFCURVE",
"143 408 OFFCURVE",
"101 301 CURVE",
"87 301 OFFCURVE",
"77 297 OFFCURVE",
"71 297 CURVE SMOOTH",
"61 297 OFFCURVE",
"53 274 OFFCURVE",
"53 254 CURVE SMOOTH",
"53 238 OFFCURVE",
"57 225 OFFCURVE",
"69 225 CURVE SMOOTH",
"78 225 LINE",
"78 208 OFFCURVE",
"73 191 OFFCURVE",
"72 176 CURVE SMOOTH",
"67 20 OFFCURVE",
"108 -32 OFFCURVE",
"281 -50 CURVE SMOOTH"
);
}
);
width = 679;
}
);
note = E;
unicode = 0045;
},
{
glyphname = F;
lastChange = "2021-07-10 20:37:23 +0000";
layers = (
{
hints = (
{
horizontal = 1;
place = "{274, 19}";
type = Stem;
}
);
layerId = "5B1D346E-B0E2-499B-AAFE-AE2E263C1006";
paths = (
{
closed = 1;
nodes = (
"281 -3 OFFCURVE",
"272 26 OFFCURVE",
"272 65 CURVE SMOOTH",
"272 116 OFFCURVE",
"287 185 OFFCURVE",
"316 240 CURVE",
"332 256 OFFCURVE",
"356 265 OFFCURVE",
"423 265 CURVE SMOOTH",
"497 265 OFFCURVE",
"508 281 OFFCURVE",
"508 286 CURVE SMOOTH",
"508 290 OFFCURVE",
"495 293 OFFCURVE",
"472 293 CURVE SMOOTH",
"340 293 LINE",
"369 345 OFFCURVE",
"371 387 OFFCURVE",
"485 517 CURVE SMOOTH",
"492 525 LINE",
"497 525 OFFCURVE",
"502 522 OFFCURVE",
"507 522 CURVE",
"593 501 OFFCURVE",
"689 465 OFFCURVE",
"754 465 CURVE SMOOTH",
"776 465 OFFCURVE",
"795 470 OFFCURVE",
"808 480 CURVE SMOOTH",
"816 487 OFFCURVE",
"831 495 OFFCURVE",
"831 505 CURVE SMOOTH",
"831 509 OFFCURVE",
"828 513 OFFCURVE",
"821 518 CURVE",
"810 523 OFFCURVE",
"811 493 OFFCURVE",
"786 493 CURVE",
"732 487 OFFCURVE",
"544 626 OFFCURVE",
"312 626 CURVE SMOOTH",
"285 626 OFFCURVE",
"256 624 OFFCURVE",
"227 619 CURVE SMOOTH",
"162 609 OFFCURVE",
"69 574 OFFCURVE",
"69 507 CURVE SMOOTH",
"69 494 OFFCURVE",
"72 481 OFFCURVE",
"79 466 CURVE SMOOTH",
"90 442 OFFCURVE",
"106 416 OFFCURVE",
"130 416 CURVE SMOOTH",
"135 416 OFFCURVE",
"141 418 OFFCURVE",
"147 421 CURVE SMOOTH",
"153 424 OFFCURVE",
"155 427 OFFCURVE",
"155 430 CURVE SMOOTH",
"155 438 OFFCURVE",
"143 448 OFFCURVE",
"143 459 CURVE SMOOTH",
"143 464 OFFCURVE",
"146 470 OFFCURVE",
"153 476 CURVE SMOOTH",
"218 529 OFFCURVE",
"281 547 OFFCURVE",
"347 547 CURVE SMOOTH",
"374 547 OFFCURVE",
"401 544 OFFCURVE",
"430 539 CURVE",
"395 528 OFFCURVE",
"357 510 OFFCURVE",
"348 497 CURVE SMOOTH",
"288 412 OFFCURVE",
"266 337 OFFCURVE",
"249 296 CURVE",
"220 291 OFFCURVE",
"197 288 OFFCURVE",
"188 270 CURVE SMOOTH",
"178 254 OFFCURVE",
"204 246 OFFCURVE",
"221 229 CURVE",
"221 229 OFFCURVE",
"209 179 OFFCURVE",
"209 123 CURVE SMOOTH",
"209 80 OFFCURVE",
"216 33 OFFCURVE",
"240 2 CURVE SMOOTH",
"256 -20 OFFCURVE",
"272 -26 OFFCURVE",
"283 -26 CURVE SMOOTH",
"298 -26 OFFCURVE",
"305 -15 OFFCURVE",
"298 -12 CURVE SMOOTH"
);
}
);
width = 581;
}
);
note = F;
unicode = 0046;
},
{
glyphname = G;
lastChange = "2021-04-16 08:59:06 +0000";
layers = (
{
hints = (
{
horizontal = 1;
place = "{-48, 25}";
type = Stem;
},
{
horizontal = 1;
place = "{484, 68}";
type = Stem;
},
{
place = "{12, 102}";
type = Stem;
},
{
place = "{614, 104}";
type = Stem;
}
);
layerId = "5B1D346E-B0E2-499B-AAFE-AE2E263C1006";
paths = (
{
closed = 1;
nodes = (
"314 -47 OFFCURVE",
"340 -48 OFFCURVE",
"365 -48 CURVE SMOOTH",
"547 -48 OFFCURVE",
"718 36 OFFCURVE",
"718 130 CURVE SMOOTH",
"718 154 OFFCURVE",
"707 178 OFFCURVE",
"683 201 CURVE SMOOTH",
"681 203 OFFCURVE",
"774 209 OFFCURVE",
"819 217 CURVE SMOOTH",
"852 222 OFFCURVE",
"865 232 OFFCURVE",
"865 237 CURVE SMOOTH",
"865 241 OFFCURVE",
"859 244 OFFCURVE",
"850 243 CURVE SMOOTH",
"824 240 OFFCURVE",
"787 239 OFFCURVE",
"745 239 CURVE SMOOTH",
"663 239 OFFCURVE",
"561 243 OFFCURVE",
"487 243 CURVE SMOOTH",
"430 243 OFFCURVE",
"390 241 OFFCURVE",
"386 233 CURVE SMOOTH",
"368 197 OFFCURVE",
"527 241 OFFCURVE",
"582 179 CURVE SMOOTH",
"604 154 OFFCURVE",
"614 129 OFFCURVE",
"614 104 CURVE SMOOTH",
"614 36 OFFCURVE",
"533 -23 OFFCURVE",
"399 -23 CURVE SMOOTH",
"373 -23 OFFCURVE",
"346 -21 OFFCURVE",
"316 -16 CURVE SMOOTH",
"192 3 OFFCURVE",
"114 83 OFFCURVE",
"114 166 CURVE SMOOTH",
"114 181 OFFCURVE",
"117 196 OFFCURVE",
"122 211 CURVE SMOOTH",
"193 407 OFFCURVE",
"482 484 OFFCURVE",
"628 484 CURVE SMOOTH",
"672 484 OFFCURVE",
"704 477 OFFCURVE",
"712 464 CURVE SMOOTH",
"722 449 OFFCURVE",
"731 444 OFFCURVE",
"738 444 CURVE SMOOTH",
"755 444 OFFCURVE",
"765 470 OFFCURVE",
"762 489 CURVE SMOOTH",
"756 527 OFFCURVE",
"679 552 OFFCURVE",
"576 552 CURVE SMOOTH",
"395 552 OFFCURVE",
"131 474 OFFCURVE",
"28 253 CURVE SMOOTH",
"17 229 OFFCURVE",
"12 206 OFFCURVE",
"12 183 CURVE SMOOTH",
"12 75 OFFCURVE",
"128 -20 OFFCURVE",
"288 -43 CURVE SMOOTH"
);
}
);
width = 882;
}
);
note = G;
unicode = 0047;
},
{
glyphname = H;
lastChange = "2021-04-16 08:59:06 +0000";
layers = (
{
hints = (
{
horizontal = 1;
place = "{221, 26}";
type = Stem;
},
{
place = "{35, 31}";
type = Stem;
}
);
layerId = "5B1D346E-B0E2-499B-AAFE-AE2E263C1006";
paths = (
{
closed = 1;
nodes = (
"68 28 OFFCURVE",
"91 105 OFFCURVE",
"121 196 CURVE",
"190 216 OFFCURVE",
"377 207 OFFCURVE",
"575 221 CURVE",
"572 159 OFFCURVE",
"568 147 OFFCURVE",
"565 95 CURVE SMOOTH",
"563 64 OFFCURVE",
"558 32 OFFCURVE",
"558 13 CURVE SMOOTH",
"558 -3 OFFCURVE",
"561 -11 OFFCURVE",
"572 -7 CURVE SMOOTH",
"590 1 OFFCURVE",
"594 94 OFFCURVE",
"617 202 CURVE",
"626 218 OFFCURVE",
"716 220 OFFCURVE",
"697 238 CURVE SMOOTH",
"686 248 OFFCURVE",
"648 246 OFFCURVE",
"629 246 CURVE",
"636 282 OFFCURVE",
"685 451 OFFCURVE",
"708 526 CURVE SMOOTH",
"713 543 OFFCURVE",
"696 548 OFFCURVE",
"676 548 CURVE SMOOTH",
"653 548 OFFCURVE",
"626 542 OFFCURVE",
"626 540 CURVE",
"596 424 OFFCURVE",
"593 337 OFFCURVE",
"580 247 CURVE",
"136 247 LINE",
"198 393 OFFCURVE",
"238 433 OFFCURVE",
"269 494 CURVE SMOOTH",
"275 505 OFFCURVE",
"277 516 OFFCURVE",
"277 526 CURVE SMOOTH",
"277 570 OFFCURVE",
"229 599 OFFCURVE",
"197 599 CURVE SMOOTH",
"183 599 OFFCURVE",
"172 593 OFFCURVE",
"171 580 CURVE SMOOTH",
"164 521 OFFCURVE",
"84 344 OFFCURVE",
"56 241 CURVE",
"41 241 OFFCURVE",
"30 239 OFFCURVE",
"22 239 CURVE",
"5 235 OFFCURVE",
"-2 230 OFFCURVE",
"-2 224 CURVE SMOOTH",
"-2 215 OFFCURVE",
"19 204 OFFCURVE",
"48 198 CURVE",
"41 190 OFFCURVE",
"34 122 OFFCURVE",
"34 59 CURVE SMOOTH",
"34 46 OFFCURVE",
"34 34 OFFCURVE",
"35 22 CURVE SMOOTH",
"38 -23 OFFCURVE",
"49 -46 OFFCURVE",
"58 -46 CURVE SMOOTH",
"62 -46 OFFCURVE",
"66 -39 OFFCURVE",
"66 -26 CURVE SMOOTH"
);
}
);
width = 688;
}
);
note = H;
unicode = 0048;
},
{
glyphname = I;
lastChange = "2021-04-16 08:59:06 +0000";
layers = (
{
hints = (
{
horizontal = 1;
place = "{0, 39}";
type = Stem;
},
{
horizontal = 1;
place = "{545, 25}";
type = Stem;
},
{
place = "{126, 41}";
type = Stem;
},
{
place = "{510, 20}";
type = Stem;
},
{
horizontal = 1;
place = "{545, 38}";
type = Stem;
},
{
horizontal = 1;
place = "{545, 23}";
type = Stem;
},
{
horizontal = 1;
place = "{-3, 38}";
type = Stem;
},
{
horizontal = 1;
place = "{575, -20}";
target = down;
type = TopGhost;
}
);
layerId = "5B1D346E-B0E2-499B-AAFE-AE2E263C1006";
paths = (
{
closed = 1;
nodes = (
"166 -25 OFFCURVE",
"166 -13 OFFCURVE",
"167 0 CURVE",
"180 1 OFFCURVE",
"194 2 OFFCURVE",
"208 2 CURVE SMOOTH",
"319 6 OFFCURVE",
"348 1 OFFCURVE",
"389 36 CURVE SMOOTH",
"395 41 OFFCURVE",
"367 43 OFFCURVE",
"326 43 CURVE SMOOTH",
"281 43 OFFCURVE",
"221 41 OFFCURVE",
"171 39 CURVE",
"195 179 OFFCURVE",
"293 404 OFFCURVE",
"381 535 CURVE",
"427 541 OFFCURVE",
"466 546 OFFCURVE",
"489 546 CURVE SMOOTH",
"502 546 OFFCURVE",
"510 544 OFFCURVE",
"510 541 CURVE",
"513 535 OFFCURVE",
"530 543 OFFCURVE",
"530 554 CURVE SMOOTH",
"530 558 OFFCURVE",
"527 564 OFFCURVE",
"516 568 CURVE SMOOTH",
"512 570 OFFCURVE",
"490 571 OFFCURVE",
"460 571 CURVE SMOOTH",
"443 571 OFFCURVE",
"423 570 OFFCURVE",
"401 570 CURVE",
"396 578 OFFCURVE",
"377 583 OFFCURVE",
"355 583 CURVE SMOOTH",
"334 583 OFFCURVE",
"310 579 OFFCURVE",
"290 566 CURVE",
"234 564 OFFCURVE",
"186 561 OFFCURVE",
"172 557 CURVE SMOOTH",
"167 556 OFFCURVE",
"163 555 OFFCURVE",
"160 555 CURVE SMOOTH",
"136 555 OFFCURVE",
"130 575 OFFCURVE",
"113 575 CURVE SMOOTH",
"90 575 OFFCURVE",
"73 541 OFFCURVE",
"73 515 CURVE SMOOTH",
"73 503 OFFCURVE",
"77 493 OFFCURVE",
"84 489 CURVE",
"89 487 OFFCURVE",
"164 500 OFFCURVE",
"250 514 CURVE",
"193 403 OFFCURVE",
"116 169 OFFCURVE",
"116 54 CURVE SMOOTH",
"116 48 OFFCURVE",
"117 42 OFFCURVE",
"117 37 CURVE",
"102 36 OFFCURVE",
"90 35 OFFCURVE",
"83 35 CURVE SMOOTH",
"76 35 OFFCURVE",
"74 35 OFFCURVE",
"74 36 CURVE SMOOTH",
"74 38 OFFCURVE",
"90 43 OFFCURVE",
"90 47 CURVE SMOOTH",
"90 49 OFFCURVE",
"84 51 OFFCURVE",
"65 51 CURVE SMOOTH",
"18 51 OFFCURVE",
"10 35 OFFCURVE",
"-1 19 CURVE",
"-6 8 OFFCURVE",
"23 -1 OFFCURVE",
"31 -3 CURVE SMOOTH",
"35 -5 OFFCURVE",
"44 -5 OFFCURVE",
"56 -5 CURVE SMOOTH",
"73 -5 OFFCURVE",
"98 -4 OFFCURVE",
"126 -2 CURVE",
"135 -36 OFFCURVE",
"148 -46 OFFCURVE",
"157 -46 CURVE SMOOTH",
"163 -46 OFFCURVE",
"167 -41 OFFCURVE",
"167 -37 CURVE SMOOTH"
);
}
);
width = 404;
}
);
note = I;
unicode = 0049;
},
{
glyphname = J;
lastChange = "2021-04-16 08:59:06 +0000";
layers = (
{
hints = (
{
horizontal = 1;
place = "{-116, 46}";
type = Stem;
},
{
horizontal = 1;
place = "{530, 40}";
type = Stem;
},
{
place = "{22, 82}";
type = Stem;
},
{
place = "{657, 20}";
type = Stem;
},
{
horizontal = 1;
place = "{530, 25}";
type = Stem;
}
);
layerId = "5B1D346E-B0E2-499B-AAFE-AE2E263C1006";
paths = (
{
closed = 1;
nodes = (
"318 -78 OFFCURVE",
"371 74 OFFCURVE",
"437 234 CURVE SMOOTH",
"490 363 OFFCURVE",
"516 454 OFFCURVE",
"538 521 CURVE",
"579 526 OFFCURVE",
"613 530 OFFCURVE",
"635 530 CURVE SMOOTH",
"648 530 OFFCURVE",
"657 529 OFFCURVE",
"657 525 CURVE",
"660 520 OFFCURVE",
"677 528 OFFCURVE",
"677 539 CURVE SMOOTH",
"677 543 OFFCURVE",
"674 549 OFFCURVE",
"663 553 CURVE SMOOTH",
"659 555 OFFCURVE",
"637 556 OFFCURVE",
"606 556 CURVE SMOOTH",
"589 556 OFFCURVE",
"568 555 OFFCURVE",
"546 555 CURVE",
"541 564 OFFCURVE",
"523 570 OFFCURVE",
"501 570 CURVE SMOOTH",
"480 570 OFFCURVE",
"456 565 OFFCURVE",
"436 551 CURVE",
"381 549 OFFCURVE",
"334 547 OFFCURVE",
"320 543 CURVE SMOOTH",
"315 542 OFFCURVE",
"311 541 OFFCURVE",
"307 541 CURVE SMOOTH",
"284 541 OFFCURVE",
"278 560 OFFCURVE",
"260 560 CURVE SMOOTH",
"237 560 OFFCURVE",
"220 526 OFFCURVE",
"220 500 CURVE SMOOTH",
"220 488 OFFCURVE",
"224 478 OFFCURVE",
"231 474 CURVE",
"236 472 OFFCURVE",
"316 486 OFFCURVE",
"406 501 CURVE",
"388 410 OFFCURVE",
"382 342 OFFCURVE",
"358 251 CURVE SMOOTH",
"309 63 OFFCURVE",
"270 -14 OFFCURVE",
"198 -61 CURVE SMOOTH",
"188 -67 OFFCURVE",
"177 -70 OFFCURVE",
"167 -70 CURVE SMOOTH",
"127 -70 OFFCURVE",
"88 -28 OFFCURVE",
"88 20 CURVE SMOOTH",
"88 51 OFFCURVE",
"104 92 OFFCURVE",
"104 111 CURVE SMOOTH",
"104 119 OFFCURVE",
"102 123 OFFCURVE",
"96 123 CURVE SMOOTH",
"92 123 OFFCURVE",
"85 120 OFFCURVE",
"76 115 CURVE SMOOTH",
"47 98 OFFCURVE",
"21 58 OFFCURVE",
"21 17 CURVE SMOOTH",
"21 8 OFFCURVE",
"23 -1 OFFCURVE",
"25 -9 CURVE SMOOTH",
"41 -65 OFFCURVE",
"99 -116 OFFCURVE",
"169 -116 CURVE SMOOTH",
"183 -116 OFFCURVE",
"198 -114 OFFCURVE",
"213 -109 CURVE SMOOTH"
);
}
);
width = 582;
}
);
note = J;
unicode = 004A;
},
{
glyphname = K;
lastChange = "2021-04-16 08:59:06 +0000";
layers = (
{
hints = (
{
horizontal = 1;
place = "{487, 117}";
type = Stem;
}
);
layerId = "5B1D346E-B0E2-499B-AAFE-AE2E263C1006";
paths = (
{
closed = 1;
nodes = (
"606 -49 OFFCURVE",
"611 -48 OFFCURVE",
"611 -44 CURVE SMOOTH",
"611 -35 OFFCURVE",
"581 -9 OFFCURVE",
"503 42 CURVE SMOOTH",
"373 127 OFFCURVE",
"299 202 OFFCURVE",
"272 241 CURVE",
"445 385 OFFCURVE",
"585 487 OFFCURVE",
"774 487 CURVE SMOOTH",
"783 487 OFFCURVE",
"788 496 OFFCURVE",
"788 508 CURVE SMOOTH",
"788 542 OFFCURVE",
"757 604 OFFCURVE",
"718 604 CURVE SMOOTH",
"564 604 OFFCURVE",
"224 296 OFFCURVE",
"205 264 CURVE SMOOTH",
"201 257 OFFCURVE",
"199 250 OFFCURVE",
"199 243 CURVE SMOOTH",
"199 220 OFFCURVE",
"219 196 OFFCURVE",
"241 174 CURVE SMOOTH",
"255 160 OFFCURVE",
"475 -30 OFFCURVE",
"597 -48 CURVE SMOOTH"
);
},
{
closed = 1;
nodes = (
"103 3 OFFCURVE",
"98 25 OFFCURVE",
"98 50 CURVE SMOOTH",
"98 193 OFFCURVE",
"243 434 OFFCURVE",
"243 509 CURVE SMOOTH",
"243 519 OFFCURVE",
"241 525 OFFCURVE",
"236 529 CURVE SMOOTH",
"219 541 OFFCURVE",
"191 547 OFFCURVE",
"166 547 CURVE SMOOTH",
"135 547 OFFCURVE",
"108 538 OFFCURVE",
"108 519 CURVE SMOOTH",
"108 513 OFFCURVE",
"111 505 OFFCURVE",
"117 497 CURVE SMOOTH",
"120 494 OFFCURVE",
"121 487 OFFCURVE",
"121 479 CURVE SMOOTH",
"121 415 OFFCURVE",
"46 218 OFFCURVE",
"46 103 CURVE SMOOTH",
"46 81 OFFCURVE",
"48 62 OFFCURVE",
"55 48 CURVE SMOOTH",
"90 -29 OFFCURVE",
"119 -23 OFFCURVE",
"113 -14 CURVE SMOOTH"
);
}
);
width = 645;
}
);
note = K;
unicode = 004B;
},
{
glyphname = L;
lastChange = "2021-04-16 08:59:06 +0000";
layers = (
{
hints = (
{
horizontal = 1;
place = "{13, 53}";
type = Stem;
},
{
place = "{121, 52}";
type = Stem;
},
{
place = "{183, 134}";
type = Stem;
},
{
horizontal = 1;
place = "{1, 21}";
target = up;
type = BottomGhost;
},
{
horizontal = 1;
place = "{-19, 25}";
type = Stem;
}
);
layerId = "5B1D346E-B0E2-499B-AAFE-AE2E263C1006";
paths = (
{
closed = 1;
nodes = (
"94 -74 OFFCURVE",
"96 -71 OFFCURVE",
"96 -67 CURVE SMOOTH",
"96 -59 OFFCURVE",
"89 -50 OFFCURVE",
"89 -40 CURVE SMOOTH",
"89 -34 OFFCURVE",
"93 -28 OFFCURVE",
"103 -22 CURVE SMOOTH",
"121 -12 OFFCURVE",
"139 -4 OFFCURVE",
"157 1 CURVE",
"179 -25 OFFCURVE",
"193 -20 OFFCURVE",
"189 -13 CURVE SMOOTH",
"185 -8 OFFCURVE",
"182 -1 OFFCURVE",
"180 6 CURVE",
"204 11 OFFCURVE",
"228 14 OFFCURVE",
"252 14 CURVE SMOOTH",
"305 14 OFFCURVE",
"355 2 OFFCURVE",
"393 -9 CURVE SMOOTH",
"476 -33 OFFCURVE",
"520 -60 OFFCURVE",
"560 -60 CURVE SMOOTH",
"575 -60 OFFCURVE",
"589 -56 OFFCURVE",
"604 -48 CURVE SMOOTH",
"609 -46 OFFCURVE",
"611 -44 OFFCURVE",
"611 -42 CURVE SMOOTH",
"611 -38 OFFCURVE",
"602 -35 OFFCURVE",
"585 -32 CURVE",
"524 -28 OFFCURVE",
"445 75 OFFCURVE",
"200 66 CURVE SMOOTH",
"191 66 OFFCURVE",
"182 66 OFFCURVE",
"173 65 CURVE",
"183 208 OFFCURVE",
"318 436 OFFCURVE",
"318 509 CURVE SMOOTH",
"318 518 OFFCURVE",
"315 525 OFFCURVE",
"310 529 CURVE SMOOTH",
"293 541 OFFCURVE",
"266 547 OFFCURVE",
"241 547 CURVE SMOOTH",
"210 547 OFFCURVE",
"183 538 OFFCURVE",
"183 519 CURVE SMOOTH",
"183 513 OFFCURVE",
"186 505 OFFCURVE",
"192 497 CURVE SMOOTH",
"195 494 OFFCURVE",
"196 487 OFFCURVE",
"196 479 CURVE SMOOTH",
"196 415 OFFCURVE",
"121 217 OFFCURVE",
"121 102 CURVE SMOOTH",
"121 86 OFFCURVE",
"123 71 OFFCURVE",
"126 59 CURVE",
"78 51 OFFCURVE",
"39 31 OFFCURVE",
"26 -19 CURVE SMOOTH",
"25 -22 OFFCURVE",
"25 -25 OFFCURVE",
"25 -28 CURVE SMOOTH",
"25 -53 OFFCURVE",
"47 -78 OFFCURVE",
"74 -78 CURVE SMOOTH",
"78 -78 OFFCURVE",
"83 -77 OFFCURVE",
"87 -76 CURVE SMOOTH"
);
}
);
width = 582;
}
);
note = L;
unicode = 004C;
},
{
glyphname = M;
lastChange = "2021-04-16 08:59:06 +0000";
layers = (
{
hints = (
{
horizontal = 1;
place = "{0, 21}";
target = up;
type = BottomGhost;
},
{
horizontal = 1;
place = "{609, -20}";
target = down;
type = TopGhost;
},
{
place = "{440, 94}";
type = Stem;
},
{
place = "{820, 78}";
type = Stem;
}
);
layerId = "5B1D346E-B0E2-499B-AAFE-AE2E263C1006";
paths = (
{
closed = 1;
nodes = (
"26 -56 OFFCURVE",
"51 -15 OFFCURVE",
"76 41 CURVE SMOOTH",
"165 241 OFFCURVE",
"321 392 OFFCURVE",
"400 415 CURVE SMOOTH",
"419 421 OFFCURVE",
"440 391 OFFCURVE",
"440 316 CURVE SMOOTH",
"440 286 OFFCURVE",
"437 250 OFFCURVE",
"429 206 CURVE SMOOTH",
"421 163 OFFCURVE",
"406 111 OFFCURVE",
"406 69 CURVE SMOOTH",
"406 28 OFFCURVE",
"421 -2 OFFCURVE",
"474 0 CURVE SMOOTH",
"594 5 OFFCURVE",
"714 296 OFFCURVE",
"805 311 CURVE SMOOTH",
"816 313 OFFCURVE",
"819 298 OFFCURVE",
"819 274 CURVE SMOOTH",
"819 243 OFFCURVE",
"814 196 OFFCURVE",
"814 147 CURVE SMOOTH",
"814 84 OFFCURVE",
"822 17 OFFCURVE",
"862 -21 CURVE SMOOTH",
"877 -36 OFFCURVE",
"887 -42 OFFCURVE",
"893 -42 CURVE SMOOTH",
"897 -42 OFFCURVE",
"899 -40 OFFCURVE",
"899 -34 CURVE SMOOTH",
"899 -27 OFFCURVE",
"896 -16 OFFCURVE",
"890 -2 CURVE SMOOTH",
"880 21 OFFCURVE",
"878 56 OFFCURVE",
"878 97 CURVE SMOOTH",
"878 141 OFFCURVE",
"881 191 OFFCURVE",
"881 237 CURVE SMOOTH",
"881 314 OFFCURVE",
"873 377 OFFCURVE",
"827 377 CURVE SMOOTH",
"823 377 OFFCURVE",
"819 377 OFFCURVE",
"815 376 CURVE SMOOTH",
"719 357 OFFCURVE",
"624 158 OFFCURVE",
"526 53 CURVE SMOOTH",
"518 44 OFFCURVE",
"515 62 OFFCURVE",
"515 89 CURVE SMOOTH",
"515 120 OFFCURVE",
"519 162 OFFCURVE",
"523 187 CURVE SMOOTH",
"530 229 OFFCURVE",
"534 269 OFFCURVE",
"534 305 CURVE SMOOTH",
"534 402 OFFCURVE",
"507 469 OFFCURVE",
"453 469 CURVE SMOOTH",
"448 469 OFFCURVE",
"443 468 OFFCURVE",
"437 467 CURVE SMOOTH",
"363 451 OFFCURVE",
"250 358 OFFCURVE",
"215 320 CURVE SMOOTH",
"190 293 OFFCURVE",
"268 433 OFFCURVE",
"275 490 CURVE SMOOTH",
"282 556 OFFCURVE",
"220 609 OFFCURVE",
"184 609 CURVE SMOOTH",
"171 609 OFFCURVE",
"161 601 OFFCURVE",
"161 583 CURVE SMOOTH",
"161 579 OFFCURVE",
"162 573 OFFCURVE",
"163 567 CURVE SMOOTH",
"164 563 OFFCURVE",
"164 559 OFFCURVE",
"164 553 CURVE SMOOTH",
"164 443 OFFCURVE",
"-4 15 OFFCURVE",
"-9 -6 CURVE SMOOTH",
"-11 -12 OFFCURVE",
"-11 -18 OFFCURVE",
"-11 -24 CURVE SMOOTH",
"-11 -45 OFFCURVE",
"0 -60 OFFCURVE",
"6 -58 CURVE"
);
}
);
width = 978;
}
);
note = M;
unicode = 004D;
},
{
glyphname = N;
lastChange = "2021-04-16 08:59:06 +0000";
layers = (
{
hints = (
{
place = "{555, 32}";
type = Stem;
}
);
layerId = "5B1D346E-B0E2-499B-AAFE-AE2E263C1006";
paths = (
{
closed = 1;
nodes = (
"561 -27 OFFCURVE",
"569 -10 OFFCURVE",
"577 18 CURVE",
"591 12 OFFCURVE",
"604 8 OFFCURVE",
"613 8 CURVE SMOOTH",
"619 8 OFFCURVE",
"623 10 OFFCURVE",
"623 15 CURVE SMOOTH",
"623 22 OFFCURVE",
"615 34 OFFCURVE",
"594 55 CURVE SMOOTH",
"588 60 LINE",
"628 209 OFFCURVE",
"691 498 OFFCURVE",
"708 554 CURVE SMOOTH",
"709 557 OFFCURVE",
"709 560 OFFCURVE",
"709 562 CURVE SMOOTH",
"709 575 OFFCURVE",
"697 578 OFFCURVE",
"683 578 CURVE SMOOTH",
"669 578 OFFCURVE",
"653 574 OFFCURVE",
"653 574 CURVE",
"621 458 OFFCURVE",
"571 151 OFFCURVE",
"565 99 CURVE",
"565 89 LINE",
"521 141 OFFCURVE",
"448 229 OFFCURVE",
"449 235 CURVE",
"376 333 OFFCURVE",
"339 439 OFFCURVE",
"277 506 CURVE",
"278 511 OFFCURVE",
"279 515 OFFCURVE",
"279 519 CURVE SMOOTH",
"287 585 OFFCURVE",
"213 625 OFFCURVE",
"180 625 CURVE SMOOTH",
"168 625 OFFCURVE",
"161 619 OFFCURVE",
"166 608 CURVE SMOOTH",
"168 604 OFFCURVE",
"168 599 OFFCURVE",
"168 592 CURVE SMOOTH",
"168 511 OFFCURVE",
"59 218 OFFCURVE",
"59 73 CURVE SMOOTH",
"59 58 OFFCURVE",
"60 44 OFFCURVE",
"63 32 CURVE SMOOTH",
"76 -24 OFFCURVE",
"94 -45 OFFCURVE",
"94 -29 CURVE SMOOTH",
"94 -26 OFFCURVE",
"93 -22 OFFCURVE",
"92 -16 CURVE SMOOTH",
"91 -11 OFFCURVE",
"90 -5 OFFCURVE",
"90 2 CURVE SMOOTH",
"90 80 OFFCURVE",
"177 246 OFFCURVE",
"233 378 CURVE",
"275 328 OFFCURVE",
"303 297 OFFCURVE",
"365 217 CURVE SMOOTH",
"424 142 OFFCURVE",
"484 78 OFFCURVE",
"556 31 CURVE",
"554 14 OFFCURVE",
"551 -1 OFFCURVE",
"551 -12 CURVE SMOOTH",
"551 -24 OFFCURVE",
"554 -30 OFFCURVE",
"562 -27 CURVE"
);
}
);
width = 688;
}
);
note = N;
unicode = 004E;
},
{
glyphname = Eng;
lastChange = "2021-04-16 08:59:06 +0000";
layers = (
{
hints = (
{
place = "{555, 32}";
type = Stem;
},
{
place = "{773, 115}";
type = Stem;
},
{
place = "{555, 32}";
type = Stem;
}
);
layerId = "5B1D346E-B0E2-499B-AAFE-AE2E263C1006";
paths = (
{
closed = 1;
nodes = (
"482 -179 OFFCURVE",
"539 -96 OFFCURVE",
"586 14 CURVE",
"596 10 OFFCURVE",
"606 8 OFFCURVE",
"612 8 CURVE SMOOTH",
"618 8 OFFCURVE",
"622 10 OFFCURVE",
"622 15 CURVE SMOOTH",
"622 21 OFFCURVE",
"616 31 OFFCURVE",
"600 48 CURVE",
"659 198 OFFCURVE",
"703 389 OFFCURVE",
"732 563 CURVE SMOOTH",
"735 588 OFFCURVE",
"722 596 OFFCURVE",
"705 596 CURVE SMOOTH",
"685 596 OFFCURVE",
"660 584 OFFCURVE",
"653 574 CURVE",
"653 574 OFFCURVE",
"652 573 OFFCURVE",
"651 568 CURVE SMOOTH",
"644 541 OFFCURVE",
"636 505 OFFCURVE",
"628 464 CURVE SMOOTH",
"604 360 OFFCURVE",
"570 205 OFFCURVE",
"548 109 CURVE",
"505 161 OFFCURVE",
"448 230 OFFCURVE",
"449 235 CURVE",
"376 333 OFFCURVE",
"339 439 OFFCURVE",
"277 506 CURVE",
"278 511 OFFCURVE",
"279 515 OFFCURVE",
"279 519 CURVE SMOOTH",
"287 585 OFFCURVE",
"213 625 OFFCURVE",
"180 625 CURVE SMOOTH",
"168 625 OFFCURVE",
"161 619 OFFCURVE",
"166 608 CURVE SMOOTH",
"168 604 OFFCURVE",
"168 599 OFFCURVE",
"168 592 CURVE SMOOTH",
"168 511 OFFCURVE",
"59 218 OFFCURVE",
"59 73 CURVE SMOOTH",
"59 58 OFFCURVE",
"60 44 OFFCURVE",
"63 32 CURVE SMOOTH",
"76 -24 OFFCURVE",
"94 -45 OFFCURVE",
"94 -29 CURVE SMOOTH",
"94 -26 OFFCURVE",
"93 -22 OFFCURVE",
"92 -16 CURVE SMOOTH",
"91 -11 OFFCURVE",
"90 -5 OFFCURVE",
"90 2 CURVE SMOOTH",
"90 80 OFFCURVE",
"177 246 OFFCURVE",
"233 378 CURVE",
"275 328 OFFCURVE",
"303 297 OFFCURVE",
"365 217 CURVE SMOOTH",
"418 150 OFFCURVE",
"472 91 OFFCURVE",
"534 46 CURVE",
"531 32 OFFCURVE",
"529 23 OFFCURVE",
"528 21 CURVE SMOOTH",
"511 -27 OFFCURVE",
"486 -137 OFFCURVE",
"402 -157 CURVE SMOOTH",
"384 -161 OFFCURVE",
"368 -163 OFFCURVE",
"354 -163 CURVE SMOOTH",
"254 -163 OFFCURVE",
"254 -66 OFFCURVE",
"241 -73 CURVE SMOOTH",
"221 -84 OFFCURVE",
"212 -100 OFFCURVE",
"212 -119 CURVE SMOOTH",
"212 -165 OFFCURVE",
"268 -221 OFFCURVE",
"346 -221 CURVE SMOOTH",
"368 -221 OFFCURVE",
"392 -216 OFFCURVE",
"417 -206 CURVE SMOOTH"
);
}
);
width = 688;
}
);
unicode = 014A;
},
{
glyphname = O;
lastChange = "2021-04-16 08:59:06 +0000";
layers = (
{
hints = (
{
horizontal = 1;
place = "{-37, 32}";
type = Stem;
},
{
horizontal = 1;
place = "{458, 19}";
type = Stem;
},
{
horizontal = 1;
place = "{526, 26}";
type = Stem;
},
{
place = "{23, 78}";
type = Stem;
},
{
place = "{640, 35}";
type = Stem;
},
{
place = "{738, 73}";
type = Stem;
}
);
layerId = "5B1D346E-B0E2-499B-AAFE-AE2E263C1006";
paths = (
{
closed = 1;
nodes = (
"345 -34 OFFCURVE",
"378 -38 OFFCURVE",
"409 -38 CURVE SMOOTH",
"584 -38 OFFCURVE",
"728 66 OFFCURVE",
"791 196 CURVE SMOOTH",
"805 226 OFFCURVE",
"811 254 OFFCURVE",
"811 281 CURVE SMOOTH",
"811 369 OFFCURVE",
"745 436 OFFCURVE",
"667 464 CURVE",
"667 463 LINE",
"672 470 OFFCURVE",
"675 479 OFFCURVE",
"675 488 CURVE SMOOTH",
"675 494 OFFCURVE",
"674 500 OFFCURVE",
"670 505 CURVE SMOOTH",
"648 536 OFFCURVE",
"560 552 OFFCURVE",
"468 552 CURVE SMOOTH",
"429 552 OFFCURVE",
"389 549 OFFCURVE",
"353 543 CURVE SMOOTH",
"140 506 OFFCURVE",
"23 373 OFFCURVE",
"23 243 CURVE SMOOTH",
"23 128 OFFCURVE",
"114 15 OFFCURVE",
"312 -27 CURVE SMOOTH"
);
},
{
closed = 1;
nodes = (
"195 29 OFFCURVE",
"120 129 OFFCURVE",
"120 236 CURVE SMOOTH",
"120 342 OFFCURVE",
"193 454 OFFCURVE",
"382 507 CURVE SMOOTH",
"428 520 OFFCURVE",
"477 526 OFFCURVE",
"519 526 CURVE SMOOTH",
"585 526 OFFCURVE",
"636 510 OFFCURVE",
"640 478 CURVE SMOOTH",
"640 472 LINE",
"626 475 OFFCURVE",
"611 477 OFFCURVE",
"596 477 CURVE SMOOTH",
"597 477 LINE SMOOTH",
"479 480 OFFCURVE",
"444 457 OFFCURVE",
"444 445 CURVE SMOOTH",
"444 440 OFFCURVE",
"449 437 OFFCURVE",
"456 437 CURVE SMOOTH",
"461 437 OFFCURVE",
"467 439 OFFCURVE",
"473 442 CURVE SMOOTH",
"493 453 OFFCURVE",
"517 458 OFFCURVE",
"544 458 CURVE SMOOTH",
"631 458 OFFCURVE",
"738 401 OFFCURVE",
"738 296 CURVE SMOOTH",
"738 271 OFFCURVE",
"732 243 OFFCURVE",
"718 212 CURVE SMOOTH",
"663 93 OFFCURVE",
"534 -5 OFFCURVE",
"383 -5 CURVE SMOOTH",
"357 -5 OFFCURVE",
"330 -2 OFFCURVE",
"303 4 CURVE SMOOTH"
);
}
);
width = 830;
}
);
note = O;
unicode = 004F;
},
{
glyphname = Oslash;
lastChange = "2021-04-16 08:59:06 +0000";
layers = (
{
hints = (
{
horizontal = 1;
place = "{-37, 32}";
type = Stem;
},
{
horizontal = 1;
place = "{526, 26}";
type = Stem;
},
{
horizontal = 1;
place = "{585, -20}";
target = down;
type = TopGhost;
},
{
place = "{23, 78}";
type = Stem;
},
{
place = "{738, 73}";
type = Stem;
}
);
layerId = "5B1D346E-B0E2-499B-AAFE-AE2E263C1006";
paths = (
{
closed = 1;
nodes = (
"345 -34 OFFCURVE",
"378 -38 OFFCURVE",
"409 -38 CURVE SMOOTH",
"584 -38 OFFCURVE",
"728 66 OFFCURVE",
"791 196 CURVE SMOOTH",
"805 226 OFFCURVE",
"811 255 OFFCURVE",
"811 281 CURVE SMOOTH",
"811 369 OFFCURVE",
"745 436 OFFCURVE",
"668 464 CURVE",
"672 470 OFFCURVE",
"675 479 OFFCURVE",
"675 488 CURVE SMOOTH",
"675 494 OFFCURVE",
"674 500 OFFCURVE",
"670 505 CURVE SMOOTH",
"665 513 OFFCURVE",
"655 519 OFFCURVE",
"642 525 CURVE",
"662 546 LINE",
"668 550 OFFCURVE",
"674 565 OFFCURVE",
"674 575 CURVE SMOOTH",
"674 581 OFFCURVE",
"672 586 OFFCURVE",
"667 586 CURVE SMOOTH",
"664 586 OFFCURVE",
"658 583 OFFCURVE",
"650 575 CURVE SMOOTH",
"610 537 LINE",
"572 547 OFFCURVE",
"522 552 OFFCURVE",
"470 552 CURVE SMOOTH",
"430 552 OFFCURVE",
"389 549 OFFCURVE",
"353 543 CURVE SMOOTH",
"140 506 OFFCURVE",
"23 373 OFFCURVE",
"23 244 CURVE SMOOTH",
"23 170 OFFCURVE",
"61 97 OFFCURVE",
"140 43 CURVE",
"96 -4 LINE SMOOTH",
"94 -7 OFFCURVE",
"92 -10 OFFCURVE",
"92 -13 CURVE SMOOTH",
"92 -23 OFFCURVE",
"103 -34 OFFCURVE",
"117 -34 CURVE SMOOTH",
"125 -34 OFFCURVE",
"135 -30 OFFCURVE",
"144 -20 CURVE SMOOTH",
"180 19 LINE",
"217 0 OFFCURVE",
"261 -16 OFFCURVE",
"312 -27 CURVE SMOOTH"
);
},
{
closed = 1;
nodes = (
"127 120 OFFCURVE",
"101 177 OFFCURVE",
"101 237 CURVE SMOOTH",
"101 340 OFFCURVE",
"180 450 OFFCURVE",
"382 507 CURVE SMOOTH",
"428 520 OFFCURVE",
"477 526 OFFCURVE",
"519 526 CURVE SMOOTH",
"547 526 OFFCURVE",
"571 524 OFFCURVE",
"591 518 CURVE",
"577 504 OFFCURVE",
"563 490 OFFCURVE",
"549 477 CURVE",
"469 474 OFFCURVE",
"444 456 OFFCURVE",
"444 445 CURVE SMOOTH",
"444 440 OFFCURVE",
"449 437 OFFCURVE",
"456 437 CURVE SMOOTH",
"461 437 OFFCURVE",
"467 439 OFFCURVE",
"473 442 CURVE SMOOTH",
"489 451 OFFCURVE",
"508 456 OFFCURVE",
"530 457 CURVE",
"386 314 OFFCURVE",
"323 241 OFFCURVE",
"171 76 CURVE"
);
},
{
closed = 1;
nodes = (
"267 12 OFFCURVE",
"234 27 OFFCURVE",
"206 47 CURVE",
"378 232 OFFCURVE",
"416 282 OFFCURVE",
"577 455 CURVE",
"656 443 OFFCURVE",
"738 388 OFFCURVE",
"738 296 CURVE SMOOTH",
"738 271 OFFCURVE",
"732 243 OFFCURVE",
"718 212 CURVE SMOOTH",
"663 93 OFFCURVE",
"534 -5 OFFCURVE",
"383 -5 CURVE SMOOTH",
"357 -5 OFFCURVE",
"330 -2 OFFCURVE",
"303 4 CURVE SMOOTH"
);
},
{
closed = 1;
nodes = (
"626 475 OFFCURVE",
"612 477 OFFCURVE",
"597 477 CURVE",
"623 504 LINE",
"633 497 OFFCURVE",
"639 488 OFFCURVE",
"640 478 CURVE SMOOTH",
"640 472 LINE"
);
}
);
width = 830;
}
);
note = Oslash;
unicode = 00D8;
},
{
glyphname = OE;
lastChange = "2021-04-16 08:59:06 +0000";
layers = (
{
hints = (
{
horizontal = 1;
place = "{-37, 32}";
type = Stem;
},
{
horizontal = 1;
place = "{325, -20}";
target = down;
type = TopGhost;
},
{
horizontal = 1;
place = "{457, 20}";
type = Stem;
},
{
horizontal = 1;
place = "{555, 31}";
type = Stem;
},
{
place = "{23, 78}";
type = Stem;
},
{
place = "{640, 35}";
type = Stem;
},
{
place = "{1159, 41}";
type = Stem;
},
{
horizontal = 1;
place = "{-50, 42}";
type = Stem;
},
{
horizontal = 1;
place = "{238, 87}";
type = Stem;
},
{
place = "{623, 84}";
type = Stem;
},
{
horizontal = 1;
place = "{318, -20}";
target = down;
type = TopGhost;
},
{
horizontal = 1;
place = "{526, 26}";
type = Stem;
},
{
horizontal = 1;
place = "{225, 72}";
type = Stem;
}
);
layerId = "5B1D346E-B0E2-499B-AAFE-AE2E263C1006";
paths = (
{
closed = 1;
nodes = (
"846 -51 OFFCURVE",
"860 -52 OFFCURVE",
"875 -52 CURVE SMOOTH",
"1021 -52 OFFCURVE",
"1223 12 OFFCURVE",
"1223 91 CURVE SMOOTH",
"1223 123 OFFCURVE",
"1216 137 OFFCURVE",
"1208 137 CURVE SMOOTH",
"1197 137 OFFCURVE",
"1184 118 OFFCURVE",
"1175 90 CURVE SMOOTH",
"1158 37 OFFCURVE",
"1025 -8 OFFCURVE",
"905 -8 CURVE SMOOTH",
"882 -8 OFFCURVE",
"860 -7 OFFCURVE",
"839 -3 CURVE SMOOTH",
"759 11 OFFCURVE",
"712 77 OFFCURVE",
"707 170 CURVE SMOOTH",
"706 192 OFFCURVE",
"709 215 OFFCURVE",
"713 238 CURVE",
"824 257 OFFCURVE",
"955 282 OFFCURVE",
"1067 296 CURVE SMOOTH",
"1102 300 OFFCURVE",
"1117 305 OFFCURVE",
"1117 308 CURVE SMOOTH",
"1117 318 OFFCURVE",
"1014 325 OFFCURVE",
"909 325 CURVE SMOOTH",
"851 325 OFFCURVE",
"793 323 OFFCURVE",
"750 318 CURVE SMOOTH",
"741 317 LINE",
"788 416 OFFCURVE",
"877 507 OFFCURVE",
"950 531 CURVE SMOOTH",
"1001 548 OFFCURVE",
"1043 555 OFFCURVE",
"1076 555 CURVE SMOOTH",
"1130 555 OFFCURVE",
"1159 535 OFFCURVE",
"1159 498 CURVE SMOOTH",
"1159 480 OFFCURVE",
"1165 473 OFFCURVE",
"1171 473 CURVE SMOOTH",
"1184 473 OFFCURVE",
"1200 494 OFFCURVE",
"1200 514 CURVE SMOOTH",
"1200 520 OFFCURVE",
"1199 525 OFFCURVE",
"1196 530 CURVE SMOOTH",
"1177 563 OFFCURVE",
"1118 586 OFFCURVE",
"1043 586 CURVE SMOOTH",
"1007 586 OFFCURVE",
"967 580 OFFCURVE",
"925 568 CURVE SMOOTH",
"842 543 OFFCURVE",
"777 492 OFFCURVE",
"729 433 CURVE",
"711 447 OFFCURVE",
"691 455 OFFCURVE",
"668 464 CURVE",
"672 470 OFFCURVE",
"675 479 OFFCURVE",
"675 488 CURVE SMOOTH",
"675 494 OFFCURVE",
"674 500 OFFCURVE",
"670 505 CURVE SMOOTH",
"648 536 OFFCURVE",
"560 552 OFFCURVE",
"468 552 CURVE SMOOTH",
"429 552 OFFCURVE",
"389 549 OFFCURVE",
"353 543 CURVE SMOOTH",
"140 506 OFFCURVE",
"23 373 OFFCURVE",
"23 243 CURVE SMOOTH",
"23 128 OFFCURVE",
"114 15 OFFCURVE",
"312 -27 CURVE SMOOTH",
"345 -34 OFFCURVE",
"377 -37 OFFCURVE",
"409 -37 CURVE SMOOTH",
"498 -37 OFFCURVE",
"579 -11 OFFCURVE",
"646 33 CURVE",
"673 -17 OFFCURVE",
"730 -39 OFFCURVE",
"832 -50 CURVE SMOOTH"
);
},
{
closed = 1;
nodes = (
"183 32 OFFCURVE",
"101 131 OFFCURVE",
"101 237 CURVE SMOOTH",
"101 340 OFFCURVE",
"180 451 OFFCURVE",
"382 507 CURVE SMOOTH",
"428 520 OFFCURVE",
"477 526 OFFCURVE",
"519 526 CURVE SMOOTH",
"585 526 OFFCURVE",
"636 510 OFFCURVE",
"640 478 CURVE SMOOTH",
"640 472 LINE",
"626 475 OFFCURVE",
"612 477 OFFCURVE",
"597 477 CURVE SMOOTH",
"479 480 OFFCURVE",
"444 457 OFFCURVE",
"444 445 CURVE SMOOTH",
"444 440 OFFCURVE",
"449 437 OFFCURVE",
"456 437 CURVE SMOOTH",
"461 437 OFFCURVE",
"467 439 OFFCURVE",
"473 442 CURVE SMOOTH",
"492 452 OFFCURVE",
"517 458 OFFCURVE",
"543 458 CURVE SMOOTH",
"598 458 OFFCURVE",
"661 436 OFFCURVE",
"700 393 CURVE",
"680 363 OFFCURVE",
"664 332 OFFCURVE",
"652 301 CURVE",
"638 301 OFFCURVE",
"628 297 OFFCURVE",
"622 297 CURVE SMOOTH",
"612 297 OFFCURVE",
"604 274 OFFCURVE",
"604 254 CURVE SMOOTH",
"604 238 OFFCURVE",
"608 225 OFFCURVE",
"620 225 CURVE SMOOTH",
"629 225 LINE",
"629 208 OFFCURVE",
"624 191 OFFCURVE",
"623 176 CURVE SMOOTH",
"622 143 OFFCURVE",
"623 115 OFFCURVE",
"627 90 CURVE",
"563 33 OFFCURVE",
"477 -5 OFFCURVE",
"383 -5 CURVE SMOOTH",
"357 -5 OFFCURVE",
"330 -2 OFFCURVE",
"303 4 CURVE SMOOTH"
);
}
);
width = 1226;
}
);
note = OE;
unicode = 0152;
},
{
glyphname = P;
lastChange = "2021-04-16 08:59:06 +0000";
layers = (
{
hints = (
{
horizontal = 1;
place = "{200, 25}";
type = Stem;
},
{
horizontal = 1;
place = "{492, 18}";
type = Stem;
},
{
horizontal = 1;
place = "{561, 29}";
type = Stem;
},
{
place = "{628, 93}";
type = Stem;
}
);
layerId = "5B1D346E-B0E2-499B-AAFE-AE2E263C1006";
paths = (
{
closed = 1;
nodes = (
"236 203 OFFCURVE",
"251 200 OFFCURVE",
"276 200 CURVE SMOOTH",
"302 200 OFFCURVE",
"338 203 OFFCURVE",
"389 213 CURVE SMOOTH",
"539 243 OFFCURVE",
"675 314 OFFCURVE",
"712 391 CURVE SMOOTH",
"718 403 OFFCURVE",
"721 415 OFFCURVE",
"721 427 CURVE SMOOTH",
"721 515 OFFCURVE",
"566 590 OFFCURVE",
"384 590 CURVE SMOOTH",
"291 590 OFFCURVE",
"190 570 OFFCURVE",
"101 522 CURVE SMOOTH",
"88 515 OFFCURVE",
"82 509 OFFCURVE",
"82 504 CURVE SMOOTH",
"82 496 OFFCURVE",
"102 492 OFFCURVE",
"122 492 CURVE SMOOTH",
"138 492 OFFCURVE",
"154 494 OFFCURVE",
"163 499 CURVE SMOOTH",
"246 543 OFFCURVE",
"331 561 OFFCURVE",
"405 561 CURVE SMOOTH",
"532 561 OFFCURVE",
"628 509 OFFCURVE",
"628 442 CURVE SMOOTH",
"628 433 OFFCURVE",
"625 422 OFFCURVE",
"621 412 CURVE SMOOTH",
"588 335 OFFCURVE",
"460 225 OFFCURVE",
"313 225 CURVE SMOOTH",
"245 225 OFFCURVE",
"211 223 OFFCURVE",
"211 216 CURVE SMOOTH",
"211 214 OFFCURVE",
"216 210 OFFCURVE",
"228 206 CURVE SMOOTH"
);
},
{
closed = 1;
nodes = (
"72 59 OFFCURVE",
"208 354 OFFCURVE",
"319 490 CURVE SMOOTH",
"328 501 OFFCURVE",
"304 510 OFFCURVE",
"273 510 CURVE SMOOTH",
"241 510 OFFCURVE",
"201 500 OFFCURVE",
"182 470 CURVE SMOOTH",
"125 382 OFFCURVE",
"36 143 OFFCURVE",
"36 30 CURVE SMOOTH",
"36 21 OFFCURVE",
"37 12 OFFCURVE",
"38 4 CURVE SMOOTH",
"48 -48 OFFCURVE",
"65 -62 OFFCURVE",
"76 -62 CURVE SMOOTH",
"82 -62 OFFCURVE",
"86 -57 OFFCURVE",
"86 -53 CURVE"
);
}
);
width = 691;
}
);
note = P;
unicode = 0050;
},
{
glyphname = Thorn;
lastChange = "2021-04-16 08:59:06 +0000";
layers = (
{
hints = (
{
horizontal = 1;
place = "{200, 25}";
type = Stem;
},
{
horizontal = 1;
place = "{492, 18}";
type = Stem;
},
{
horizontal = 1;
place = "{561, 29}";
type = Stem;
},
{
place = "{628, 93}";
type = Stem;
}
);
layerId = "5B1D346E-B0E2-499B-AAFE-AE2E263C1006";
paths = (
{
closed = 1;
nodes = (
"59 -12 OFFCURVE",
"243 472 OFFCURVE",
"354 608 CURVE SMOOTH",
"363 619 OFFCURVE",
"339 628 OFFCURVE",
"308 628 CURVE SMOOTH",
"276 628 OFFCURVE",
"236 618 OFFCURVE",
"217 588 CURVE SMOOTH",
"159 497 OFFCURVE",
"23 80 OFFCURVE",
"23 -47 CURVE SMOOTH",
"23 -55 OFFCURVE",
"24 -62 OFFCURVE",
"25 -67 CURVE SMOOTH",
"35 -119 OFFCURVE",
"52 -133 OFFCURVE",
"63 -133 CURVE SMOOTH",
"69 -133 OFFCURVE",
"73 -128 OFFCURVE",
"73 -124 CURVE"
);
},
{
closed = 1;
nodes = (
"161 101 OFFCURVE",
"176 98 OFFCURVE",
"201 98 CURVE SMOOTH",
"225 98 OFFCURVE",
"259 101 OFFCURVE",
"298 111 CURVE SMOOTH",
"414 140 OFFCURVE",
"527 212 OFFCURVE",
"578 289 CURVE SMOOTH",
"593 311 OFFCURVE",
"600 333 OFFCURVE",
"600 354 CURVE SMOOTH",
"600 429 OFFCURVE",
"511 488 OFFCURVE",
"392 488 CURVE SMOOTH",
"323 488 OFFCURVE",
"243 468 OFFCURVE",
"164 420 CURVE SMOOTH",
"150 411 OFFCURVE",
"145 405 OFFCURVE",
"145 401 CURVE SMOOTH",
"145 394 OFFCURVE",
"156 392 OFFCURVE",
"170 392 CURVE SMOOTH",
"181 392 OFFCURVE",
"193 394 OFFCURVE",
"201 397 CURVE SMOOTH",
"278 431 OFFCURVE",
"346 445 OFFCURVE",
"399 445 CURVE SMOOTH",
"475 445 OFFCURVE",
"522 416 OFFCURVE",
"522 369 CURVE SMOOTH",
"522 351 OFFCURVE",
"516 332 OFFCURVE",
"502 310 CURVE SMOOTH",
"453 233 OFFCURVE",
"328 123 OFFCURVE",
"222 123 CURVE SMOOTH",
"172 123 OFFCURVE",
"147 121 OFFCURVE",
"147 114 CURVE SMOOTH",
"147 111 OFFCURVE",
"150 108 OFFCURVE",
"156 104 CURVE SMOOTH"
);
}
);
width = 691;
}
);
unicode = 00DE;
},
{
glyphname = Q;
lastChange = "2021-04-16 08:59:06 +0000";
layers = (
{
hints = (
{
horizontal = 1;
place = "{-122, 80}";
type = Stem;
}
);
layerId = "5B1D346E-B0E2-499B-AAFE-AE2E263C1006";
paths = (
{
closed = 1;
nodes = (
"794 -190 OFFCURVE",
"782 -107 OFFCURVE",
"786 -95 CURVE SMOOTH",
"797 -66 OFFCURVE",
"761 -150 OFFCURVE",
"619 -150 CURVE SMOOTH",
"601 -150 OFFCURVE",
"583 -149 OFFCURVE",
"562 -146 CURVE SMOOTH",
"383 -122 OFFCURVE",
"313 -42 OFFCURVE",
"169 -42 CURVE SMOOTH",
"161 -42 OFFCURVE",
"153 -42 OFFCURVE",
"144 -43 CURVE SMOOTH",
"108 -45 OFFCURVE",
"77 -87 OFFCURVE",
"77 -118 CURVE SMOOTH",
"77 -131 OFFCURVE",
"81 -141 OFFCURVE",
"92 -148 CURVE SMOOTH",
"106 -157 OFFCURVE",
"73 -122 OFFCURVE",
"190 -122 CURVE SMOOTH",
"379 -122 OFFCURVE",
"448 -176 OFFCURVE",
"628 -183 CURVE SMOOTH"
);
},
{
closed = 1;
nodes = (
"538 -38 OFFCURVE",
"693 66 OFFCURVE",
"770 197 CURVE SMOOTH",
"791 233 OFFCURVE",
"801 268 OFFCURVE",
"801 300 CURVE SMOOTH",
"801 378 OFFCURVE",
"744 438 OFFCURVE",
"674 464 CURVE",
"674 463 LINE",
"680 471 OFFCURVE",
"684 482 OFFCURVE",
"684 492 CURVE SMOOTH",
"684 496 OFFCURVE",
"683 501 OFFCURVE",
"681 505 CURVE SMOOTH",
"663 536 OFFCURVE",
"576 552 OFFCURVE",
"484 552 CURVE SMOOTH",
"445 552 OFFCURVE",
"404 549 OFFCURVE",
"368 543 CURVE SMOOTH",
"139 504 OFFCURVE",
"6 358 OFFCURVE",
"6 221 CURVE SMOOTH",
"6 114 OFFCURVE",
"87 12 OFFCURVE",
"267 -27 CURVE SMOOTH",
"299 -34 OFFCURVE",
"332 -38 OFFCURVE",
"363 -38 CURVE SMOOTH"
);
},
{
closed = 1;
nodes = (
"314 -5 OFFCURVE",
"288 -2 OFFCURVE",
"261 4 CURVE SMOOTH",
"152 29 OFFCURVE",
"82 117 OFFCURVE",
"82 215 CURVE SMOOTH",
"82 324 OFFCURVE",
"171 447 OFFCURVE",
"393 507 CURVE SMOOTH",
"441 520 OFFCURVE",
"490 526 OFFCURVE",
"532 526 CURVE SMOOTH",
"599 526 OFFCURVE",
"648 510 OFFCURVE",
"648 478 CURVE SMOOTH",
"648 472 LINE",
"634 475 OFFCURVE",
"619 477 OFFCURVE",
"604 477 CURVE SMOOTH",
"605 477 LINE SMOOTH",
"485 480 OFFCURVE",
"448 457 OFFCURVE",
"448 444 CURVE SMOOTH",
"448 440 OFFCURVE",
"453 437 OFFCURVE",
"460 437 CURVE SMOOTH",
"464 437 OFFCURVE",
"470 439 OFFCURVE",
"477 442 CURVE SMOOTH",
"498 453 OFFCURVE",
"523 458 OFFCURVE",
"550 458 CURVE SMOOTH",
"633 458 OFFCURVE",
"728 408 OFFCURVE",
"728 313 CURVE SMOOTH",
"728 284 OFFCURVE",
"719 250 OFFCURVE",
"698 213 CURVE SMOOTH",
"630 93 OFFCURVE",
"491 -5 OFFCURVE",
"341 -5 CURVE SMOOTH"
);
}
);
width = 819;
}
);
note = Q;
unicode = 0051;
},
{
glyphname = R;
lastChange = "2021-04-16 08:59:06 +0000";
layers = (
{
hints = (
{
horizontal = 1;
place = "{220, 25}";
type = Stem;
}
);
layerId = "5B1D346E-B0E2-499B-AAFE-AE2E263C1006";
paths = (
{
closed = 1;
nodes = (
"654 -40 OFFCURVE",
"555 18 OFFCURVE",
"524 43 CURVE SMOOTH",
"435 114 OFFCURVE",
"373 196 OFFCURVE",
"355 221 CURVE",
"380 221 OFFCURVE",
"407 226 OFFCURVE",
"431 230 CURVE SMOOTH",
"551 251 OFFCURVE",
"684 319 OFFCURVE",
"712 366 CURVE SMOOTH",
"718 377 OFFCURVE",
"721 388 OFFCURVE",
"721 399 CURVE SMOOTH",
"721 476 OFFCURVE",
"569 554 OFFCURVE",
"393 554 CURVE SMOOTH",
"313 554 OFFCURVE",
"229 538 OFFCURVE",
"152 500 CURVE SMOOTH",
"131 489 OFFCURVE",
"123 481 OFFCURVE",
"123 476 CURVE SMOOTH",
"123 471 OFFCURVE",
"130 469 OFFCURVE",
"139 469 CURVE SMOOTH",
"146 469 OFFCURVE",
"155 471 OFFCURVE",
"163 474 CURVE SMOOTH",
"217 496 OFFCURVE",
"295 507 OFFCURVE",
"371 507 CURVE SMOOTH",
"499 507 OFFCURVE",
"624 475 OFFCURVE",
"624 406 CURVE SMOOTH",
"624 400 OFFCURVE",
"623 394 OFFCURVE",
"621 387 CURVE SMOOTH",
"603 329 OFFCURVE",
"498 246 OFFCURVE",
"351 246 CURVE SMOOTH",
"343 246 OFFCURVE",
"335 245 OFFCURVE",
"328 245 CURVE SMOOTH",
"308 245 LINE SMOOTH",
"270 245 OFFCURVE",
"252 241 OFFCURVE",
"252 234 CURVE SMOOTH",
"252 231 OFFCURVE",
"258 227 OFFCURVE",
"270 223 CURVE",
"270 223 OFFCURVE",
"275 220 OFFCURVE",
"279 220 CURVE",
"273 209 OFFCURVE",
"268 197 OFFCURVE",
"268 187 CURVE SMOOTH",
"268 180 OFFCURVE",
"270 174 OFFCURVE",
"275 169 CURVE SMOOTH",
"289 155 OFFCURVE",
"402 64 OFFCURVE",
"458 27 CURVE SMOOTH",
"509 -7 OFFCURVE",
"599 -40 OFFCURVE",
"625 -40 CURVE SMOOTH"
);
},
{
closed = 1;
nodes = (
"72 34 OFFCURVE",
"208 329 OFFCURVE",
"319 465 CURVE SMOOTH",
"328 476 OFFCURVE",
"304 485 OFFCURVE",
"273 485 CURVE SMOOTH",
"241 485 OFFCURVE",
"201 475 OFFCURVE",
"182 445 CURVE SMOOTH",
"125 357 OFFCURVE",
"36 118 OFFCURVE",
"36 5 CURVE SMOOTH",
"36 -4 OFFCURVE",
"37 -13 OFFCURVE",
"38 -21 CURVE SMOOTH",
"48 -73 OFFCURVE",
"65 -87 OFFCURVE",
"76 -87 CURVE SMOOTH",
"82 -87 OFFCURVE",
"86 -82 OFFCURVE",
"86 -78 CURVE"
);
}
);
width = 703;
}
);
note = R;
unicode = 0052;
},
{
glyphname = S;
lastChange = "2021-04-16 08:59:06 +0000";
layers = (
{
hints = (
{
horizontal = 1;
place = "{-22, 51}";
type = Stem;
},
{
horizontal = 1;
place = "{556, 26}";
type = Stem;
},
{
place = "{135, 156}";
type = Stem;
},
{
place = "{544, 99}";
type = Stem;
},
{
place = "{682, 93}";
type = Stem;
}
);
layerId = "5B1D346E-B0E2-499B-AAFE-AE2E263C1006";
paths = (
{
closed = 1;
nodes = (
"121 -19 OFFCURVE",
"173 -22 OFFCURVE",
"240 -22 CURVE SMOOTH",
"399 -22 OFFCURVE",
"643 -3 OFFCURVE",
"643 87 CURVE SMOOTH",
"643 99 OFFCURVE",
"639 112 OFFCURVE",
"630 126 CURVE SMOOTH",
"605 166 OFFCURVE",
"466 198 OFFCURVE",
"369 258 CURVE SMOOTH",
"312 294 OFFCURVE",
"291 332 OFFCURVE",
"291 367 CURVE SMOOTH",
"291 427 OFFCURVE",
"352 480 OFFCURVE",
"388 502 CURVE SMOOTH",
"445 536 OFFCURVE",
"524 556 OFFCURVE",
"588 556 CURVE SMOOTH",
"616 556 OFFCURVE",
"641 552 OFFCURVE",
"660 544 CURVE SMOOTH",
"681 535 OFFCURVE",
"685 513 OFFCURVE",
"685 487 CURVE SMOOTH",
"685 471 OFFCURVE",
"683 453 OFFCURVE",
"683 437 CURVE SMOOTH",
"683 408 OFFCURVE",
"689 385 OFFCURVE",
"722 387 CURVE SMOOTH",
"743 389 OFFCURVE",
"776 459 OFFCURVE",
"776 507 CURVE SMOOTH",
"776 522 OFFCURVE",
"773 534 OFFCURVE",
"766 542 CURVE SMOOTH",
"747 564 OFFCURVE",
"673 582 OFFCURVE",
"578 582 CURVE SMOOTH",
"453 582 OFFCURVE",
"293 550 OFFCURVE",
"179 454 CURVE SMOOTH",
"147 427 OFFCURVE",
"134 404 OFFCURVE",
"134 383 CURVE SMOOTH",
"134 343 OFFCURVE",
"182 312 OFFCURVE",
"238 282 CURVE SMOOTH",
"419 186 OFFCURVE",
"494 180 OFFCURVE",
"537 138 CURVE SMOOTH",
"542 133 OFFCURVE",
"545 128 OFFCURVE",
"545 123 CURVE SMOOTH",
"545 71 OFFCURVE",
"285 29 OFFCURVE",
"153 29 CURVE SMOOTH",
"126 29 OFFCURVE",
"105 30 OFFCURVE",
"92 34 CURVE SMOOTH",
"80 37 OFFCURVE",
"68 39 OFFCURVE",
"56 39 CURVE SMOOTH",
"33 39 OFFCURVE",
"13 32 OFFCURVE",
"13 23 CURVE SMOOTH",
"13 13 OFFCURVE",
"38 -2 OFFCURVE",
"108 -16 CURVE SMOOTH"
);
}
);
width = 750;
}
);
note = S;
unicode = 0053;
},
{
glyphname = Germandbls;
lastChange = "2021-07-09 13:26:34 +0000";
layers = (
{
hints = (
{
horizontal = 1;
place = "{-98, 20}";
type = Stem;
},
{
horizontal = 1;
place = "{560, 26}";
type = Stem;
},
{
place = "{17, 52}";
type = Stem;
},
{
place = "{357, 57}";
type = Stem;
},
{
place = "{580, 93}";
type = Stem;
}
);
layerId = "5B1D346E-B0E2-499B-AAFE-AE2E263C1006";
paths = (
{
closed = 1;
nodes = (
"64 -126 OFFCURVE",
"63 -116 OFFCURVE",
"63 -106 CURVE SMOOTH",
"63 23 OFFCURVE",
"135 341 OFFCURVE",
"284 497 CURVE SMOOTH",
"328 543 OFFCURVE",
"371 562 OFFCURVE",
"407 562 CURVE SMOOTH",
"470 562 OFFCURVE",
"514 507 OFFCURVE",
"514 448 CURVE SMOOTH",
"514 394 OFFCURVE",
"479 336 OFFCURVE",
"392 309 CURVE SMOOTH",
"338 292 OFFCURVE",
"316 289 OFFCURVE",
"316 280 CURVE SMOOTH",
"316 273 OFFCURVE",
"333 262 OFFCURVE",
"357 235 CURVE SMOOTH",
"383 205 OFFCURVE",
"424 159 OFFCURVE",
"424 110 CURVE SMOOTH",
"424 97 OFFCURVE",
"421 85 OFFCURVE",
"414 72 CURVE SMOOTH",
"389 20 OFFCURVE",
"353 -31 OFFCURVE",
"255 -31 CURVE SMOOTH",
"244 -31 OFFCURVE",
"232 -31 OFFCURVE",
"219 -29 CURVE SMOOTH",
"208 -28 OFFCURVE",
"199 -27 OFFCURVE",
"191 -27 CURVE SMOOTH",
"176 -27 OFFCURVE",
"169 -30 OFFCURVE",
"169 -33 CURVE SMOOTH",
"169 -39 OFFCURVE",
"205 -50 OFFCURVE",
"273 -50 CURVE SMOOTH",
"283 -50 OFFCURVE",
"294 -50 OFFCURVE",
"306 -49 CURVE SMOOTH",
"405 -45 OFFCURVE",
"487 -11 OFFCURVE",
"520 56 CURVE SMOOTH",
"527 70 OFFCURVE",
"531 84 OFFCURVE",
"531 99 CURVE SMOOTH",
"531 154 OFFCURVE",
"482 203 OFFCURVE",
"431 238 CURVE SMOOTH",
"417 247 OFFCURVE",
"368 260 OFFCURVE",
"368 276 CURVE SMOOTH",
"368 282 OFFCURVE",
"377 290 OFFCURVE",
"406 297 CURVE SMOOTH",
"538 333 OFFCURVE",
"597 403 OFFCURVE",
"597 465 CURVE SMOOTH",
"597 530 OFFCURVE",
"534 586 OFFCURVE",
"427 586 CURVE SMOOTH",
"409 586 OFFCURVE",
"389 584 OFFCURVE",
"368 580 CURVE SMOOTH",
"270 564 OFFCURVE",
"210 506 OFFCURVE",
"145 409 CURVE SMOOTH",
"91 332 OFFCURVE",
"17 135 OFFCURVE",
"17 -16 CURVE SMOOTH",
"17 -38 OFFCURVE",
"19 -61 OFFCURVE",
"23 -80 CURVE SMOOTH",
"31 -128 OFFCURVE",
"47 -141 OFFCURVE",
"56 -141 CURVE SMOOTH",
"61 -141 OFFCURVE",
"65 -137 OFFCURVE",
"65 -133 CURVE"
);
}
);
width = 637;
}
);
unicode = 1E9E;
},
{
glyphname = Schwa;
lastChange = "2021-04-16 08:59:06 +0000";
layers = (
{
hints = (
{
horizontal = 1;
place = "{264, 63}";
type = Stem;
}
);
layerId = "5B1D346E-B0E2-499B-AAFE-AE2E263C1006";
paths = (
{
closed = 1;
nodes = (
"160 539 OFFCURVE",
"139 517 OFFCURVE",
"139 505 CURVE SMOOTH",
"139 498 OFFCURVE",
"146 494 OFFCURVE",
"153 493 CURVE",
"158 491 OFFCURVE",
"165 491 OFFCURVE",
"170 491 CURVE SMOOTH",
"193 491 OFFCURVE",
"214 505 OFFCURVE",
"259 532 CURVE SMOOTH",
"274 543 OFFCURVE",
"359 593 OFFCURVE",
"434 593 CURVE SMOOTH",
"465 593 OFFCURVE",
"558 585 OFFCURVE",
"593 544 CURVE SMOOTH",
"626 505 OFFCURVE",
"638 458 OFFCURVE",
"638 411 CURVE SMOOTH",
"638 383 OFFCURVE",
"635 357 OFFCURVE",
"628 331 CURVE",
"629 331 LINE SMOOTH",
"646 331 OFFCURVE",
"588 336 OFFCURVE",
"558 336 CURVE SMOOTH",
"440 336 OFFCURVE",
"201 323 OFFCURVE",
"113 284 CURVE SMOOTH",
"92 274 OFFCURVE",
"83 262 OFFCURVE",
"83 245 CURVE SMOOTH",
"83 107 OFFCURVE",
"272 17 OFFCURVE",
"411 17 CURVE SMOOTH",
"588 17 OFFCURVE",
"741 151 OFFCURVE",
"741 354 CURVE SMOOTH",
"741 532 OFFCURVE",
"625 626 OFFCURVE",
"456 626 CURVE SMOOTH",
"344 626 OFFCURVE",
"236 576 OFFCURVE",
"217 567 CURVE SMOOTH"
);
},
{
closed = 1;
nodes = (
"604 253 OFFCURVE",
"575 206 OFFCURVE",
"565 194 CURVE SMOOTH",
"440 53 OFFCURVE",
"275 102 OFFCURVE",
"236 130 CURVE SMOOTH",
"207 151 OFFCURVE",
"149 194 OFFCURVE",
"149 236 CURVE SMOOTH",
"149 248 OFFCURVE",
"160 258 OFFCURVE",
"185 265 CURVE SMOOTH",
"273 286 OFFCURVE",
"457 292 OFFCURVE",
"529 292 CURVE SMOOTH",
"568 292 OFFCURVE",
"599 290 OFFCURVE",
"618 287 CURVE"
);
}
);
width = 756;
}
);
unicode = 018F;
},
{
glyphname = T;
lastChange = "2021-04-16 08:59:06 +0000";
layers = (
{
hints = (
{
horizontal = 1;
place = "{411, 32}";
type = Stem;
},
{
horizontal = 1;
place = "{496, 79}";
type = Stem;
},
{
place = "{47, 89}";
type = Stem;
}
);
layerId = "5B1D346E-B0E2-499B-AAFE-AE2E263C1006";
paths = (
{
closed = 1;
nodes = (
"360 59 OFFCURVE",
"497 316 OFFCURVE",
"605 452 CURVE",
"606 460 LINE",
"698 434 OFFCURVE",
"780 411 OFFCURVE",
"842 411 CURVE SMOOTH",
"872 411 OFFCURVE",
"898 417 OFFCURVE",
"918 430 CURVE SMOOTH",
"928 437 OFFCURVE",
"945 445 OFFCURVE",
"945 455 CURVE SMOOTH",
"945 459 OFFCURVE",
"942 463 OFFCURVE",
"933 468 CURVE",
"920 473 OFFCURVE",
"922 443 OFFCURVE",
"892 443 CURVE",
"829 437 OFFCURVE",
"607 576 OFFCURVE",
"335 576 CURVE SMOOTH",
"302 576 OFFCURVE",
"268 574 OFFCURVE",
"234 569 CURVE SMOOTH",
"158 559 OFFCURVE",
"47 523 OFFCURVE",
"47 456 CURVE SMOOTH",
"47 444 OFFCURVE",
"51 430 OFFCURVE",
"59 416 CURVE SMOOTH",
"73 392 OFFCURVE",
"92 366 OFFCURVE",
"120 366 CURVE SMOOTH",
"126 366 OFFCURVE",
"133 368 OFFCURVE",
"140 371 CURVE SMOOTH",
"147 374 OFFCURVE",
"149 377 OFFCURVE",
"149 380 CURVE SMOOTH",
"149 388 OFFCURVE",
"135 398 OFFCURVE",
"135 409 CURVE SMOOTH",
"135 414 OFFCURVE",
"138 420 OFFCURVE",
"147 426 CURVE SMOOTH",
"222 479 OFFCURVE",
"303 497 OFFCURVE",
"383 497 CURVE SMOOTH",
"444 497 OFFCURVE",
"505 486 OFFCURVE",
"564 472 CURVE",
"531 472 OFFCURVE",
"488 464 OFFCURVE",
"468 432 CURVE SMOOTH",
"413 344 OFFCURVE",
"323 135 OFFCURVE",
"323 29 CURVE SMOOTH",
"323 20 OFFCURVE",
"324 12 OFFCURVE",
"325 5 CURVE SMOOTH",
"335 -49 OFFCURVE",
"351 -63 OFFCURVE",
"362 -63 CURVE SMOOTH",
"368 -63 OFFCURVE",
"372 -59 OFFCURVE",
"372 -55 CURVE"
);
}
);
width = 753;
}
);
note = T;
unicode = 0054;
},
{
glyphname = U;
lastChange = "2021-04-16 08:59:06 +0000";
layers = (
{
hints = (
{
horizontal = 1;
place = "{-5, 21}";
target = up;
type = BottomGhost;
},
{
horizontal = 1;
place = "{602, -20}";
target = down;
type = TopGhost;
},
{
place = "{34, 86}";
type = Stem;
},
{
place = "{353, 81}";
type = Stem;
}
);
layerId = "5B1D346E-B0E2-499B-AAFE-AE2E263C1006";
paths = (
{
closed = 1;
nodes = (
"425 -72 OFFCURVE",
"431 -73 OFFCURVE",
"437 -73 CURVE SMOOTH",
"447 -73 OFFCURVE",
"452 -68 OFFCURVE",
"452 -59 CURVE SMOOTH",
"452 -52 OFFCURVE",
"450 -44 OFFCURVE",
"446 -34 CURVE SMOOTH",
"438 -12 OFFCURVE",
"434 14 OFFCURVE",
"434 44 CURVE SMOOTH",
"434 193 OFFCURVE",
"524 417 OFFCURVE",
"554 475 CURVE SMOOTH",
"556 479 OFFCURVE",
"557 484 OFFCURVE",
"557 489 CURVE SMOOTH",
"557 497 OFFCURVE",
"554 504 OFFCURVE",
"546 504 CURVE SMOOTH",
"541 504 OFFCURVE",
"533 501 OFFCURVE",
"523 492 CURVE SMOOTH",
"457 436 OFFCURVE",
"220 52 OFFCURVE",
"154 41 CURVE SMOOTH",
"131 37 OFFCURVE",
"120 58 OFFCURVE",
"120 96 CURVE SMOOTH",
"120 193 OFFCURVE",
"191 397 OFFCURVE",
"316 580 CURVE SMOOTH",
"319 585 OFFCURVE",
"321 588 OFFCURVE",
"321 591 CURVE SMOOTH",
"321 599 OFFCURVE",
"312 602 OFFCURVE",
"299 602 CURVE SMOOTH",
"272 602 OFFCURVE",
"227 588 OFFCURVE",
"213 573 CURVE SMOOTH",
"92 449 OFFCURVE",
"34 132 OFFCURVE",
"34 66 CURVE SMOOTH",
"34 6 OFFCURVE",
"77 -5 OFFCURVE",
"85 -5 CURVE",
"118 -10 OFFCURVE",
"174 13 OFFCURVE",
"203 42 CURVE SMOOTH",
"301 139 OFFCURVE",
"378 276 OFFCURVE",
"419 312 CURVE",
"379 219 OFFCURVE",
"351 57 OFFCURVE",
"353 26 CURVE SMOOTH",
"358 -52 OFFCURVE",
"371 -55 OFFCURVE",
"416 -69 CURVE SMOOTH"
);
}
);
width = 549;
}
);
note = U;
unicode = 0055;
},
{
glyphname = V;
lastChange = "2021-04-16 08:59:06 +0000";
layers = (
{
hints = (
{
horizontal = 1;
place = "{-11, 38}";
type = Stem;
},
{
horizontal = 1;
place = "{562, -20}";
target = down;
type = TopGhost;
},
{
horizontal = 1;
place = "{601, 8}";
type = Stem;
},
{
place = "{110, 102}";
type = Stem;
},
{
place = "{733, 82}";
type = Stem;
},
{
horizontal = 1;
place = "{602, -20}";
target = down;
type = TopGhost;
}
);
layerId = "5B1D346E-B0E2-499B-AAFE-AE2E263C1006";
paths = (
{
closed = 1;
nodes = (
"305 -18 OFFCURVE",
"533 146 OFFCURVE",
"661 272 CURVE SMOOTH",
"780 390 OFFCURVE",
"815 477 OFFCURVE",
"815 532 CURVE SMOOTH",
"815 574 OFFCURVE",
"794 598 OFFCURVE",
"777 602 CURVE",
"773 602 OFFCURVE",
"750 609 OFFCURVE",
"731 609 CURVE SMOOTH",
"720 609 OFFCURVE",
"711 607 OFFCURVE",
"705 601 CURVE",
"705 601 OFFCURVE",
"728 566 OFFCURVE",
"733 536 CURVE SMOOTH",
"734 528 OFFCURVE",
"735 519 OFFCURVE",
"735 507 CURVE SMOOTH",
"735 463 OFFCURVE",
"719 390 OFFCURVE",
"629 298 CURVE SMOOTH",
"458 121 OFFCURVE",
"309 20 OFFCURVE",
"236 27 CURVE SMOOTH",
"220 28 OFFCURVE",
"212 55 OFFCURVE",
"212 96 CURVE SMOOTH",
"212 196 OFFCURVE",
"260 377 OFFCURVE",
"365 475 CURVE SMOOTH",
"424 530 OFFCURVE",
"439 543 OFFCURVE",
"441 553 CURVE",
"444 560 OFFCURVE",
"436 562 OFFCURVE",
"421 562 CURVE SMOOTH",
"384 562 OFFCURVE",
"310 546 OFFCURVE",
"292 533 CURVE SMOOTH",
"286 529 OFFCURVE",
"301 541 OFFCURVE",
"301 541 CURVE SMOOTH",
"301 541 OFFCURVE",
"298 539 OFFCURVE",
"291 534 CURVE SMOOTH",
"274 522 OFFCURVE",
"233 474 OFFCURVE",
"224 462 CURVE SMOOTH",
"143 355 OFFCURVE",
"110 238 OFFCURVE",
"110 147 CURVE SMOOTH",
"110 57 OFFCURVE",
"143 -8 OFFCURVE",
"194 -11 CURVE SMOOTH"
);
}
);
width = 792;
}
);
note = V;
unicode = 0056;
},
{
glyphname = W;
lastChange = "2021-04-16 08:59:06 +0000";
layers = (
{
hints = (
{
horizontal = 1;
place = "{487, 89}";
type = Stem;
},
{
place = "{208, 79}";
type = Stem;
},
{
place = "{672, 75}";
type = Stem;
},
{
horizontal = 1;
place = "{367, 110}";
type = Stem;
},
{
horizontal = 1;
place = "{517, 100}";
type = Stem;
}
);
layerId = "5B1D346E-B0E2-499B-AAFE-AE2E263C1006";
paths = (
{
closed = 1;
nodes = (
"207 -26 OFFCURVE",
"230 -28 OFFCURVE",
"249 -4 CURVE SMOOTH",
"317 83 OFFCURVE",
"442 236 OFFCURVE",
"508 300 CURVE SMOOTH",
"550 342 OFFCURVE",
"589 368 OFFCURVE",
"613 368 CURVE SMOOTH",
"624 368 OFFCURVE",
"631 363 OFFCURVE",
"635 352 CURVE SMOOTH",
"653 298 OFFCURVE",
"672 205 OFFCURVE",
"672 120 CURVE SMOOTH",
"672 79 OFFCURVE",
"668 40 OFFCURVE",
"656 9 CURVE SMOOTH",
"654 5 OFFCURVE",
"654 0 OFFCURVE",
"654 -4 CURVE SMOOTH",
"654 -28 OFFCURVE",
"675 -49 OFFCURVE",
"703 -49 CURVE SMOOTH",
"726 -49 OFFCURVE",
"754 -33 OFFCURVE",
"776 10 CURVE SMOOTH",
"807 70 OFFCURVE",
"1050 514 OFFCURVE",
"1193 552 CURVE SMOOTH",
"1222 560 OFFCURVE",
"1243 502 OFFCURVE",
"1257 520 CURVE SMOOTH",
"1268 534 OFFCURVE",
"1273 548 OFFCURVE",
"1273 560 CURVE SMOOTH",
"1273 593 OFFCURVE",
"1242 617 OFFCURVE",
"1215 617 CURVE SMOOTH",
"1080 617 OFFCURVE",
"729 34 OFFCURVE",
"729 35 CURVE",
"739 64 OFFCURVE",
"747 116 OFFCURVE",
"747 187 CURVE SMOOTH",
"747 251 OFFCURVE",
"740 331 OFFCURVE",
"721 422 CURVE SMOOTH",
"712 461 OFFCURVE",
"695 477 OFFCURVE",
"672 477 CURVE SMOOTH",
"630 477 OFFCURVE",
"571 426 OFFCURVE",
"520 372 CURVE SMOOTH",
"393 236 OFFCURVE",
"322 111 OFFCURVE",
"239 55 CURVE",
"239 55 OFFCURVE",
"287 252 OFFCURVE",
"287 403 CURVE SMOOTH",
"287 486 OFFCURVE",
"272 555 OFFCURVE",
"226 568 CURVE SMOOTH",
"206 574 OFFCURVE",
"188 576 OFFCURVE",
"172 576 CURVE SMOOTH",
"79 576 OFFCURVE",
"62 489 OFFCURVE",
"59 410 CURVE",
"58 409 OFFCURVE",
"67 401 OFFCURVE",
"75 401 CURVE SMOOTH",
"79 401 OFFCURVE",
"83 403 OFFCURVE",
"84 410 CURVE SMOOTH",
"91 451 OFFCURVE",
"118 487 OFFCURVE",
"143 487 CURVE SMOOTH",
"152 487 OFFCURVE",
"161 483 OFFCURVE",
"169 473 CURVE SMOOTH",
"198 438 OFFCURVE",
"208 376 OFFCURVE",
"208 309 CURVE SMOOTH",
"208 186 OFFCURVE",
"175 47 OFFCURVE",
"172 31 CURVE",
"164 8 OFFCURVE",
"158 -8 OFFCURVE",
"158 -18 CURVE SMOOTH",
"158 -27 OFFCURVE",
"164 -31 OFFCURVE",
"180 -29 CURVE SMOOTH"
);
}
);
width = 1039;
}
);
note = W;
unicode = 0057;
},
{
glyphname = X;
lastChange = "2021-04-16 08:59:06 +0000";
layers = (
{
hints = (
{
horizontal = 1;
place = "{-41, 50}";
type = Stem;
},
{
horizontal = 1;
place = "{319, -20}";
target = down;
type = TopGhost;
},
{
horizontal = 1;
place = "{472, 91}";
type = Stem;
},
{
horizontal = 1;
place = "{606, -20}";
target = down;
type = TopGhost;
},
{
place = "{-25, 914}";
type = Stem;
}
);
layerId = "5B1D346E-B0E2-499B-AAFE-AE2E263C1006";
paths = (
{
closed = 1;
nodes = (
"-23 -117 OFFCURVE",
"-25 -123 OFFCURVE",
"-25 -127 CURVE SMOOTH",
"-25 -133 OFFCURVE",
"-20 -136 OFFCURVE",
"-13 -136 CURVE SMOOTH",
"4 -136 OFFCURVE",
"35 -121 OFFCURVE",
"56 -92 CURVE SMOOTH",
"136 20 OFFCURVE",
"272 137 OFFCURVE",
"412 242 CURVE",
"437 143 OFFCURVE",
"454 43 OFFCURVE",
"473 10 CURVE SMOOTH",
"494 -26 OFFCURVE",
"532 -41 OFFCURVE",
"575 -41 CURVE SMOOTH",
"665 -41 OFFCURVE",
"776 23 OFFCURVE",
"798 85 CURVE SMOOTH",
"801 93 OFFCURVE",
"802 98 OFFCURVE",
"802 102 CURVE SMOOTH",
"802 107 OFFCURVE",
"800 109 OFFCURVE",
"798 109 CURVE SMOOTH",
"793 109 OFFCURVE",
"785 102 OFFCURVE",
"779 94 CURVE",
"746 58 OFFCURVE",
"703 9 OFFCURVE",
"658 9 CURVE SMOOTH",
"635 9 OFFCURVE",
"612 22 OFFCURVE",
"590 56 CURVE SMOOTH",
"561 102 OFFCURVE",
"515 198 OFFCURVE",
"475 289 CURVE",
"647 413 OFFCURVE",
"811 514 OFFCURVE",
"866 563 CURVE SMOOTH",
"882 578 OFFCURVE",
"889 589 OFFCURVE",
"889 596 CURVE SMOOTH",
"889 603 OFFCURVE",
"883 606 OFFCURVE",
"873 606 CURVE SMOOTH",
"855 606 OFFCURVE",
"826 595 OFFCURVE",
"801 572 CURVE SMOOTH",
"734 511 OFFCURVE",
"604 423 OFFCURVE",
"462 319 CURVE",
"434 382 OFFCURVE",
"411 439 OFFCURVE",
"399 469 CURVE SMOOTH",
"373 538 OFFCURVE",
"334 563 OFFCURVE",
"291 563 CURVE SMOOTH",
"196 563 OFFCURVE",
"83 442 OFFCURVE",
"45 392 CURVE SMOOTH",
"43 389 OFFCURVE",
"42 386 OFFCURVE",
"42 384 CURVE SMOOTH",
"42 378 OFFCURVE",
"49 376 OFFCURVE",
"57 376 CURVE SMOOTH",
"63 376 OFFCURVE",
"70 377 OFFCURVE",
"72 379 CURVE",
"119 435 OFFCURVE",
"185 473 OFFCURVE",
"247 473 CURVE SMOOTH",
"262 473 OFFCURVE",
"277 471 OFFCURVE",
"291 466 CURVE SMOOTH",
"343 449 OFFCURVE",
"377 366 OFFCURVE",
"403 275 CURVE",
"247 159 OFFCURVE",
"86 27 OFFCURVE",
"-17 -110 CURVE SMOOTH"
);
}
);
width = 794;
}
);
note = X;
unicode = 0058;
},
{
glyphname = Y;
lastChange = "2021-04-16 08:59:06 +0000";
layers = (
{
hints = (
{
horizontal = 1;
place = "{113, 32}";
type = Stem;
},
{
place = "{38, 530}";
type = Stem;
}
);
layerId = "5B1D346E-B0E2-499B-AAFE-AE2E263C1006";
paths = (
{
closed = 1;
nodes = (
"296 -24 OFFCURVE",
"491 266 OFFCURVE",
"567 484 CURVE SMOOTH",
"578 516 OFFCURVE",
"498 547 OFFCURVE",
"467 547 CURVE SMOOTH",
"460 547 OFFCURVE",
"455 545 OFFCURVE",
"455 541 CURVE",
"409 396 OFFCURVE",
"380 294 OFFCURVE",
"314 152 CURVE",
"307 147 OFFCURVE",
"300 145 OFFCURVE",
"294 145 CURVE SMOOTH",
"285 145 OFFCURVE",
"278 148 OFFCURVE",
"274 152 CURVE SMOOTH",
"205 221 OFFCURVE",
"132 321 OFFCURVE",
"108 434 CURVE SMOOTH",
"101 465 OFFCURVE",
"85 479 OFFCURVE",
"70 479 CURVE SMOOTH",
"53 479 OFFCURVE",
"38 463 OFFCURVE",
"38 434 CURVE SMOOTH",
"38 428 OFFCURVE",
"39 422 OFFCURVE",
"40 416 CURVE SMOOTH",
"41 409 OFFCURVE",
"114 212 OFFCURVE",
"254 117 CURVE SMOOTH",
"257 115 OFFCURVE",
"262 113 OFFCURVE",
"267 113 CURVE SMOOTH",
"275 113 OFFCURVE",
"285 116 OFFCURVE",
"297 125 CURVE",
"258 65 OFFCURVE",
"177 -72 OFFCURVE",
"139 -147 CURVE SMOOTH",
"132 -160 OFFCURVE",
"128 -176 OFFCURVE",
"128 -185 CURVE SMOOTH",
"128 -191 OFFCURVE",
"129 -195 OFFCURVE",
"133 -195 CURVE SMOOTH",
"138 -195 OFFCURVE",
"145 -191 OFFCURVE",
"155 -179 CURVE SMOOTH"
);
}
);
width = 537;
}
);
note = Y;
unicode = 0059;
},
{
glyphname = Z;
lastChange = "2021-04-16 08:59:06 +0000";
layers = (
{
hints = (
{
horizontal = 1;
place = "{9, 60}";
type = Stem;
},
{
horizontal = 1;
place = "{484, 51}";
type = Stem;
},
{
place = "{-7, 26}";
type = Stem;
},
{
horizontal = 1;
place = "{-1, 21}";
target = up;
type = BottomGhost;
}
);
layerId = "5B1D346E-B0E2-499B-AAFE-AE2E263C1006";
paths = (
{
closed = 1;
nodes = (
"494 -68 OFFCURVE",
"517 -34 OFFCURVE",
"517 1 CURVE SMOOTH",
"517 29 OFFCURVE",
"503 58 OFFCURVE",
"458 66 CURVE SMOOTH",
"445 68 OFFCURVE",
"430 69 OFFCURVE",
"413 69 CURVE SMOOTH",
"272 69 OFFCURVE",
"18 -2 OFFCURVE",
"19 -1 CURVE SMOOTH",
"124 100 OFFCURVE",
"599 388 OFFCURVE",
"599 489 CURVE SMOOTH",
"599 493 OFFCURVE",
"598 497 OFFCURVE",
"596 501 CURVE SMOOTH",
"587 517 OFFCURVE",
"514 535 OFFCURVE",
"416 535 CURVE SMOOTH",
"342 535 OFFCURVE",
"253 525 OFFCURVE",
"167 496 CURVE SMOOTH",
"138 486 OFFCURVE",
"102 445 OFFCURVE",
"102 428 CURVE SMOOTH",
"102 424 OFFCURVE",
"105 421 OFFCURVE",
"111 421 CURVE SMOOTH",
"116 421 OFFCURVE",
"123 423 OFFCURVE",
"134 428 CURVE SMOOTH",
"210 462 OFFCURVE",
"316 484 OFFCURVE",
"410 484 CURVE SMOOTH",
"435 484 OFFCURVE",
"459 482 OFFCURVE",
"481 479 CURVE SMOOTH",
"521 473 OFFCURVE",
"10 107 OFFCURVE",
"1 27 CURVE",
"1 27 OFFCURVE",
"-7 1 OFFCURVE",
"-7 -18 CURVE SMOOTH",
"-7 -28 OFFCURVE",
"-5 -36 OFFCURVE",
"1 -38 CURVE SMOOTH",
"3 -39 OFFCURVE",
"10 -40 OFFCURVE",
"18 -40 CURVE SMOOTH",
"40 -40 OFFCURVE",
"73 -36 OFFCURVE",
"70 -27 CURVE",
"64 -21 OFFCURVE",
"307 9 OFFCURVE",
"374 9 CURVE SMOOTH",
"459 9 OFFCURVE",
"460 -14 OFFCURVE",
"486 -55 CURVE SMOOTH"
);
}
);
width = 540;
}
);
note = Z;
unicode = 005A;
},
{
glyphname = a;
lastChange = "2021-04-16 08:59:06 +0000";
layers = (
{
hints = (
{
horizontal = 1;
place = "{-1, 52}";
type = Stem;
},
{
place = "{11, 98}";
type = Stem;
},
{
place = "{431, 30}";
type = Stem;
}
);
layerId = "5B1D346E-B0E2-499B-AAFE-AE2E263C1006";
paths = (
{
closed = 1;
nodes = (
"419 -11 OFFCURVE",
"422 -16 OFFCURVE",
"428 -16 CURVE SMOOTH",
"439 -16 OFFCURVE",
"459 2 OFFCURVE",
"461 7 CURVE SMOOTH",
"477 56 OFFCURVE",
"466 40 OFFCURVE",
"476 90 CURVE",
"477 90 LINE",
"488 141 OFFCURVE",
"510 163 OFFCURVE",
"510 190 CURVE SMOOTH",
"511 198 OFFCURVE",
"477 209 OFFCURVE",
"456 209 CURVE SMOOTH",
"452 209 OFFCURVE",
"448 209 OFFCURVE",
"445 208 CURVE SMOOTH",
"413 198 OFFCURVE",
"390 163 OFFCURVE",
"267 97 CURVE SMOOTH",
"227 76 OFFCURVE",
"179 50 OFFCURVE",
"146 50 CURVE SMOOTH",
"131 50 OFFCURVE",
"119 56 OFFCURVE",
"112 69 CURVE SMOOTH",
"110 73 OFFCURVE",
"109 78 OFFCURVE",
"109 83 CURVE SMOOTH",
"109 125 OFFCURVE",
"175 197 OFFCURVE",
"268 249 CURVE SMOOTH",
"307 271 OFFCURVE",
"337 277 OFFCURVE",
"360 277 CURVE SMOOTH",
"398 277 OFFCURVE",
"418 259 OFFCURVE",
"431 257 CURVE SMOOTH",
"448 255 OFFCURVE",
"450 264 OFFCURVE",
"458 271 CURVE",
"460 275 OFFCURVE",
"462 282 OFFCURVE",
"462 290 CURVE SMOOTH",
"462 312 OFFCURVE",
"447 343 OFFCURVE",
"378 352 CURVE SMOOTH",
"366 354 OFFCURVE",
"354 355 OFFCURVE",
"342 355 CURVE SMOOTH",
"278 355 OFFCURVE",
"224 329 OFFCURVE",
"175 288 CURVE SMOOTH",
"64 192 OFFCURVE",
"18 101 OFFCURVE",
"11 39 CURVE",
"5 12 OFFCURVE",
"42 -1 OFFCURVE",
"76 -1 CURVE SMOOTH",
"91 -1 OFFCURVE",
"105 1 OFFCURVE",
"115 6 CURVE SMOOTH",
"185 38 OFFCURVE",
"336 103 OFFCURVE",
"414 159 CURVE SMOOTH",
"426 168 OFFCURVE",
"431 147 OFFCURVE",
"431 113 CURVE SMOOTH",
"431 83 OFFCURVE",
"427 41 OFFCURVE",
"421 3 CURVE SMOOTH"
);
}
);
width = 517;
}
);
note = a;
unicode = 0061;
},
{
glyphname = ae;
lastChange = "2021-04-16 08:59:06 +0000";
layers = (
{
hints = (
{
horizontal = 1;
place = "{-23, 19}";
type = Stem;
},
{
horizontal = 1;
place = "{278, 77}";
type = Stem;
},
{
place = "{760, 49}";
type = Stem;
}
);
layerId = "5B1D346E-B0E2-499B-AAFE-AE2E263C1006";
paths = (
{
closed = 1;
nodes = (
"485 -15 OFFCURVE",
"519 -23 OFFCURVE",
"555 -23 CURVE SMOOTH",
"601 -23 OFFCURVE",
"650 -10 OFFCURVE",
"694 11 CURVE SMOOTH",
"727 27 OFFCURVE",
"739 40 OFFCURVE",
"739 47 CURVE SMOOTH",
"739 51 OFFCURVE",
"735 53 OFFCURVE",
"731 54 CURVE",
"728 55 OFFCURVE",
"724 55 OFFCURVE",
"721 55 CURVE SMOOTH",
"708 55 OFFCURVE",
"696 47 OFFCURVE",
"670 31 CURVE SMOOTH",
"661 25 OFFCURVE",
"612 -4 OFFCURVE",
"569 -4 CURVE SMOOTH",
"551 -4 OFFCURVE",
"534 1 OFFCURVE",
"521 16 CURVE SMOOTH",
"502 38 OFFCURVE",
"494 65 OFFCURVE",
"494 92 CURVE SMOOTH",
"494 108 OFFCURVE",
"497 124 OFFCURVE",
"501 139 CURVE",
"511 137 OFFCURVE",
"525 136 OFFCURVE",
"542 136 CURVE SMOOTH",
"610 136 OFFCURVE",
"720 152 OFFCURVE",
"787 174 CURVE SMOOTH",
"803 180 OFFCURVE",
"809 187 OFFCURVE",
"809 196 CURVE SMOOTH",
"809 221 OFFCURVE",
"757 256 OFFCURVE",
"702 279 CURVE SMOOTH",
"646 302 OFFCURVE",
"616 328 OFFCURVE",
"605 328 CURVE SMOOTH",
"566 330 OFFCURVE",
"536 324 OFFCURVE",
"517 312 CURVE SMOOTH",
"465 280 OFFCURVE",
"436 249 OFFCURVE",
"409 201 CURVE SMOOTH",
"405 195 OFFCURVE",
"402 188 OFFCURVE",
"399 180 CURVE",
"374 161 OFFCURVE",
"336 134 OFFCURVE",
"267 97 CURVE SMOOTH",
"227 76 OFFCURVE",
"179 50 OFFCURVE",
"146 50 CURVE SMOOTH",
"131 50 OFFCURVE",
"119 56 OFFCURVE",
"112 69 CURVE SMOOTH",
"110 73 OFFCURVE",
"109 78 OFFCURVE",
"109 83 CURVE SMOOTH",
"109 125 OFFCURVE",
"175 197 OFFCURVE",
"268 249 CURVE SMOOTH",
"307 271 OFFCURVE",
"337 277 OFFCURVE",
"360 277 CURVE SMOOTH",
"398 277 OFFCURVE",
"418 259 OFFCURVE",
"431 257 CURVE SMOOTH",
"448 255 OFFCURVE",
"450 264 OFFCURVE",
"458 271 CURVE",
"460 275 OFFCURVE",
"462 282 OFFCURVE",
"462 290 CURVE SMOOTH",
"462 312 OFFCURVE",
"447 343 OFFCURVE",
"378 352 CURVE SMOOTH",
"366 354 OFFCURVE",
"354 355 OFFCURVE",
"342 355 CURVE SMOOTH",
"278 355 OFFCURVE",
"224 329 OFFCURVE",
"175 288 CURVE SMOOTH",
"64 192 OFFCURVE",
"18 101 OFFCURVE",
"11 39 CURVE",
"5 12 OFFCURVE",
"42 -1 OFFCURVE",
"76 -1 CURVE SMOOTH",
"91 -1 OFFCURVE",
"105 1 OFFCURVE",
"115 6 CURVE SMOOTH",
"179 35 OFFCURVE",
"310 92 OFFCURVE",
"392 144 CURVE",
"391 132 OFFCURVE",
"391 122 OFFCURVE",
"391 114 CURVE SMOOTH",
"391 83 OFFCURVE",
"397 73 OFFCURVE",
"406 21 CURVE SMOOTH",
"409 1 OFFCURVE",
"423 -6 OFFCURVE",
"435 -6 CURVE SMOOTH",
"445 -6 OFFCURVE",
"454 -2 OFFCURVE",
"458 3 CURVE"
);
},
{
closed = 1;
nodes = (
"518 182 OFFCURVE",
"523 191 OFFCURVE",
"528 198 CURVE SMOOTH",
"574 261 OFFCURVE",
"634 263 OFFCURVE",
"654 263 CURVE SMOOTH",
"679 262 OFFCURVE",
"760 226 OFFCURVE",
"760 202 CURVE SMOOTH",
"760 195 OFFCURVE",
"752 189 OFFCURVE",
"732 185 CURVE SMOOTH",
"665 173 OFFCURVE",
"606 169 OFFCURVE",
"564 169 CURVE SMOOTH",
"542 169 OFFCURVE",
"524 170 OFFCURVE",
"513 172 CURVE"
);
}
);
width = 789;
}
);
note = ae;
unicode = 00E6;
},
{
glyphname = b;
lastChange = "2021-04-16 08:59:06 +0000";
layers = (
{
hints = (
{
horizontal = 1;
place = "{-13, 34}";
type = Stem;
},
{
horizontal = 1;
place = "{282, 242}";
type = Stem;
},
{
place = "{33, 61}";
type = Stem;
},
{
place = "{402, 123}";
type = Stem;
}
);
layerId = "5B1D346E-B0E2-499B-AAFE-AE2E263C1006";
paths = (
{
closed = 1;
nodes = (
"56 -47 OFFCURVE",
"66 29 OFFCURVE",
"80 23 CURVE SMOOTH",
"105 14 OFFCURVE",
"89 -13 OFFCURVE",
"130 -13 CURVE SMOOTH",
"218 -13 OFFCURVE",
"329 30 OFFCURVE",
"392 68 CURVE SMOOTH",
"487 124 OFFCURVE",
"525 175 OFFCURVE",
"525 215 CURVE SMOOTH",
"525 279 OFFCURVE",
"433 318 OFFCURVE",
"328 318 CURVE SMOOTH",
"315 318 OFFCURVE",
"302 317 OFFCURVE",
"289 316 CURVE",
"289 317 LINE",
"193 309 OFFCURVE",
"137 247 OFFCURVE",
"136 247 CURVE",
"147 293 OFFCURVE",
"182 441 OFFCURVE",
"214 497 CURVE SMOOTH",
"218 504 OFFCURVE",
"220 510 OFFCURVE",
"220 514 CURVE SMOOTH",
"220 521 OFFCURVE",
"216 524 OFFCURVE",
"209 524 CURVE SMOOTH",
"190 524 OFFCURVE",
"154 504 OFFCURVE",
"137 477 CURVE",
"131 472 OFFCURVE",
"85 334 OFFCURVE",
"59 239 CURVE",
"55 230 OFFCURVE",
"13 206 OFFCURVE",
"8 198 CURVE",
"6 190 OFFCURVE",
"46 201 OFFCURVE",
"45 194 CURVE SMOOTH",
"39 145 OFFCURVE",
"33 89 OFFCURVE",
"33 45 CURVE SMOOTH",
"33 14 OFFCURVE",
"36 -12 OFFCURVE",
"43 -24 CURVE SMOOTH"
);
},
{
closed = 1;
nodes = (
"106 21 OFFCURVE",
"94 56 OFFCURVE",
"94 98 CURVE SMOOTH",
"94 133 OFFCURVE",
"103 173 OFFCURVE",
"114 201 CURVE",
"115 200 LINE",
"125 223 OFFCURVE",
"222 282 OFFCURVE",
"327 282 CURVE SMOOTH",
"340 282 OFFCURVE",
"352 281 OFFCURVE",
"365 279 CURVE SMOOTH",
"390 275 OFFCURVE",
"402 257 OFFCURVE",
"402 233 CURVE SMOOTH",
"402 198 OFFCURVE",
"377 149 OFFCURVE",
"331 110 CURVE SMOOTH",
"273 61 OFFCURVE",
"187 21 OFFCURVE",
"142 21 CURVE SMOOTH"
);
}
);
width = 551;
}
);
note = b;
unicode = 0062;
},
{
glyphname = c;
lastChange = "2021-04-16 08:59:06 +0000";
layers = (
{
hints = (
{
horizontal = 1;
place = "{1, 25}";
type = Stem;
},
{
horizontal = 1;
place = "{316, 50}";
type = Stem;
},
{
place = "{34, 76}";
type = Stem;
}
);
layerId = "5B1D346E-B0E2-499B-AAFE-AE2E263C1006";
paths = (
{
closed = 1;
nodes = (
"307 -5 OFFCURVE",
"424 47 OFFCURVE",
"480 102 CURVE SMOOTH",
"488 109 OFFCURVE",
"492 118 OFFCURVE",
"492 124 CURVE SMOOTH",
"492 128 OFFCURVE",
"490 131 OFFCURVE",
"486 131 CURVE SMOOTH",
"482 131 OFFCURVE",
"476 128 OFFCURVE",
"466 120 CURVE SMOOTH",
"384 53 OFFCURVE",
"321 35 OFFCURVE",
"229 26 CURVE SMOOTH",
"198 23 OFFCURVE",
"136 27 OFFCURVE",
"120 54 CURVE SMOOTH",
"113 65 OFFCURVE",
"110 79 OFFCURVE",
"110 95 CURVE SMOOTH",
"110 135 OFFCURVE",
"131 189 OFFCURVE",
"182 255 CURVE SMOOTH",
"214 297 OFFCURVE",
"256 316 OFFCURVE",
"293 316 CURVE SMOOTH",
"325 316 OFFCURVE",
"353 302 OFFCURVE",
"367 278 CURVE",
"375 268 OFFCURVE",
"350 254 OFFCURVE",
"387 254 CURVE SMOOTH",
"399 254 OFFCURVE",
"403 261 OFFCURVE",
"406 271 CURVE",
"410 294 OFFCURVE",
"371 367 OFFCURVE",
"248 367 CURVE SMOOTH",
"240 367 OFFCURVE",
"232 367 OFFCURVE",
"224 366 CURVE SMOOTH",
"174 362 OFFCURVE",
"120 334 OFFCURVE",
"83 280 CURVE SMOOTH",
"51 232 OFFCURVE",
"33 181 OFFCURVE",
"33 136 CURVE SMOOTH",
"33 100 OFFCURVE",
"44 68 OFFCURVE",
"66 43 CURVE SMOOTH",
"82 26 OFFCURVE",
"143 2 OFFCURVE",
"178 1 CURVE SMOOTH"
);
}
);
width = 456;
}
);
note = c;
unicode = 0063;
},
{
glyphname = d;
lastChange = "2021-04-16 08:59:06 +0000";
layers = (
{
hints = (
{
horizontal = 1;
place = "{-16, 24}";
type = Stem;
},
{
horizontal = 1;
place = "{267, 39}";
type = Stem;
},
{
place = "{27, 82}";
type = Stem;
},
{
place = "{452, 23}";
type = Stem;
}
);
layerId = "5B1D346E-B0E2-499B-AAFE-AE2E263C1006";
paths = (
{
closed = 1;
nodes = (
"117 -14 OFFCURVE",
"132 -16 OFFCURVE",
"152 -16 CURVE SMOOTH",
"215 -16 OFFCURVE",
"334 3 OFFCURVE",
"435 109 CURVE",
"441 114 OFFCURVE",
"438 102 OFFCURVE",
"438 81 CURVE SMOOTH",
"438 62 OFFCURVE",
"441 36 OFFCURVE",
"454 8 CURVE SMOOTH",
"462 -10 OFFCURVE",
"476 -15 OFFCURVE",
"487 -15 CURVE SMOOTH",
"500 -15 OFFCURVE",
"511 -8 OFFCURVE",
"507 -5 CURVE",
"483 17 OFFCURVE",
"474 46 OFFCURVE",
"474 80 CURVE SMOOTH",
"474 191 OFFCURVE",
"572 349 OFFCURVE",
"572 440 CURVE SMOOTH",
"572 448 OFFCURVE",
"572 455 OFFCURVE",
"570 462 CURVE SMOOTH",
"559 510 OFFCURVE",
"527 517 OFFCURVE",
"485 522 CURVE SMOOTH",
"457 525 OFFCURVE",
"449 512 OFFCURVE",
"449 496 CURVE SMOOTH",
"449 487 OFFCURVE",
"451 478 OFFCURVE",
"454 471 CURVE SMOOTH",
"461 455 OFFCURVE",
"463 436 OFFCURVE",
"463 415 CURVE SMOOTH",
"463 368 OFFCURVE",
"451 315 OFFCURVE",
"451 283 CURVE",
"440 299 OFFCURVE",
"409 306 OFFCURVE",
"370 306 CURVE SMOOTH",
"287 306 OFFCURVE",
"168 275 OFFCURVE",
"127 241 CURVE SMOOTH",
"63 188 OFFCURVE",
"27 128 OFFCURVE",
"27 80 CURVE SMOOTH",
"27 38 OFFCURVE",
"53 4 OFFCURVE",
"111 -12 CURVE SMOOTH"
);
},
{
closed = 1;
nodes = (
"115 25 OFFCURVE",
"109 36 OFFCURVE",
"109 50 CURVE SMOOTH",
"109 74 OFFCURVE",
"127 105 OFFCURVE",
"148 134 CURVE",
"147 134 LINE",
"226 242 OFFCURVE",
"332 267 OFFCURVE",
"395 267 CURVE SMOOTH",
"427 267 OFFCURVE",
"448 260 OFFCURVE",
"449 255 CURVE",
"451 248 OFFCURVE",
"452 242 OFFCURVE",
"452 236 CURVE SMOOTH",
"452 216 OFFCURVE",
"443 197 OFFCURVE",
"437 157 CURVE SMOOTH",
"434 132 OFFCURVE",
"289 8 OFFCURVE",
"178 8 CURVE SMOOTH",
"161 8 OFFCURVE",
"144 11 OFFCURVE",
"129 18 CURVE SMOOTH"
);
}
);
width = 563;
}
);
note = d;
unicode = 0064;
},
{
glyphname = eth;
lastChange = "2021-04-16 08:59:06 +0000";
layers = (
{
hints = (
{
horizontal = 1;
place = "{-12, 22}";
type = Stem;
},
{
horizontal = 1;
place = "{278, 46}";
type = Stem;
},
{
horizontal = 1;
place = "{520, 47}";
type = Stem;
},
{
place = "{17, 87}";
type = Stem;
},
{
place = "{434, 54}";
type = Stem;
}
);
layerId = "5B1D346E-B0E2-499B-AAFE-AE2E263C1006";
paths = (
{
closed = 1;
nodes = (
"120 -13 OFFCURVE",
"132 -15 OFFCURVE",
"148 -15 CURVE SMOOTH",
"212 -15 OFFCURVE",
"346 8 OFFCURVE",
"449 162 CURVE SMOOTH",
"474 199 OFFCURVE",
"488 268 OFFCURVE",
"488 341 CURVE SMOOTH",
"488 399 OFFCURVE",
"479 460 OFFCURVE",
"460 511 CURVE",
"484 516 OFFCURVE",
"505 518 OFFCURVE",
"533 520 CURVE SMOOTH",
"571 523 OFFCURVE",
"583 532 OFFCURVE",
"583 541 CURVE SMOOTH",
"583 550 OFFCURVE",
"571 560 OFFCURVE",
"558 563 CURVE SMOOTH",
"547 566 OFFCURVE",
"534 567 OFFCURVE",
"521 567 CURVE SMOOTH",
"495 567 OFFCURVE",
"467 562 OFFCURVE",
"439 554 CURVE",
"421 584 OFFCURVE",
"399 608 OFFCURVE",
"370 621 CURVE SMOOTH",
"362 625 OFFCURVE",
"354 626 OFFCURVE",
"345 626 CURVE SMOOTH",
"336 626 OFFCURVE",
"328 625 OFFCURVE",
"319 621 CURVE SMOOTH",
"310 618 OFFCURVE",
"305 611 OFFCURVE",
"305 603 CURVE SMOOTH",
"305 595 OFFCURVE",
"311 586 OFFCURVE",
"323 580 CURVE SMOOTH",
"337 572 OFFCURVE",
"355 555 OFFCURVE",
"372 531 CURVE",
"335 517 OFFCURVE",
"304 500 OFFCURVE",
"284 490 CURVE SMOOTH",
"260 478 OFFCURVE",
"238 465 OFFCURVE",
"257 465 CURVE SMOOTH",
"268 465 OFFCURVE",
"290 469 OFFCURVE",
"331 479 CURVE SMOOTH",
"394 495 LINE",
"417 453 OFFCURVE",
"434 399 OFFCURVE",
"434 343 CURVE SMOOTH",
"434 324 OFFCURVE",
"432 306 OFFCURVE",
"428 287 CURVE",
"409 309 OFFCURVE",
"363 324 OFFCURVE",
"308 324 CURVE SMOOTH",
"240 324 OFFCURVE",
"157 301 OFFCURVE",
"96 241 CURVE SMOOTH",
"45 191 OFFCURVE",
"17 137 OFFCURVE",
"17 91 CURVE SMOOTH",
"17 42 OFFCURVE",
"48 3 OFFCURVE",
"115 -12 CURVE SMOOTH"
);
},
{
closed = 1;
nodes = (
"111 25 OFFCURVE",
"104 39 OFFCURVE",
"104 56 CURVE SMOOTH",
"104 79 OFFCURVE",
"116 108 OFFCURVE",
"132 135 CURVE",
"131 135 LINE",
"198 252 OFFCURVE",
"307 278 OFFCURVE",
"369 278 CURVE SMOOTH",
"396 278 OFFCURVE",
"414 273 OFFCURVE",
"416 268 CURVE SMOOTH",
"422 254 OFFCURVE",
"427 242 OFFCURVE",
"427 227 CURVE SMOOTH",
"427 211 OFFCURVE",
"421 191 OFFCURVE",
"402 160 CURVE SMOOTH",
"389 139 OFFCURVE",
"280 10 OFFCURVE",
"173 10 CURVE SMOOTH",
"158 10 OFFCURVE",
"144 12 OFFCURVE",
"129 18 CURVE SMOOTH"
);
}
);
width = 563;
}
);
note = eth;
unicode = 00F0;
},
{
glyphname = e;
lastChange = "2021-04-16 08:59:06 +0000";
layers = (
{
hints = (
{
horizontal = 1;
place = "{264, 63}";
type = Stem;
}
);
layerId = "5B1D346E-B0E2-499B-AAFE-AE2E263C1006";
paths = (
{
closed = 1;
nodes = (
"343 27 OFFCURVE",
"355 40 OFFCURVE",
"355 47 CURVE SMOOTH",
"355 51 OFFCURVE",
"351 53 OFFCURVE",
"347 54 CURVE",
"344 55 OFFCURVE",
"340 55 OFFCURVE",
"337 55 CURVE SMOOTH",
"324 55 OFFCURVE",
"312 47 OFFCURVE",
"286 31 CURVE SMOOTH",
"277 25 OFFCURVE",
"228 -4 OFFCURVE",
"185 -4 CURVE SMOOTH",
"167 -4 OFFCURVE",
"150 1 OFFCURVE",
"137 16 CURVE SMOOTH",
"118 38 OFFCURVE",
"111 66 OFFCURVE",
"111 93 CURVE SMOOTH",
"111 109 OFFCURVE",
"113 124 OFFCURVE",
"117 139 CURVE",
"116 139 LINE SMOOTH",
"126 137 OFFCURVE",
"140 136 OFFCURVE",
"157 136 CURVE SMOOTH",
"225 136 OFFCURVE",
"336 152 OFFCURVE",
"403 174 CURVE SMOOTH",
"419 180 OFFCURVE",
"426 187 OFFCURVE",
"426 197 CURVE SMOOTH",
"426 222 OFFCURVE",
"373 257 OFFCURVE",
"318 279 CURVE SMOOTH",
"263 302 OFFCURVE",
"232 328 OFFCURVE",
"221 328 CURVE SMOOTH",
"182 330 OFFCURVE",
"153 324 OFFCURVE",
"133 312 CURVE SMOOTH",
"82 280 OFFCURVE",
"53 249 OFFCURVE",
"25 201 CURVE SMOOTH",
"16 186 OFFCURVE",
"8 162 OFFCURVE",
"8 134 CURVE SMOOTH",
"8 105 OFFCURVE",
"16 71 OFFCURVE",
"40 37 CURVE SMOOTH",
"69 -5 OFFCURVE",
"118 -23 OFFCURVE",
"172 -23 CURVE SMOOTH",
"218 -23 OFFCURVE",
"267 -10 OFFCURVE",
"310 11 CURVE SMOOTH"
);
},
{
closed = 1;
nodes = (
"134 182 OFFCURVE",
"139 191 OFFCURVE",
"144 198 CURVE SMOOTH",
"190 261 OFFCURVE",
"250 263 OFFCURVE",
"270 263 CURVE SMOOTH",
"295 262 OFFCURVE",
"376 226 OFFCURVE",
"376 202 CURVE SMOOTH",
"376 195 OFFCURVE",
"368 189 OFFCURVE",
"348 185 CURVE SMOOTH",
"281 173 OFFCURVE",
"222 169 OFFCURVE",
"180 169 CURVE SMOOTH",
"158 169 OFFCURVE",
"140 170 OFFCURVE",
"129 172 CURVE"
);
}
);
width = 413;
}
);
note = e;
unicode = 0065;
},
{
glyphname = f;
lastChange = "2021-04-16 08:59:06 +0000";
layers = (
{
hints = (
{
horizontal = 1;
place = "{297, 16}";
type = Stem;
}
);
layerId = "5B1D346E-B0E2-499B-AAFE-AE2E263C1006";
paths = (
{
closed = 1;
nodes = (
"113 -18 OFFCURVE",
"104 0 OFFCURVE",
"104 45 CURVE SMOOTH",
"104 89 OFFCURVE",
"112 158 OFFCURVE",
"152 259 CURVE",
"153 264 OFFCURVE",
"219 295 OFFCURVE",
"313 297 CURVE SMOOTH",
"337 298 OFFCURVE",
"354 305 OFFCURVE",
"354 309 CURVE SMOOTH",
"354 311 OFFCURVE",
"351 313 OFFCURVE",
"345 313 CURVE SMOOTH",
"326 314 OFFCURVE",
"308 315 OFFCURVE",
"291 315 CURVE SMOOTH",
"220 315 OFFCURVE",
"166 307 OFFCURVE",
"168 309 CURVE SMOOTH",
"198 367 OFFCURVE",
"240 409 OFFCURVE",
"266 432 CURVE SMOOTH",
"298 460 OFFCURVE",
"324 470 OFFCURVE",
"344 470 CURVE SMOOTH",
"370 470 OFFCURVE",
"386 454 OFFCURVE",
"393 440 CURVE",
"396 436 OFFCURVE",
"400 434 OFFCURVE",
"404 434 CURVE SMOOTH",
"412 434 OFFCURVE",
"421 443 OFFCURVE",
"421 456 CURVE SMOOTH",
"421 480 OFFCURVE",
"358 546 OFFCURVE",
"303 542 CURVE SMOOTH",
"251 538 OFFCURVE",
"198 521 OFFCURVE",
"153 456 CURVE SMOOTH",
"94 370 OFFCURVE",
"96 334 OFFCURVE",
"80 307 CURVE",
"77 305 OFFCURVE",
"56 302 OFFCURVE",
"49 301 CURVE SMOOTH",
"33 297 OFFCURVE",
"12 293 OFFCURVE",
"12 284 CURVE SMOOTH",
"12 280 OFFCURVE",
"16 275 OFFCURVE",
"29 269 CURVE",
"34 264 OFFCURVE",
"77 271 OFFCURVE",
"72 255 CURVE SMOOTH",
"65 233 OFFCURVE",
"49 167 OFFCURVE",
"49 105 CURVE SMOOTH",
"49 50 OFFCURVE",
"61 -1 OFFCURVE",
"103 -15 CURVE SMOOTH"
);
}
);
width = 311;
}
);
note = f;
unicode = 0066;
},
{
glyphname = g;
lastChange = "2021-04-16 08:59:06 +0000";
layers = (
{
hints = (
{
place = "{401, 101}";
type = Stem;
}
);
layerId = "5B1D346E-B0E2-499B-AAFE-AE2E263C1006";
paths = (
{
closed = 1;
nodes = (
"372 -176 OFFCURVE",
"504 61 OFFCURVE",
"504 274 CURVE SMOOTH",
"504 287 OFFCURVE",
"503 300 OFFCURVE",
"502 313 CURVE SMOOTH",
"500 339 OFFCURVE",
"455 370 OFFCURVE",
"410 370 CURVE SMOOTH",
"406 370 OFFCURVE",
"395 357 OFFCURVE",
"397 335 CURVE",
"384 342 OFFCURVE",
"367 353 OFFCURVE",
"343 353 CURVE",
"331 354 OFFCURVE",
"319 355 OFFCURVE",
"308 355 CURVE SMOOTH",
"241 355 OFFCURVE",
"188 331 OFFCURVE",
"138 288 CURVE SMOOTH",
"26 193 OFFCURVE",
"-19 101 OFFCURVE",
"-28 39 CURVE SMOOTH",
"-32 12 OFFCURVE",
"6 -1 OFFCURVE",
"40 -1 CURVE SMOOTH",
"55 -1 OFFCURVE",
"69 1 OFFCURVE",
"79 6 CURVE SMOOTH",
"150 38 OFFCURVE",
"301 94 OFFCURVE",
"377 149 CURVE SMOOTH",
"383 153 OFFCURVE",
"390 159 OFFCURVE",
"393 165 CURVE",
"395 135 OFFCURVE",
"401 115 OFFCURVE",
"401 115 CURVE",
"403 56 OFFCURVE",
"389 -126 OFFCURVE",
"257 -157 CURVE SMOOTH",
"239 -161 OFFCURVE",
"224 -163 OFFCURVE",
"210 -163 CURVE SMOOTH",
"109 -163 OFFCURVE",
"110 -67 OFFCURVE",
"97 -74 CURVE SMOOTH",
"76 -86 OFFCURVE",
"66 -102 OFFCURVE",
"66 -120 CURVE SMOOTH",
"66 -164 OFFCURVE",
"124 -215 OFFCURVE",
"207 -215 CURVE SMOOTH",
"228 -215 OFFCURVE",
"250 -212 OFFCURVE",
"273 -205 CURVE SMOOTH"
);
},
{
closed = 1;
nodes = (
"73 74 OFFCURVE",
"72 79 OFFCURVE",
"72 84 CURVE SMOOTH",
"72 124 OFFCURVE",
"139 195 OFFCURVE",
"232 248 CURVE SMOOTH",
"283 277 OFFCURVE",
"321 289 OFFCURVE",
"347 289 CURVE SMOOTH",
"374 289 OFFCURVE",
"388 277 OFFCURVE",
"392 257 CURVE",
"395 247 OFFCURVE",
"397 238 OFFCURVE",
"397 229 CURVE SMOOTH",
"397 221 OFFCURVE",
"395 212 OFFCURVE",
"392 202 CURVE",
"389 186 OFFCURVE",
"336 152 OFFCURVE",
"231 96 CURVE SMOOTH",
"192 76 OFFCURVE",
"144 51 OFFCURVE",
"110 51 CURVE SMOOTH",
"94 51 OFFCURVE",
"82 56 OFFCURVE",
"75 70 CURVE SMOOTH"
);
}
);
width = 563;
}
);
note = g;
unicode = 0067;
},
{
glyphname = h;
lastChange = "2021-04-16 08:59:06 +0000";
layers = (
{
hints = (
{
place = "{31, 119}";
type = Stem;
}
);
layerId = "5B1D346E-B0E2-499B-AAFE-AE2E263C1006";
paths = (
{
closed = 1;
nodes = (
"150 115 OFFCURVE",
"290 227 OFFCURVE",
"358 242 CURVE SMOOTH",
"365 244 OFFCURVE",
"371 244 OFFCURVE",
"377 244 CURVE SMOOTH",
"416 244 OFFCURVE",
"428 211 OFFCURVE",
"433 181 CURVE SMOOTH",
"434 173 OFFCURVE",
"435 165 OFFCURVE",
"435 156 CURVE SMOOTH",
"435 125 OFFCURVE",
"426 86 OFFCURVE",
"407 26 CURVE SMOOTH",
"406 23 OFFCURVE",
"405 20 OFFCURVE",
"405 18 CURVE SMOOTH",
"405 12 OFFCURVE",
"409 9 OFFCURVE",
"414 9 CURVE SMOOTH",
"425 9 OFFCURVE",
"443 21 OFFCURVE",
"450 39 CURVE SMOOTH",
"464 73 OFFCURVE",
"489 129 OFFCURVE",
"495 162 CURVE SMOOTH",
"496 169 OFFCURVE",
"497 175 OFFCURVE",
"497 181 CURVE SMOOTH",
"497 247 OFFCURVE",
"436 266 OFFCURVE",
"383 266 CURVE SMOOTH",
"364 266 OFFCURVE",
"345 263 OFFCURVE",
"331 259 CURVE SMOOTH",
"270 242 OFFCURVE",
"206 186 OFFCURVE",
"170 154 CURVE SMOOTH",
"167 152 OFFCURVE",
"150 128 OFFCURVE",
"150 129 CURVE",
"149 132 OFFCURVE",
"149 136 OFFCURVE",
"149 142 CURVE SMOOTH",
"149 187 OFFCURVE",
"177 316 OFFCURVE",
"286 453 CURVE SMOOTH",
"310 484 OFFCURVE",
"314 499 OFFCURVE",
"314 509 CURVE SMOOTH",
"314 516 OFFCURVE",
"312 519 OFFCURVE",
"313 523 CURVE",
"314 532 OFFCURVE",
"299 536 OFFCURVE",
"278 536 CURVE SMOOTH",
"241 536 OFFCURVE",
"185 521 OFFCURVE",
"165 487 CURVE SMOOTH",
"101 378 OFFCURVE",
"31 180 OFFCURVE",
"31 57 CURVE SMOOTH",
"31 21 OFFCURVE",
"62 -4 OFFCURVE",
"84 -4 CURVE SMOOTH",
"92 -4 OFFCURVE",
"99 0 OFFCURVE",
"103 8 CURVE SMOOTH"
);
}
);
width = 512;
}
);
note = h;
unicode = 0068;
},
{
glyphname = i;
lastChange = "2021-04-16 08:59:06 +0000";
layers = (
{
hints = (
{
horizontal = 1;
place = "{367, 60}";
type = Stem;
},
{
place = "{53, 136}";
type = Stem;
}
);
layerId = "5B1D346E-B0E2-499B-AAFE-AE2E263C1006";
paths = (
{
closed = 1;
nodes = (
"109 27 OFFCURVE",
"121 10 OFFCURVE",
"129 10 CURVE SMOOTH",
"136 10 OFFCURVE",
"140 21 OFFCURVE",
"140 52 CURVE SMOOTH",
"140 59 OFFCURVE",
"139 66 OFFCURVE",
"139 75 CURVE SMOOTH",
"134 167 OFFCURVE",
"166 206 OFFCURVE",
"185 254 CURVE SMOOTH",
"188 262 OFFCURVE",
"189 268 OFFCURVE",
"189 274 CURVE SMOOTH",
"189 296 OFFCURVE",
"168 304 OFFCURVE",
"146 304 CURVE SMOOTH",
"129 304 OFFCURVE",
"112 299 OFFCURVE",
"104 293 CURVE SMOOTH",
"68 266 OFFCURVE",
"53 229 OFFCURVE",
"53 188 CURVE SMOOTH",
"53 142 OFFCURVE",
"72 92 OFFCURVE",
"99 45 CURVE SMOOTH"
);
},
{
closed = 1;
nodes = (
"161 367 OFFCURVE",
"175 371 OFFCURVE",
"190 377 CURVE",
"207 379 OFFCURVE",
"241 382 OFFCURVE",
"234 393 CURVE SMOOTH",
"223 412 OFFCURVE",
"215 427 OFFCURVE",
"184 427 CURVE SMOOTH",
"167 427 OFFCURVE",
"142 422 OFFCURVE",
"106 411 CURVE SMOOTH",
"102 410 OFFCURVE",
"100 408 OFFCURVE",
"100 405 CURVE SMOOTH",
"100 397 OFFCURVE",
"115 384 OFFCURVE",
"120 378 CURVE SMOOTH",
"128 371 OFFCURVE",
"131 367 OFFCURVE",
"147 367 CURVE SMOOTH"
);
}
);
width = 250;
}
);
note = i;
unicode = 0069;
},
{
glyphname = idotless;
lastChange = "2021-04-16 08:59:06 +0000";
layers = (
{
hints = (
{
horizontal = 1;
place = "{222, 20}";
type = Stem;
},
{
horizontal = 1;
place = "{351, 16}";
type = Stem;
},
{
horizontal = 1;
place = "{558, 17}";
type = Stem;
}
);
layerId = "5B1D346E-B0E2-499B-AAFE-AE2E263C1006";
paths = (
{
closed = 1;
nodes = (
"109 27 OFFCURVE",
"121 10 OFFCURVE",
"129 10 CURVE SMOOTH",
"136 10 OFFCURVE",
"140 21 OFFCURVE",
"140 52 CURVE SMOOTH",
"140 59 OFFCURVE",
"139 66 OFFCURVE",
"139 75 CURVE SMOOTH",
"134 167 OFFCURVE",
"166 206 OFFCURVE",
"185 254 CURVE SMOOTH",
"188 262 OFFCURVE",
"189 268 OFFCURVE",
"189 274 CURVE SMOOTH",
"189 296 OFFCURVE",
"168 304 OFFCURVE",
"146 304 CURVE SMOOTH",
"129 304 OFFCURVE",
"112 299 OFFCURVE",
"104 293 CURVE SMOOTH",
"68 266 OFFCURVE",
"53 229 OFFCURVE",
"53 188 CURVE SMOOTH",
"53 142 OFFCURVE",
"72 92 OFFCURVE",
"99 45 CURVE SMOOTH"
);
}
);
width = 250;
}
);
note = dotlessi;
unicode = 0131;
},
{
glyphname = j;
lastChange = "2021-04-16 08:59:06 +0000";
layers = (
{
hints = (
{
place = "{85, 115}";
type = Stem;
}
);
layerId = "5B1D346E-B0E2-499B-AAFE-AE2E263C1006";
paths = (
{
closed = 1;
nodes = (
"75 -174 OFFCURVE",
"196 50 OFFCURVE",
"200 222 CURVE SMOOTH",
"201 237 OFFCURVE",
"165 270 OFFCURVE",
"133 270 CURVE SMOOTH",
"106 270 OFFCURVE",
"83 247 OFFCURVE",
"86 170 CURVE",
"85 170 LINE",
"86 150 OFFCURVE",
"86 130 OFFCURVE",
"86 110 CURVE SMOOTH",
"86 -10 OFFCURVE",
"67 -130 OFFCURVE",
"-45 -157 CURVE SMOOTH",
"-63 -161 OFFCURVE",
"-78 -163 OFFCURVE",
"-92 -163 CURVE SMOOTH",
"-193 -163 OFFCURVE",
"-193 -66 OFFCURVE",
"-206 -73 CURVE SMOOTH",
"-226 -85 OFFCURVE",
"-235 -101 OFFCURVE",
"-235 -119 CURVE SMOOTH",
"-235 -164 OFFCURVE",
"-178 -216 OFFCURVE",
"-95 -216 CURVE SMOOTH",
"-75 -216 OFFCURVE",
"-53 -213 OFFCURVE",
"-30 -206 CURVE SMOOTH"
);
},
{
closed = 1;
nodes = (
"168 358 OFFCURVE",
"178 371 OFFCURVE",
"192 377 CURVE",
"211 379 OFFCURVE",
"245 382 OFFCURVE",
"241 393 CURVE SMOOTH",
"232 412 OFFCURVE",
"225 426 OFFCURVE",
"195 426 CURVE SMOOTH",
"178 426 OFFCURVE",
"153 421 OFFCURVE",
"115 410 CURVE SMOOTH",
"110 409 OFFCURVE",
"109 406 OFFCURVE",
"109 403 CURVE SMOOTH",
"109 395 OFFCURVE",
"119 384 OFFCURVE",
"123 378 CURVE SMOOTH",
"130 371 OFFCURVE",
"137 358 OFFCURVE",
"154 358 CURVE SMOOTH"
);
}
);
width = 280;
}
);
note = j;
unicode = 006A;
},
{
glyphname = jdotless;
lastChange = "2021-04-16 08:59:06 +0000";
layers = (
{
hints = (
{
horizontal = 1;
place = "{-270, 37}";
type = Stem;
},
{
horizontal = 1;
place = "{380, 87}";
type = Stem;
},
{
place = "{96, 82}";
type = Stem;
},
{
place = "{85, 115}";
type = Stem;
}
);
layerId = "5B1D346E-B0E2-499B-AAFE-AE2E263C1006";
paths = (
{
closed = 1;
nodes = (
"75 -174 OFFCURVE",
"196 50 OFFCURVE",
"200 222 CURVE SMOOTH",
"201 237 OFFCURVE",
"165 270 OFFCURVE",
"133 270 CURVE SMOOTH",
"106 270 OFFCURVE",
"83 247 OFFCURVE",
"86 170 CURVE",
"85 170 LINE",
"86 150 OFFCURVE",
"86 130 OFFCURVE",
"86 110 CURVE SMOOTH",
"86 -10 OFFCURVE",
"67 -130 OFFCURVE",
"-45 -157 CURVE SMOOTH",
"-63 -161 OFFCURVE",
"-78 -163 OFFCURVE",
"-92 -163 CURVE SMOOTH",
"-193 -163 OFFCURVE",
"-193 -66 OFFCURVE",
"-206 -73 CURVE SMOOTH",
"-226 -85 OFFCURVE",
"-235 -101 OFFCURVE",
"-235 -119 CURVE SMOOTH",
"-235 -164 OFFCURVE",
"-178 -216 OFFCURVE",
"-95 -216 CURVE SMOOTH",
"-75 -216 OFFCURVE",
"-53 -213 OFFCURVE",
"-30 -206 CURVE SMOOTH"
);
}
);
width = 280;
}
);
unicode = 0237;
},
{
glyphname = k;
lastChange = "2021-04-16 08:59:06 +0000";
layers = (
{
hints = (
{
horizontal = 1;
place = "{-4, 21}";
target = up;
type = BottomGhost;
},
{
horizontal = 1;
place = "{290, 27}";
type = Stem;
},
{
place = "{85, 31}";
type = Stem;
}
);
layerId = "5B1D346E-B0E2-499B-AAFE-AE2E263C1006";
paths = (
{
closed = 1;
nodes = (
"119 9 OFFCURVE",
"116 25 OFFCURVE",
"116 43 CURVE SMOOTH",
"116 78 OFFCURVE",
"125 122 OFFCURVE",
"157 184 CURVE",
"157 185 OFFCURVE",
"285 65 OFFCURVE",
"362 19 CURVE SMOOTH",
"384 6 OFFCURVE",
"410 -4 OFFCURVE",
"423 -4 CURVE SMOOTH",
"429 -4 OFFCURVE",
"432 -2 OFFCURVE",
"432 2 CURVE SMOOTH",
"432 8 OFFCURVE",
"423 22 OFFCURVE",
"399 43 CURVE SMOOTH",
"378 62 OFFCURVE",
"229 215 OFFCURVE",
"232 223 CURVE SMOOTH",
"235 232 OFFCURVE",
"318 281 OFFCURVE",
"377 290 CURVE SMOOTH",
"412 295 OFFCURVE",
"426 303 OFFCURVE",
"426 309 CURVE SMOOTH",
"426 314 OFFCURVE",
"415 318 OFFCURVE",
"399 318 CURVE SMOOTH",
"390 318 OFFCURVE",
"380 317 OFFCURVE",
"369 314 CURVE SMOOTH",
"262 290 OFFCURVE",
"186 253 OFFCURVE",
"177 245 CURVE",
"177 245 OFFCURVE",
"243 402 OFFCURVE",
"353 538 CURVE SMOOTH",
"362 549 OFFCURVE",
"338 559 OFFCURVE",
"306 559 CURVE SMOOTH",
"274 559 OFFCURVE",
"235 549 OFFCURVE",
"216 519 CURVE SMOOTH",
"155 424 OFFCURVE",
"104 285 OFFCURVE",
"90 250 CURVE SMOOTH",
"89 247 OFFCURVE",
"58 257 OFFCURVE",
"51 239 CURVE SMOOTH",
"44 222 OFFCURVE",
"95 222 OFFCURVE",
"85 208 CURVE",
"78 194 OFFCURVE",
"71 66 OFFCURVE",
"73 54 CURVE SMOOTH",
"83 1 OFFCURVE",
"101 -13 OFFCURVE",
"113 -13 CURVE SMOOTH",
"119 -13 OFFCURVE",
"123 -9 OFFCURVE",
"122 -5 CURVE SMOOTH"
);
}
);
width = 470;
}
);
note = k;
unicode = 006B;
},
{
glyphname = kgreenlandic;
lastChange = "2021-04-16 08:59:06 +0000";
layers = (
{
hints = (
{
horizontal = 1;
place = "{-4, 21}";
target = up;
type = BottomGhost;
},
{
horizontal = 1;
place = "{290, 27}";
type = Stem;
},
{
place = "{85, 31}";
type = Stem;
}
);
layerId = "5B1D346E-B0E2-499B-AAFE-AE2E263C1006";
paths = (
{
closed = 1;
nodes = (
"119 9 OFFCURVE",
"116 25 OFFCURVE",
"116 43 CURVE SMOOTH",
"116 78 OFFCURVE",
"125 122 OFFCURVE",
"157 184 CURVE",
"157 185 OFFCURVE",
"285 65 OFFCURVE",
"362 19 CURVE SMOOTH",
"384 6 OFFCURVE",
"410 -4 OFFCURVE",
"423 -4 CURVE SMOOTH",
"429 -4 OFFCURVE",
"432 -2 OFFCURVE",
"432 2 CURVE SMOOTH",
"432 8 OFFCURVE",
"423 22 OFFCURVE",
"399 43 CURVE SMOOTH",
"378 62 OFFCURVE",
"229 215 OFFCURVE",
"232 223 CURVE SMOOTH",
"235 232 OFFCURVE",
"328 285 OFFCURVE",
"395 305 CURVE SMOOTH",
"430 315 OFFCURVE",
"452 329 OFFCURVE",
"452 335 CURVE SMOOTH",
"452 340 OFFCURVE",
"441 344 OFFCURVE",
"425 344 CURVE SMOOTH",
"416 344 OFFCURVE",
"406 343 OFFCURVE",
"395 340 CURVE SMOOTH",
"288 316 OFFCURVE",
"186 253 OFFCURVE",
"177 245 CURVE",
"177 245 OFFCURVE",
"256 353 OFFCURVE",
"291 403 CURVE SMOOTH",
"298 414 OFFCURVE",
"276 424 OFFCURVE",
"244 424 CURVE SMOOTH",
"212 424 OFFCURVE",
"174 415 OFFCURVE",
"154 384 CURVE SMOOTH",
"139 361 OFFCURVE",
"104 285 OFFCURVE",
"90 250 CURVE SMOOTH",
"89 247 OFFCURVE",
"58 257 OFFCURVE",
"51 239 CURVE SMOOTH",
"44 222 OFFCURVE",
"95 222 OFFCURVE",
"85 208 CURVE",
"78 194 OFFCURVE",
"71 66 OFFCURVE",
"73 54 CURVE SMOOTH",
"83 1 OFFCURVE",
"101 -13 OFFCURVE",
"113 -13 CURVE SMOOTH",
"119 -13 OFFCURVE",
"123 -9 OFFCURVE",
"122 -5 CURVE SMOOTH"
);
}
);
width = 470;
}
);
unicode = 0138;
},
{
glyphname = l;
lastChange = "2021-04-16 08:59:06 +0000";
layers = (
{
hints = (
{
horizontal = 1;
place = "{-13, 550}";
type = Stem;
},
{
place = "{29, 284}";
type = Stem;
}
);
layerId = "5B1D346E-B0E2-499B-AAFE-AE2E263C1006";
paths = (
{
closed = 1;
nodes = (
"66 109 OFFCURVE",
"203 381 OFFCURVE",
"311 517 CURVE",
"321 527 OFFCURVE",
"297 537 OFFCURVE",
"265 537 CURVE SMOOTH",
"233 537 OFFCURVE",
"193 527 OFFCURVE",
"174 497 CURVE SMOOTH",
"119 409 OFFCURVE",
"29 187 OFFCURVE",
"29 78 CURVE SMOOTH",
"29 69 OFFCURVE",
"30 61 OFFCURVE",
"31 54 CURVE SMOOTH",
"41 1 OFFCURVE",
"58 -13 OFFCURVE",
"68 -13 CURVE SMOOTH",
"74 -13 OFFCURVE",
"78 -9 OFFCURVE",
"78 -5 CURVE SMOOTH"
);
}
);
width = 266;
}
);
note = l;
unicode = 006C;
},
{
glyphname = m;
lastChange = "2021-04-16 08:59:06 +0000";
layers = (
{
hints = (
{
horizontal = 1;
place = "{-6, 21}";
target = up;
type = BottomGhost;
},
{
horizontal = 1;
place = "{70, 44}";
type = Stem;
},
{
horizontal = 1;
place = "{334, -20}";
target = down;
type = TopGhost;
},
{
place = "{19, 161}";
type = Stem;
},
{
place = "{646, 41}";
type = Stem;
}
);
layerId = "5B1D346E-B0E2-499B-AAFE-AE2E263C1006";
paths = (
{
closed = 1;
nodes = (
"94 -5 OFFCURVE",
"115 29 OFFCURVE",
"135 62 CURVE SMOOTH",
"204 175 OFFCURVE",
"257 208 OFFCURVE",
"318 241 CURVE SMOOTH",
"334 250 OFFCURVE",
"316 219 OFFCURVE",
"318 184 CURVE SMOOTH",
"324 75 OFFCURVE",
"334 68 OFFCURVE",
"394 70 CURVE SMOOTH",
"463 73 OFFCURVE",
"555 207 OFFCURVE",
"622 217 CURVE SMOOTH",
"654 222 OFFCURVE",
"637 134 OFFCURVE",
"693 80 CURVE SMOOTH",
"704 69 OFFCURVE",
"712 64 OFFCURVE",
"717 64 CURVE SMOOTH",
"720 64 OFFCURVE",
"722 66 OFFCURVE",
"722 70 CURVE SMOOTH",
"722 75 OFFCURVE",
"719 83 OFFCURVE",
"712 93 CURVE SMOOTH",
"673 152 OFFCURVE",
"702 263 OFFCURVE",
"635 263 CURVE SMOOTH",
"560 263 OFFCURVE",
"480 144 OFFCURVE",
"437 117 CURVE SMOOTH",
"433 115 OFFCURVE",
"430 114 OFFCURVE",
"428 114 CURVE SMOOTH",
"413 114 OFFCURVE",
"408 140 OFFCURVE",
"408 165 CURVE SMOOTH",
"408 172 OFFCURVE",
"408 180 OFFCURVE",
"409 186 CURVE SMOOTH",
"411 196 OFFCURVE",
"411 206 OFFCURVE",
"411 214 CURVE SMOOTH",
"411 267 OFFCURVE",
"384 281 OFFCURVE",
"358 281 CURVE SMOOTH",
"344 281 OFFCURVE",
"330 277 OFFCURVE",
"320 273 CURVE SMOOTH",
"250 244 OFFCURVE",
"207 202 OFFCURVE",
"184 176 CURVE SMOOTH",
"168 158 OFFCURVE",
"202 226 OFFCURVE",
"215 245 CURVE SMOOTH",
"219 251 OFFCURVE",
"221 258 OFFCURVE",
"221 265 CURVE SMOOTH",
"221 299 OFFCURVE",
"172 334 OFFCURVE",
"134 334 CURVE SMOOTH",
"117 334 OFFCURVE",
"103 328 OFFCURVE",
"96 311 CURVE SMOOTH",
"61 229 OFFCURVE",
"16 135 OFFCURVE",
"19 71 CURVE",
"18 47 OFFCURVE",
"41 49 OFFCURVE",
"39 34 CURVE SMOOTH",
"37 13 OFFCURVE",
"73 -7 OFFCURVE",
"79 -6 CURVE SMOOTH"
);
}
);
width = 790;
}
);
note = m;
unicode = 006D;
},
{
glyphname = n;
lastChange = "2021-04-16 08:59:06 +0000";
layers = (
{
hints = (
{
horizontal = 1;
place = "{-6, 21}";
target = up;
type = BottomGhost;
},
{
horizontal = 1;
place = "{243, 46}";
type = Stem;
},
{
place = "{455, 48}";
type = Stem;
},
{
horizontal = 1;
place = "{191, 117}";
type = Stem;
}
);
layerId = "5B1D346E-B0E2-499B-AAFE-AE2E263C1006";
paths = (
{
closed = 1;
nodes = (
"94 -5 OFFCURVE",
"115 29 OFFCURVE",
"135 62 CURVE SMOOTH",
"204 175 OFFCURVE",
"248 227 OFFCURVE",
"318 240 CURVE SMOOTH",
"331 242 OFFCURVE",
"342 244 OFFCURVE",
"352 244 CURVE SMOOTH",
"430 244 OFFCURVE",
"455 182 OFFCURVE",
"455 117 CURVE SMOOTH",
"455 82 OFFCURVE",
"448 46 OFFCURVE",
"438 17 CURVE SMOOTH",
"437 13 OFFCURVE",
"436 10 OFFCURVE",
"436 8 CURVE SMOOTH",
"436 5 OFFCURVE",
"437 4 OFFCURVE",
"439 4 CURVE SMOOTH",
"447 4 OFFCURVE",
"467 24 OFFCURVE",
"473 32 CURVE SMOOTH",
"492 57 OFFCURVE",
"503 96 OFFCURVE",
"503 137 CURVE SMOOTH",
"503 211 OFFCURVE",
"468 289 OFFCURVE",
"388 289 CURVE SMOOTH",
"368 289 OFFCURVE",
"346 284 OFFCURVE",
"320 273 CURVE SMOOTH",
"261 248 OFFCURVE",
"218 222 OFFCURVE",
"193 195 CURVE SMOOTH",
"176 177 OFFCURVE",
"202 226 OFFCURVE",
"215 245 CURVE SMOOTH",
"220 252 OFFCURVE",
"222 259 OFFCURVE",
"222 265 CURVE SMOOTH",
"222 290 OFFCURVE",
"190 308 OFFCURVE",
"159 308 CURVE SMOOTH",
"137 308 OFFCURVE",
"117 300 OFFCURVE",
"107 278 CURVE SMOOTH",
"70 197 OFFCURVE",
"47 123 OFFCURVE",
"38 34 CURVE SMOOTH",
"36 13 OFFCURVE",
"73 -7 OFFCURVE",
"79 -6 CURVE SMOOTH"
);
}
);
width = 562;
}
);
note = n;
unicode = 006E;
},
{
glyphname = eng;
lastChange = "2021-04-16 08:59:06 +0000";
layers = (
{
hints = (
{
horizontal = 1;
place = "{-6, 21}";
target = up;
type = BottomGhost;
},
{
horizontal = 1;
place = "{243, 46}";
type = Stem;
},
{
place = "{455, 48}";
type = Stem;
},
{
horizontal = 1;
place = "{191, 117}";
type = Stem;
},
{
place = "{647, 115}";
type = Stem;
}
);
layerId = "5B1D346E-B0E2-499B-AAFE-AE2E263C1006";
paths = (
{
closed = 1;
nodes = (
"378 -262 OFFCURVE",
"497 -38 OFFCURVE",
"503 134 CURVE SMOOTH",
"503 140 LINE SMOOTH",
"501 213 OFFCURVE",
"467 289 OFFCURVE",
"388 289 CURVE SMOOTH",
"368 289 OFFCURVE",
"346 284 OFFCURVE",
"320 273 CURVE SMOOTH",
"261 248 OFFCURVE",
"218 222 OFFCURVE",
"193 195 CURVE SMOOTH",
"176 177 OFFCURVE",
"202 226 OFFCURVE",
"215 245 CURVE SMOOTH",
"220 252 OFFCURVE",
"222 259 OFFCURVE",
"222 265 CURVE SMOOTH",
"222 290 OFFCURVE",
"190 308 OFFCURVE",
"159 308 CURVE SMOOTH",
"137 308 OFFCURVE",
"117 300 OFFCURVE",
"107 278 CURVE SMOOTH",
"70 197 OFFCURVE",
"47 123 OFFCURVE",
"38 34 CURVE SMOOTH",
"36 13 OFFCURVE",
"73 -7 OFFCURVE",
"79 -6 CURVE SMOOTH",
"94 -5 OFFCURVE",
"115 29 OFFCURVE",
"135 62 CURVE SMOOTH",
"204 175 OFFCURVE",
"281 231 OFFCURVE",
"318 240 CURVE SMOOTH",
"326 242 OFFCURVE",
"334 243 OFFCURVE",
"341 243 CURVE SMOOTH",
"411 243 OFFCURVE",
"417 150 OFFCURVE",
"414 81 CURVE SMOOTH",
"408 -79 OFFCURVE",
"389 -214 OFFCURVE",
"258 -245 CURVE SMOOTH",
"240 -249 OFFCURVE",
"224 -251 OFFCURVE",
"210 -251 CURVE SMOOTH",
"110 -251 OFFCURVE",
"110 -154 OFFCURVE",
"97 -161 CURVE SMOOTH",
"76 -172 OFFCURVE",
"67 -188 OFFCURVE",
"67 -206 CURVE SMOOTH",
"67 -250 OFFCURVE",
"125 -304 OFFCURVE",
"209 -304 CURVE SMOOTH",
"229 -304 OFFCURVE",
"251 -301 OFFCURVE",
"273 -294 CURVE SMOOTH"
);
}
);
width = 562;
}
);
unicode = 014B;
},
{
glyphname = o;
lastChange = "2021-04-16 08:59:06 +0000";
layers = (
{
hints = (
{
horizontal = 1;
place = "{0, 21}";
target = up;
type = BottomGhost;
},
{
horizontal = 1;
place = "{197, 96}";
type = Stem;
},
{
place = "{-9, 42}";
type = Stem;
},
{
place = "{173, 239}";
type = Stem;
}
);
layerId = "5B1D346E-B0E2-499B-AAFE-AE2E263C1006";
paths = (
{
closed = 1;
nodes = (
"255 -6 OFFCURVE",
"389 91 OFFCURVE",
"407 137 CURVE SMOOTH",
"411 146 OFFCURVE",
"412 155 OFFCURVE",
"412 162 CURVE SMOOTH",
"412 222 OFFCURVE",
"309 236 OFFCURVE",
"302 249 CURVE",
"279 282 OFFCURVE",
"210 294 OFFCURVE",
"174 294 CURVE SMOOTH",
"167 294 OFFCURVE",
"161 294 OFFCURVE",
"157 293 CURVE SMOOTH",
"109 282 OFFCURVE",
"29 241 OFFCURVE",
"-2 161 CURVE SMOOTH",
"-7 148 OFFCURVE",
"-9 135 OFFCURVE",
"-9 122 CURVE SMOOTH",
"-9 63 OFFCURVE",
"37 3 OFFCURVE",
"119 0 CURVE SMOOTH"
);
},
{
closed = 1;
nodes = (
"76 30 OFFCURVE",
"33 55 OFFCURVE",
"33 104 CURVE SMOOTH",
"33 117 OFFCURVE",
"37 133 OFFCURVE",
"44 150 CURVE SMOOTH",
"81 235 OFFCURVE",
"158 251 OFFCURVE",
"176 255 CURVE SMOOTH",
"178 255 OFFCURVE",
"173 248 OFFCURVE",
"173 236 CURVE SMOOTH",
"173 225 OFFCURVE",
"179 209 OFFCURVE",
"206 197 CURVE SMOOTH",
"216 193 OFFCURVE",
"226 191 OFFCURVE",
"234 191 CURVE SMOOTH",
"255 191 OFFCURVE",
"271 199 OFFCURVE",
"281 196 CURVE SMOOTH",
"308 187 OFFCURVE",
"328 174 OFFCURVE",
"328 150 CURVE SMOOTH",
"328 146 OFFCURVE",
"327 141 OFFCURVE",
"326 137 CURVE SMOOTH",
"312 83 OFFCURVE",
"199 30 OFFCURVE",
"124 30 CURVE SMOOTH"
);
}
);
width = 440;
}
);
note = o;
unicode = 006F;
},
{
glyphname = oslash;
lastChange = "2021-04-16 08:59:06 +0000";
layers = (
{
hints = (
{
horizontal = 1;
place = "{0, 30}";
type = Stem;
},
{
horizontal = 1;
place = "{255, 38}";
type = Stem;
},
{
place = "{-9, 42}";
type = Stem;
},
{
place = "{173, 239}";
type = Stem;
}
);
layerId = "5B1D346E-B0E2-499B-AAFE-AE2E263C1006";
paths = (
{
closed = 1;
nodes = (
"11 -90 OFFCURVE",
"58 -40 OFFCURVE",
"96 2 CURVE",
"104 1 OFFCURVE",
"111 0 OFFCURVE",
"119 0 CURVE SMOOTH",
"255 -6 OFFCURVE",
"389 91 OFFCURVE",
"407 137 CURVE SMOOTH",
"411 146 OFFCURVE",
"412 155 OFFCURVE",
"412 162 CURVE SMOOTH",
"412 213 OFFCURVE",
"339 230 OFFCURVE",
"312 243 CURVE",
"353 287 OFFCURVE",
"402 341 OFFCURVE",
"469 411 CURVE",
"475 415 OFFCURVE",
"481 430 OFFCURVE",
"481 440 CURVE SMOOTH",
"481 446 OFFCURVE",
"479 451 OFFCURVE",
"474 451 CURVE SMOOTH",
"471 451 OFFCURVE",
"465 448 OFFCURVE",
"457 440 CURVE SMOOTH",
"384 370 OFFCURVE",
"329 315 OFFCURVE",
"282 268 CURVE",
"252 287 OFFCURVE",
"203 294 OFFCURVE",
"174 294 CURVE SMOOTH",
"167 294 OFFCURVE",
"161 294 OFFCURVE",
"157 293 CURVE SMOOTH",
"109 282 OFFCURVE",
"29 241 OFFCURVE",
"-2 161 CURVE SMOOTH",
"-7 148 OFFCURVE",
"-9 135 OFFCURVE",
"-9 121 CURVE SMOOTH",
"-9 82 OFFCURVE",
"11 42 OFFCURVE",
"50 20 CURVE",
"9 -25 OFFCURVE",
"-38 -76 OFFCURVE",
"-97 -139 CURVE SMOOTH",
"-99 -142 OFFCURVE",
"-101 -145 OFFCURVE",
"-101 -148 CURVE SMOOTH",
"-101 -158 OFFCURVE",
"-90 -169 OFFCURVE",
"-76 -169 CURVE SMOOTH",
"-68 -169 OFFCURVE",
"-58 -165 OFFCURVE",
"-49 -155 CURVE SMOOTH"
);
},
{
closed = 1;
nodes = (
"49 54 OFFCURVE",
"33 74 OFFCURVE",
"33 103 CURVE SMOOTH",
"33 117 OFFCURVE",
"36 132 OFFCURVE",
"44 150 CURVE SMOOTH",
"81 235 OFFCURVE",
"158 251 OFFCURVE",
"176 255 CURVE SMOOTH",
"178 255 OFFCURVE",
"173 248 OFFCURVE",
"173 236 CURVE SMOOTH",
"173 225 OFFCURVE",
"179 209 OFFCURVE",
"206 197 CURVE SMOOTH",
"208 196 OFFCURVE",
"210 195 OFFCURVE",
"212 195 CURVE",
"165 145 OFFCURVE",
"123 99 OFFCURVE",
"71 42 CURVE"
);
},
{
closed = 1;
nodes = (
"177 92 OFFCURVE",
"218 139 OFFCURVE",
"270 196 CURVE",
"274 197 OFFCURVE",
"278 197 OFFCURVE",
"281 196 CURVE SMOOTH",
"308 187 OFFCURVE",
"328 174 OFFCURVE",
"328 150 CURVE SMOOTH",
"328 146 OFFCURVE",
"327 141 OFFCURVE",
"326 137 CURVE SMOOTH",
"312 82 OFFCURVE",
"197 29 OFFCURVE",
"121 30 CURVE"
);
}
);
width = 440;
}
);
note = oslash;
unicode = 00F8;
},
{
glyphname = oe;
lastChange = "2021-04-16 08:59:06 +0000";
layers = (
{
hints = (
{
horizontal = 1;
place = "{-23, 20}";
type = Stem;
},
{
horizontal = 1;
place = "{136, 33}";
type = Stem;
},
{
horizontal = 1;
place = "{263, 65}";
type = Stem;
},
{
place = "{-9, 42}";
type = Stem;
},
{
place = "{299, 103}";
type = Stem;
},
{
place = "{667, 50}";
type = Stem;
},
{
horizontal = 1;
place = "{0, 21}";
target = up;
type = BottomGhost;
},
{
horizontal = 1;
place = "{191, 102}";
type = Stem;
}
);
layerId = "5B1D346E-B0E2-499B-AAFE-AE2E263C1006";
paths = (
{
closed = 1;
nodes = (
"199 0 OFFCURVE",
"268 26 OFFCURVE",
"319 56 CURVE",
"331 37 LINE SMOOTH",
"360 -5 OFFCURVE",
"409 -23 OFFCURVE",
"463 -23 CURVE SMOOTH",
"509 -23 OFFCURVE",
"558 -10 OFFCURVE",
"601 11 CURVE SMOOTH",
"634 27 OFFCURVE",
"646 40 OFFCURVE",
"646 47 CURVE SMOOTH",
"646 51 OFFCURVE",
"642 53 OFFCURVE",
"638 54 CURVE",
"635 55 OFFCURVE",
"631 55 OFFCURVE",
"628 55 CURVE SMOOTH",
"615 55 OFFCURVE",
"603 47 OFFCURVE",
"577 31 CURVE SMOOTH",
"568 25 OFFCURVE",
"519 -4 OFFCURVE",
"476 -4 CURVE SMOOTH",
"458 -4 OFFCURVE",
"441 1 OFFCURVE",
"428 16 CURVE SMOOTH",
"409 38 OFFCURVE",
"402 66 OFFCURVE",
"402 93 CURVE SMOOTH",
"402 109 OFFCURVE",
"404 124 OFFCURVE",
"408 139 CURVE",
"418 137 OFFCURVE",
"433 136 OFFCURVE",
"449 136 CURVE SMOOTH",
"518 136 OFFCURVE",
"628 152 OFFCURVE",
"694 174 CURVE SMOOTH",
"710 180 OFFCURVE",
"717 187 OFFCURVE",
"717 197 CURVE SMOOTH",
"717 222 OFFCURVE",
"664 257 OFFCURVE",
"609 279 CURVE SMOOTH",
"554 302 OFFCURVE",
"523 328 OFFCURVE",
"512 328 CURVE SMOOTH",
"473 330 OFFCURVE",
"444 324 OFFCURVE",
"424 312 CURVE SMOOTH",
"385 288 OFFCURVE",
"359 264 OFFCURVE",
"337 233 CURVE",
"319 240 OFFCURVE",
"305 244 OFFCURVE",
"302 249 CURVE SMOOTH",
"279 282 OFFCURVE",
"210 294 OFFCURVE",
"174 294 CURVE SMOOTH",
"167 294 OFFCURVE",
"161 294 OFFCURVE",
"157 293 CURVE SMOOTH",
"109 282 OFFCURVE",
"29 241 OFFCURVE",
"-2 161 CURVE SMOOTH",
"-7 148 OFFCURVE",
"-9 135 OFFCURVE",
"-9 122 CURVE SMOOTH",
"-9 60 OFFCURVE",
"41 0 OFFCURVE",
"130 0 CURVE SMOOTH"
);
},
{
closed = 1;
nodes = (
"76 30 OFFCURVE",
"33 55 OFFCURVE",
"33 104 CURVE SMOOTH",
"33 117 OFFCURVE",
"37 133 OFFCURVE",
"44 150 CURVE SMOOTH",
"81 235 OFFCURVE",
"158 251 OFFCURVE",
"176 255 CURVE SMOOTH",
"178 255 OFFCURVE",
"173 248 OFFCURVE",
"173 236 CURVE SMOOTH",
"173 225 OFFCURVE",
"179 209 OFFCURVE",
"206 197 CURVE SMOOTH",
"216 193 OFFCURVE",
"226 191 OFFCURVE",
"234 191 CURVE SMOOTH",
"255 191 OFFCURVE",
"271 199 OFFCURVE",
"281 196 CURVE SMOOTH",
"291 193 OFFCURVE",
"300 189 OFFCURVE",
"308 184 CURVE",
"303 170 OFFCURVE",
"299 153 OFFCURVE",
"299 134 CURVE SMOOTH",
"299 123 OFFCURVE",
"300 112 OFFCURVE",
"303 101 CURVE",
"262 61 OFFCURVE",
"182 30 OFFCURVE",
"123 30 CURVE SMOOTH"
);
},
{
closed = 1;
nodes = (
"425 182 OFFCURVE",
"430 191 OFFCURVE",
"435 198 CURVE SMOOTH",
"481 261 OFFCURVE",
"541 263 OFFCURVE",
"561 263 CURVE SMOOTH",
"586 262 OFFCURVE",
"667 226 OFFCURVE",
"667 202 CURVE SMOOTH",
"667 195 OFFCURVE",
"659 189 OFFCURVE",
"639 185 CURVE SMOOTH",
"572 173 OFFCURVE",
"513 169 OFFCURVE",
"471 169 CURVE SMOOTH",
"449 169 OFFCURVE",
"431 170 OFFCURVE",
"420 172 CURVE"
);
}
);
width = 706;
}
);
note = oe;
unicode = 0153;
},
{
glyphname = p;
lastChange = "2021-04-16 08:59:06 +0000";
layers = (
{
hints = (
{
horizontal = 1;
place = "{29, 71}";
type = Stem;
},
{
horizontal = 1;
place = "{269, 19}";
type = Stem;
},
{
place = "{-6, 57}";
type = Stem;
},
{
place = "{485, 76}";
type = Stem;
}
);
layerId = "5B1D346E-B0E2-499B-AAFE-AE2E263C1006";
paths = (
{
closed = 1;
nodes = (
"60 -75 OFFCURVE",
"101 38 OFFCURVE",
"134 126 CURVE SMOOTH",
"159 193 OFFCURVE",
"242 232 OFFCURVE",
"315 254 CURVE SMOOTH",
"351 265 OFFCURVE",
"380 269 OFFCURVE",
"404 269 CURVE SMOOTH",
"460 269 OFFCURVE",
"485 244 OFFCURVE",
"485 219 CURVE SMOOTH",
"485 209 OFFCURVE",
"481 199 OFFCURVE",
"473 190 CURVE SMOOTH",
"439 155 OFFCURVE",
"330 106 OFFCURVE",
"251 100 CURVE SMOOTH",
"240 99 OFFCURVE",
"234 88 OFFCURVE",
"234 75 CURVE SMOOTH",
"234 53 OFFCURVE",
"248 26 OFFCURVE",
"271 29 CURVE SMOOTH",
"491 56 OFFCURVE",
"561 144 OFFCURVE",
"561 200 CURVE SMOOTH",
"561 256 OFFCURVE",
"485 288 OFFCURVE",
"398 288 CURVE SMOOTH",
"365 288 OFFCURVE",
"331 283 OFFCURVE",
"299 274 CURVE SMOOTH",
"217 251 OFFCURVE",
"166 219 OFFCURVE",
"166 221 CURVE SMOOTH",
"171 277 OFFCURVE",
"254 353 OFFCURVE",
"254 361 CURVE SMOOTH",
"254 366 OFFCURVE",
"248 369 OFFCURVE",
"238 369 CURVE SMOOTH",
"200 369 OFFCURVE",
"109 333 OFFCURVE",
"80 259 CURVE SMOOTH",
"33 139 OFFCURVE",
"17 36 OFFCURVE",
"1 -38 CURVE SMOOTH",
"-4 -59 OFFCURVE",
"-6 -80 OFFCURVE",
"-6 -98 CURVE SMOOTH",
"-6 -164 OFFCURVE",
"20 -210 OFFCURVE",
"36 -210 CURVE SMOOTH",
"44 -210 OFFCURVE",
"49 -201 OFFCURVE",
"51 -182 CURVE SMOOTH"
);
}
);
width = 591;
}
);
note = p;
unicode = 0070;
},
{
glyphname = thorn;
lastChange = "2021-04-16 08:59:06 +0000";
layers = (
{
hints = (
{
horizontal = 1;
place = "{29, 71}";
type = Stem;
},
{
horizontal = 1;
place = "{269, 19}";
type = Stem;
},
{
place = "{-6, 57}";
type = Stem;
},
{
place = "{485, 76}";
type = Stem;
}
);
layerId = "5B1D346E-B0E2-499B-AAFE-AE2E263C1006";
paths = (
{
closed = 1;
nodes = (
"60 -75 OFFCURVE",
"101 38 OFFCURVE",
"134 126 CURVE SMOOTH",
"159 193 OFFCURVE",
"242 232 OFFCURVE",
"315 254 CURVE SMOOTH",
"351 265 OFFCURVE",
"380 269 OFFCURVE",
"404 269 CURVE SMOOTH",
"460 269 OFFCURVE",
"485 244 OFFCURVE",
"485 219 CURVE SMOOTH",
"485 209 OFFCURVE",
"481 199 OFFCURVE",
"473 190 CURVE SMOOTH",
"439 155 OFFCURVE",
"330 106 OFFCURVE",
"251 100 CURVE SMOOTH",
"240 99 OFFCURVE",
"234 88 OFFCURVE",
"234 75 CURVE SMOOTH",
"234 53 OFFCURVE",
"248 26 OFFCURVE",
"271 29 CURVE SMOOTH",
"491 56 OFFCURVE",
"561 144 OFFCURVE",
"561 200 CURVE SMOOTH",
"561 256 OFFCURVE",
"485 288 OFFCURVE",
"398 288 CURVE SMOOTH",
"365 288 OFFCURVE",
"331 283 OFFCURVE",
"299 274 CURVE SMOOTH",
"217 251 OFFCURVE",
"166 219 OFFCURVE",
"166 221 CURVE SMOOTH",
"171 277 OFFCURVE",
"320 521 OFFCURVE",
"320 529 CURVE SMOOTH",
"320 534 OFFCURVE",
"314 537 OFFCURVE",
"304 537 CURVE SMOOTH",
"266 537 OFFCURVE",
"175 501 OFFCURVE",
"146 427 CURVE SMOOTH",
"99 307 OFFCURVE",
"17 36 OFFCURVE",
"1 -38 CURVE SMOOTH",
"-4 -59 OFFCURVE",
"-6 -80 OFFCURVE",
"-6 -98 CURVE SMOOTH",
"-6 -164 OFFCURVE",
"20 -210 OFFCURVE",
"36 -210 CURVE SMOOTH",
"44 -210 OFFCURVE",
"49 -201 OFFCURVE",
"51 -182 CURVE SMOOTH"
);
}
);
width = 591;
}
);
unicode = 00FE;
},
{
glyphname = q;
lastChange = "2021-04-16 08:59:06 +0000";
layers = (
{
hints = (
{
horizontal = 1;
place = "{-1, 51}";
type = Stem;
},
{
place = "{-7, 98}";
type = Stem;
},
{
place = "{310, 56}";
type = Stem;
}
);
layerId = "5B1D346E-B0E2-499B-AAFE-AE2E263C1006";
paths = (
{
closed = 1;
nodes = (
"395 -222 OFFCURVE",
"398 -223 OFFCURVE",
"401 -223 CURVE SMOOTH",
"407 -223 OFFCURVE",
"409 -220 OFFCURVE",
"409 -217 CURVE SMOOTH",
"409 -213 OFFCURVE",
"405 -208 OFFCURVE",
"400 -206 CURVE",
"376 -194 OFFCURVE",
"366 -171 OFFCURVE",
"366 -142 CURVE SMOOTH",
"366 -63 OFFCURVE",
"435 58 OFFCURVE",
"458 90 CURVE SMOOTH",
"486 130 OFFCURVE",
"492 151 OFFCURVE",
"492 170 CURVE SMOOTH",
"492 177 OFFCURVE",
"492 183 OFFCURVE",
"491 190 CURVE",
"491 198 OFFCURVE",
"458 209 OFFCURVE",
"437 209 CURVE SMOOTH",
"433 209 OFFCURVE",
"429 209 OFFCURVE",
"426 208 CURVE SMOOTH",
"394 198 OFFCURVE",
"371 161 OFFCURVE",
"249 96 CURVE SMOOTH",
"209 75 OFFCURVE",
"161 50 OFFCURVE",
"128 50 CURVE SMOOTH",
"113 50 OFFCURVE",
"101 55 OFFCURVE",
"94 69 CURVE SMOOTH",
"92 73 OFFCURVE",
"91 78 OFFCURVE",
"91 83 CURVE SMOOTH",
"91 126 OFFCURVE",
"157 198 OFFCURVE",
"250 250 CURVE SMOOTH",
"287 271 OFFCURVE",
"316 277 OFFCURVE",
"339 277 CURVE SMOOTH",
"379 277 OFFCURVE",
"400 257 OFFCURVE",
"413 257 CURVE SMOOTH",
"430 257 OFFCURVE",
"432 264 OFFCURVE",
"440 271 CURVE",
"442 275 OFFCURVE",
"444 282 OFFCURVE",
"444 290 CURVE SMOOTH",
"444 312 OFFCURVE",
"429 343 OFFCURVE",
"360 352 CURVE SMOOTH",
"348 354 OFFCURVE",
"336 355 OFFCURVE",
"324 355 CURVE SMOOTH",
"260 355 OFFCURVE",
"206 329 OFFCURVE",
"157 288 CURVE SMOOTH",
"46 192 OFFCURVE",
"0 101 OFFCURVE",
"-7 39 CURVE",
"-13 12 OFFCURVE",
"24 -1 OFFCURVE",
"58 -1 CURVE SMOOTH",
"73 -1 OFFCURVE",
"87 1 OFFCURVE",
"97 6 CURVE SMOOTH",
"167 38 OFFCURVE",
"319 103 OFFCURVE",
"395 159 CURVE SMOOTH",
"407 167 OFFCURVE",
"308 29 OFFCURVE",
"308 -94 CURVE SMOOTH",
"308 -104 OFFCURVE",
"309 -114 OFFCURVE",
"310 -123 CURVE SMOOTH",
"319 -183 OFFCURVE",
"342 -208 OFFCURVE",
"390 -221 CURVE SMOOTH"
);
}
);
width = 563;
}
);
note = q;
unicode = 0071;
},
{
glyphname = r;
lastChange = "2021-04-16 08:59:06 +0000";
layers = (
{
hints = (
{
horizontal = 1;
place = "{254, 40}";
type = Stem;
},
{
place = "{7, 399}";
type = Stem;
},
{
horizontal = 1;
place = "{295, 81}";
type = Stem;
}
);
layerId = "5B1D346E-B0E2-499B-AAFE-AE2E263C1006";
paths = (
{
closed = 1;
nodes = (
"41 30 OFFCURVE",
"48 26 OFFCURVE",
"59 26 CURVE SMOOTH",
"89 26 OFFCURVE",
"146 52 OFFCURVE",
"150 80 CURVE SMOOTH",
"165 183 OFFCURVE",
"230 305 OFFCURVE",
"313 326 CURVE SMOOTH",
"319 327 OFFCURVE",
"324 328 OFFCURVE",
"328 328 CURVE SMOOTH",
"358 328 OFFCURVE",
"353 295 OFFCURVE",
"385 295 CURVE SMOOTH",
"400 295 OFFCURVE",
"406 304 OFFCURVE",
"406 318 CURVE SMOOTH",
"406 342 OFFCURVE",
"386 376 OFFCURVE",
"345 376 CURVE SMOOTH",
"333 376 OFFCURVE",
"318 373 OFFCURVE",
"302 365 CURVE SMOOTH",
"248 340 OFFCURVE",
"189 283 OFFCURVE",
"155 225 CURVE",
"149 219 OFFCURVE",
"158 268 OFFCURVE",
"132 283 CURVE SMOOTH",
"118 291 OFFCURVE",
"103 294 OFFCURVE",
"89 294 CURVE SMOOTH",
"64 294 OFFCURVE",
"38 285 OFFCURVE",
"15 272 CURVE",
"10 270 OFFCURVE",
"6 267 OFFCURVE",
"6 263 CURVE SMOOTH",
"6 259 OFFCURVE",
"13 255 OFFCURVE",
"28 254 CURVE SMOOTH",
"48 254 OFFCURVE",
"54 216 OFFCURVE",
"54 171 CURVE SMOOTH",
"54 125 OFFCURVE",
"48 72 OFFCURVE",
"42 39 CURVE SMOOTH"
);
}
);
width = 351;
}
);
note = r;
unicode = 0072;
},
{
glyphname = s;
lastChange = "2021-04-16 08:59:06 +0000";
layers = (
{
hints = (
{
horizontal = 1;
place = "{-10, 53}";
type = Stem;
},
{
horizontal = 1;
place = "{301, 48}";
type = Stem;
},
{
place = "{17, 126}";
type = Stem;
},
{
place = "{297, 61}";
type = Stem;
}
);
layerId = "5B1D346E-B0E2-499B-AAFE-AE2E263C1006";
paths = (
{
closed = 1;
nodes = (
"72 -11 OFFCURVE",
"94 -12 OFFCURVE",
"123 -12 CURVE SMOOTH",
"209 -12 OFFCURVE",
"358 -2 OFFCURVE",
"358 49 CURVE SMOOTH",
"358 58 OFFCURVE",
"354 68 OFFCURVE",
"344 79 CURVE SMOOTH",
"322 103 OFFCURVE",
"246 121 OFFCURVE",
"182 160 CURVE SMOOTH",
"153 178 OFFCURVE",
"142 195 OFFCURVE",
"142 210 CURVE SMOOTH",
"142 232 OFFCURVE",
"163 250 OFFCURVE",
"179 262 CURVE SMOOTH",
"220 291 OFFCURVE",
"258 301 OFFCURVE",
"293 301 CURVE SMOOTH",
"324 301 OFFCURVE",
"353 293 OFFCURVE",
"381 283 CURVE SMOOTH",
"385 281 OFFCURVE",
"390 281 OFFCURVE",
"395 281 CURVE SMOOTH",
"405 281 OFFCURVE",
"414 285 OFFCURVE",
"414 293 CURVE SMOOTH",
"414 298 OFFCURVE",
"410 305 OFFCURVE",
"400 314 CURVE SMOOTH",
"374 337 OFFCURVE",
"323 349 OFFCURVE",
"267 349 CURVE SMOOTH",
"183 349 OFFCURVE",
"86 322 OFFCURVE",
"32 264 CURVE",
"33 263 LINE",
"22 251 OFFCURVE",
"17 240 OFFCURVE",
"17 230 CURVE SMOOTH",
"17 204 OFFCURVE",
"53 184 OFFCURVE",
"94 165 CURVE SMOOTH",
"118 154 OFFCURVE",
"258 104 OFFCURVE",
"290 80 CURVE SMOOTH",
"295 77 OFFCURVE",
"297 73 OFFCURVE",
"297 70 CURVE SMOOTH",
"297 51 OFFCURVE",
"208 43 OFFCURVE",
"131 43 CURVE SMOOTH",
"89 43 OFFCURVE",
"50 45 OFFCURVE",
"32 50 CURVE SMOOTH",
"29 51 OFFCURVE",
"25 51 OFFCURVE",
"22 51 CURVE SMOOTH",
"8 51 OFFCURVE",
"-3 43 OFFCURVE",
"-3 31 CURVE SMOOTH",
"-3 17 OFFCURVE",
"14 -1 OFFCURVE",
"65 -10 CURVE SMOOTH"
);
}
);
width = 429;
}
);
note = s;
unicode = 0073;
},
{
glyphname = germandbls;
lastChange = "2021-07-09 13:24:31 +0000";
layers = (
{
background = {
components = (
{
name = s;
transform = "{1, 0, 0, 1, 211, -69}";
}
);
};
hints = (
{
horizontal = 1;
place = "{-98, 20}";
type = Stem;
},
{
horizontal = 1;
place = "{560, 26}";
type = Stem;
},
{
place = "{17, 52}";
type = Stem;
},
{
place = "{357, 57}";
type = Stem;
},
{
place = "{580, 93}";
type = Stem;
},
{
horizontal = 1;
place = "{-79, 53}";
type = Stem;
},
{
horizontal = 1;
place = "{232, 48}";
type = Stem;
},
{
place = "{228, 126}";
type = Stem;
},
{
place = "{508, 61}";
type = Stem;
}
);
layerId = "5B1D346E-B0E2-499B-AAFE-AE2E263C1006";
paths = (
{
closed = 1;
nodes = (
"428 586 OFFCURVE",
"406 585 OFFCURVE",
"383 580 CURVE SMOOTH",
"300 562 OFFCURVE",
"226 505 OFFCURVE",
"169 396 CURVE SMOOTH",
"162 380 OFFCURVE",
"154 364 OFFCURVE",
"146 346 CURVE",
"128 378 OFFCURVE",
"70 400 OFFCURVE",
"43 400 CURVE SMOOTH",
"25 400 OFFCURVE",
"17 392 OFFCURVE",
"17 385 CURVE SMOOTH",
"18 378 OFFCURVE",
"25 372 OFFCURVE",
"40 372 CURVE",
"65 361 OFFCURVE",
"106 325 OFFCURVE",
"122 287 CURVE",
"62 125 OFFCURVE",
"17 -82 OFFCURVE",
"-29 -184 CURVE SMOOTH",
"-52 -234 OFFCURVE",
"-64 -261 OFFCURVE",
"-63 -277 CURVE SMOOTH",
"-62 -281 OFFCURVE",
"-61 -284 OFFCURVE",
"-59 -287 CURVE SMOOTH",
"-56 -291 OFFCURVE",
"-51 -293 OFFCURVE",
"-48 -293 CURVE SMOOTH",
"-45 -293 OFFCURVE",
"-44 -292 OFFCURVE",
"-42 -290 CURVE SMOOTH",
"-34 -281 OFFCURVE",
"-26 -272 OFFCURVE",
"-15 -262 CURVE SMOOTH",
"120 -138 OFFCURVE",
"165 322 OFFCURVE",
"321 490 CURVE SMOOTH",
"367 540 OFFCURVE",
"387 560 OFFCURVE",
"428 560 CURVE SMOOTH",
"459 560 OFFCURVE",
"497 531 OFFCURVE",
"501 474 CURVE SMOOTH",
"507 387 OFFCURVE",
"465 345 OFFCURVE",
"390 303 CURVE SMOOTH",
"320 265 OFFCURVE",
"228 250 OFFCURVE",
"226 201 CURVE SMOOTH",
"225 175 OFFCURVE",
"260 155 OFFCURVE",
"301 136 CURVE SMOOTH",
"324 125 OFFCURVE",
"463 75 OFFCURVE",
"493 51 CURVE",
"499 48 OFFCURVE",
"500 44 OFFCURVE",
"500 41 CURVE SMOOTH",
"499 22 OFFCURVE",
"410 14 OFFCURVE",
"333 14 CURVE SMOOTH",
"291 14 OFFCURVE",
"252 16 OFFCURVE",
"235 21 CURVE SMOOTH",
"231 22 OFFCURVE",
"227 22 OFFCURVE",
"224 22 CURVE SMOOTH",
"210 22 OFFCURVE",
"199 14 OFFCURVE",
"199 2 CURVE SMOOTH",
"198 -12 OFFCURVE",
"215 -30 OFFCURVE",
"266 -39 CURVE SMOOTH",
"273 -40 OFFCURVE",
"294 -41 OFFCURVE",
"323 -41 CURVE SMOOTH",
"409 -41 OFFCURVE",
"558 -31 OFFCURVE",
"561 20 CURVE SMOOTH",
"561 29 OFFCURVE",
"557 39 OFFCURVE",
"548 50 CURVE SMOOTH",
"526 74 OFFCURVE",
"438 103 OFFCURVE",
"374 144 CURVE SMOOTH",
"316 181 OFFCURVE",
"320 220 OFFCURVE",
"351 244 CURVE",
"461 303 OFFCURVE",
"599 385 OFFCURVE",
"593 479 CURVE SMOOTH",
"588 538 OFFCURVE",
"523 586 OFFCURVE",
"449 586 CURVE SMOOTH"
);
}
);
width = 577;
}
);
note = germandbls;
unicode = 00DF;
},
{
glyphname = t;
lastChange = "2021-04-16 08:59:06 +0000";
layers = (
{
hints = (
{
horizontal = 1;
place = "{274, 19}";
type = Stem;
}
);
layerId = "5B1D346E-B0E2-499B-AAFE-AE2E263C1006";
paths = (
{
closed = 1;
nodes = (
"119 -3 OFFCURVE",
"110 26 OFFCURVE",
"110 65 CURVE SMOOTH",
"110 116 OFFCURVE",
"125 185 OFFCURVE",
"154 251 CURVE",
"170 256 OFFCURVE",
"138 271 OFFCURVE",
"261 274 CURVE SMOOTH",
"320 276 OFFCURVE",
"346 282 OFFCURVE",
"346 287 CURVE SMOOTH",
"346 290 OFFCURVE",
"333 293 OFFCURVE",
"310 293 CURVE SMOOTH",
"178 293 LINE",
"207 345 OFFCURVE",
"250 422 OFFCURVE",
"283 445 CURVE SMOOTH",
"295 454 OFFCURVE",
"268 463 OFFCURVE",
"232 463 CURVE SMOOTH",
"196 463 OFFCURVE",
"151 454 OFFCURVE",
"132 424 CURVE SMOOTH",
"115 398 OFFCURVE",
"104 337 OFFCURVE",
"87 296 CURVE",
"58 291 OFFCURVE",
"35 288 OFFCURVE",
"26 270 CURVE SMOOTH",
"16 254 OFFCURVE",
"42 246 OFFCURVE",
"59 229 CURVE",
"59 229 OFFCURVE",
"47 179 OFFCURVE",
"47 123 CURVE SMOOTH",
"47 80 OFFCURVE",
"54 33 OFFCURVE",
"78 2 CURVE SMOOTH",
"94 -20 OFFCURVE",
"110 -26 OFFCURVE",
"121 -26 CURVE SMOOTH",
"136 -26 OFFCURVE",
"143 -15 OFFCURVE",
"136 -12 CURVE SMOOTH"
);
}
);
width = 269;
}
);
note = t;
unicode = 0074;
},
{
glyphname = u;
lastChange = "2021-04-16 08:59:06 +0000";
layers = (
{
hints = (
{
horizontal = 1;
place = "{-5, 21}";
target = up;
type = BottomGhost;
},
{
place = "{35, 95}";
type = Stem;
},
{
place = "{389, 21}";
type = Stem;
}
);
layerId = "5B1D346E-B0E2-499B-AAFE-AE2E263C1006";
paths = (
{
closed = 1;
nodes = (
"118 -10 OFFCURVE",
"185 15 OFFCURVE",
"218 39 CURVE SMOOTH",
"314 108 OFFCURVE",
"341 151 OFFCURVE",
"381 189 CURVE SMOOTH",
"387 194 OFFCURVE",
"389 195 OFFCURVE",
"389 194 CURVE SMOOTH",
"389 186 OFFCURVE",
"354 135 OFFCURVE",
"356 110 CURVE SMOOTH",
"361 32 OFFCURVE",
"398 20 OFFCURVE",
"443 6 CURVE SMOOTH",
"451 4 OFFCURVE",
"457 3 OFFCURVE",
"462 3 CURVE SMOOTH",
"470 3 OFFCURVE",
"474 6 OFFCURVE",
"474 10 CURVE SMOOTH",
"474 15 OFFCURVE",
"466 23 OFFCURVE",
"452 27 CURVE",
"452 26 LINE",
"421 34 OFFCURVE",
"410 59 OFFCURVE",
"410 91 CURVE SMOOTH",
"410 134 OFFCURVE",
"431 189 OFFCURVE",
"452 229 CURVE SMOOTH",
"456 237 OFFCURVE",
"444 254 OFFCURVE",
"425 254 CURVE SMOOTH",
"416 254 OFFCURVE",
"406 250 OFFCURVE",
"394 240 CURVE SMOOTH",
"328 184 OFFCURVE",
"179 30 OFFCURVE",
"154 41 CURVE SMOOTH",
"141 46 OFFCURVE",
"130 64 OFFCURVE",
"130 95 CURVE SMOOTH",
"130 132 OFFCURVE",
"146 189 OFFCURVE",
"194 271 CURVE SMOOTH",
"197 275 OFFCURVE",
"198 279 OFFCURVE",
"198 282 CURVE SMOOTH",
"198 292 OFFCURVE",
"185 296 OFFCURVE",
"168 296 CURVE SMOOTH",
"138 296 OFFCURVE",
"97 283 OFFCURVE",
"90 264 CURVE SMOOTH",
"72 214 OFFCURVE",
"35 123 OFFCURVE",
"35 65 CURVE SMOOTH",
"35 6 OFFCURVE",
"77 -5 OFFCURVE",
"85 -5 CURVE"
);
}
);
width = 475;
}
);
note = u;
unicode = 0075;
},
{
glyphname = v;
lastChange = "2021-04-16 08:59:06 +0000";
layers = (
{
hints = (
{
horizontal = 1;
place = "{-1, 21}";
target = up;
type = BottomGhost;
},
{
horizontal = 1;
place = "{344, -20}";
target = down;
type = TopGhost;
},
{
place = "{88, 429}";
type = Stem;
}
);
layerId = "5B1D346E-B0E2-499B-AAFE-AE2E263C1006";
paths = (
{
closed = 1;
nodes = (
"284 174 OFFCURVE",
"379 240 OFFCURVE",
"491 307 CURVE SMOOTH",
"510 318 OFFCURVE",
"517 327 OFFCURVE",
"517 334 CURVE SMOOTH",
"517 340 OFFCURVE",
"511 344 OFFCURVE",
"502 344 CURVE SMOOTH",
"491 344 OFFCURVE",
"475 339 OFFCURVE",
"457 326 CURVE SMOOTH",
"406 289 OFFCURVE",
"328 239 OFFCURVE",
"234 128 CURVE",
"178 162 OFFCURVE",
"210 287 OFFCURVE",
"187 302 CURVE SMOOTH",
"174 311 OFFCURVE",
"162 314 OFFCURVE",
"150 314 CURVE SMOOTH",
"115 314 OFFCURVE",
"91 282 OFFCURVE",
"89 269 CURVE SMOOTH",
"88 259 OFFCURVE",
"88 249 OFFCURVE",
"88 240 CURVE SMOOTH",
"88 154 OFFCURVE",
"123 96 OFFCURVE",
"162 29 CURVE SMOOTH",
"172 12 OFFCURVE",
"188 -2 OFFCURVE",
"203 -2 CURVE SMOOTH",
"213 -2 OFFCURVE",
"222 5 OFFCURVE",
"228 20 CURVE SMOOTH"
);
}
);
width = 523;
}
);
note = v;
unicode = 0076;
},
{
glyphname = w;
lastChange = "2021-04-16 08:59:06 +0000";
layers = (
{
hints = (
{
horizontal = 1;
place = "{24, 27}";
type = Stem;
},
{
horizontal = 1;
place = "{328, -20}";
target = down;
type = TopGhost;
},
{
place = "{39, 81}";
type = Stem;
},
{
place = "{381, 55}";
type = Stem;
},
{
place = "{633, 84}";
type = Stem;
}
);
layerId = "5B1D346E-B0E2-499B-AAFE-AE2E263C1006";
paths = (
{
closed = 1;
nodes = (
"193 95 OFFCURVE",
"289 231 OFFCURVE",
"357 247 CURVE SMOOTH",
"384 253 OFFCURVE",
"368 16 OFFCURVE",
"507 24 CURVE SMOOTH",
"674 33 OFFCURVE",
"717 125 OFFCURVE",
"717 198 CURVE SMOOTH",
"717 234 OFFCURVE",
"706 266 OFFCURVE",
"694 279 CURVE SMOOTH",
"683 292 OFFCURVE",
"656 297 OFFCURVE",
"631 297 CURVE SMOOTH",
"597 297 OFFCURVE",
"566 288 OFFCURVE",
"582 276 CURVE SMOOTH",
"594 266 OFFCURVE",
"605 279 OFFCURVE",
"615 258 CURVE",
"628 236 OFFCURVE",
"633 215 OFFCURVE",
"633 194 CURVE SMOOTH",
"633 110 OFFCURVE",
"538 45 OFFCURVE",
"494 51 CURVE SMOOTH",
"398 62 OFFCURVE",
"465 311 OFFCURVE",
"409 295 CURVE SMOOTH",
"301 264 OFFCURVE",
"240 202 OFFCURVE",
"146 94 CURVE",
"144 90 OFFCURVE",
"130 69 OFFCURVE",
"127 69 CURVE",
"122 67 OFFCURVE",
"120 71 OFFCURVE",
"120 79 CURVE SMOOTH",
"120 119 OFFCURVE",
"173 257 OFFCURVE",
"198 293 CURVE SMOOTH",
"203 300 OFFCURVE",
"205 306 OFFCURVE",
"205 310 CURVE SMOOTH",
"205 322 OFFCURVE",
"192 328 OFFCURVE",
"173 328 CURVE SMOOTH",
"139 328 OFFCURVE",
"87 308 OFFCURVE",
"75 274 CURVE SMOOTH",
"56 218 OFFCURVE",
"35 110 OFFCURVE",
"39 46 CURVE SMOOTH",
"40 22 OFFCURVE",
"127 -13 OFFCURVE",
"128 -8 CURVE"
);
}
);
width = 771;
}
);
note = w;
unicode = 0077;
},
{
glyphname = x;
lastChange = "2021-04-16 08:59:06 +0000";
layers = (
{
hints = (
{
horizontal = 1;
place = "{341, -20}";
target = down;
type = TopGhost;
},
{
place = "{-32, 457}";
type = Stem;
}
);
layerId = "5B1D346E-B0E2-499B-AAFE-AE2E263C1006";
paths = (
{
closed = 1;
nodes = (
"7 0 OFFCURVE",
"82 64 OFFCURVE",
"155 121 CURVE",
"203 61 OFFCURVE",
"263 -2 OFFCURVE",
"329 -34 CURVE SMOOTH",
"365 -51 OFFCURVE",
"383 -57 OFFCURVE",
"389 -57 CURVE SMOOTH",
"404 -57 OFFCURVE",
"369 -23 OFFCURVE",
"349 8 CURVE",
"329 32 OFFCURVE",
"285 112 OFFCURVE",
"239 187 CURVE",
"289 221 OFFCURVE",
"325 247 OFFCURVE",
"335 253 CURVE SMOOTH",
"357 269 OFFCURVE",
"426 333 OFFCURVE",
"425 338 CURVE SMOOTH",
"424 345 OFFCURVE",
"417 347 OFFCURVE",
"409 347 CURVE SMOOTH",
"402 347 OFFCURVE",
"394 345 OFFCURVE",
"394 345 CURVE",
"370 314 OFFCURVE",
"303 263 OFFCURVE",
"227 208 CURVE",
"189 278 OFFCURVE",
"151 341 OFFCURVE",
"144 341 CURVE",
"122 346 OFFCURVE",
"43 306 OFFCURVE",
"53 288 CURVE SMOOTH",
"58 280 OFFCURVE",
"90 215 OFFCURVE",
"142 142 CURVE",
"62 83 OFFCURVE",
"-5 31 OFFCURVE",
"-16 8 CURVE SMOOTH",
"-28 -17 OFFCURVE",
"-32 -36 OFFCURVE",
"-32 -49 CURVE SMOOTH",
"-32 -59 OFFCURVE",
"-29 -64 OFFCURVE",
"-25 -64 CURVE SMOOTH",
"-20 -64 OFFCURVE",
"-15 -58 OFFCURVE",
"-10 -46 CURVE SMOOTH"
);
}
);
width = 446;
}
);
note = x;
unicode = 0078;
},
{
glyphname = y;
lastChange = "2021-04-16 08:59:06 +0000";
layers = (
{
hints = (
{
place = "{10, 63}";
type = Stem;
}
);
layerId = "5B1D346E-B0E2-499B-AAFE-AE2E263C1006";
paths = (
{
closed = 1;
nodes = (
"184 -140 OFFCURVE",
"394 113 OFFCURVE",
"454 288 CURVE SMOOTH",
"463 315 OFFCURVE",
"377 346 OFFCURVE",
"350 346 CURVE SMOOTH",
"345 346 OFFCURVE",
"342 345 OFFCURVE",
"342 343 CURVE",
"305 227 OFFCURVE",
"271 141 OFFCURVE",
"215 53 CURVE",
"159 85 OFFCURVE",
"95 155 OFFCURVE",
"73 256 CURVE",
"73 256 OFFCURVE",
"9 257 OFFCURVE",
"10 243 CURVE SMOOTH",
"10 237 OFFCURVE",
"78 104 OFFCURVE",
"201 32 CURVE",
"170 -16 OFFCURVE",
"141 -67 OFFCURVE",
"110 -127 CURVE SMOOTH",
"100 -147 OFFCURVE",
"93 -163 OFFCURVE",
"93 -171 CURVE SMOOTH",
"93 -176 OFFCURVE",
"95 -178 OFFCURVE",
"100 -178 CURVE SMOOTH",
"104 -178 OFFCURVE",
"111 -176 OFFCURVE",
"121 -171 CURVE SMOOTH"
);
}
);
width = 494;
}
);
note = y;
unicode = 0079;
},
{
glyphname = z;
lastChange = "2021-04-16 08:59:06 +0000";
layers = (
{
hints = (
{
horizontal = 1;
place = "{39, 37}";
type = Stem;
},
{
horizontal = 1;
place = "{281, 24}";
type = Stem;
},
{
place = "{289, 113}";
type = Stem;
}
);
layerId = "5B1D346E-B0E2-499B-AAFE-AE2E263C1006";
paths = (
{
closed = 1;
nodes = (
"396 -38 OFFCURVE",
"419 -11 OFFCURVE",
"419 19 CURVE SMOOTH",
"419 41 OFFCURVE",
"406 64 OFFCURVE",
"362 72 CURVE SMOOTH",
"347 74 OFFCURVE",
"332 76 OFFCURVE",
"316 76 CURVE SMOOTH",
"199 76 OFFCURVE",
"58 15 OFFCURVE",
"58 17 CURVE",
"77 93 OFFCURVE",
"402 186 OFFCURVE",
"402 270 CURVE SMOOTH",
"402 275 OFFCURVE",
"401 280 OFFCURVE",
"398 285 CURVE SMOOTH",
"391 299 OFFCURVE",
"335 305 OFFCURVE",
"270 305 CURVE SMOOTH",
"202 305 OFFCURVE",
"125 298 OFFCURVE",
"86 283 CURVE",
"78 281 OFFCURVE",
"53 242 OFFCURVE",
"62 245 CURVE",
"131 276 OFFCURVE",
"188 283 OFFCURVE",
"235 283 CURVE SMOOTH",
"254 283 OFFCURVE",
"271 282 OFFCURVE",
"286 281 CURVE SMOOTH",
"326 278 OFFCURVE",
"10 107 OFFCURVE",
"1 27 CURVE",
"1 27 OFFCURVE",
"6 5 OFFCURVE",
"25 -2 CURVE SMOOTH",
"27 -3 OFFCURVE",
"34 -4 OFFCURVE",
"42 -4 CURVE SMOOTH",
"64 -4 OFFCURVE",
"97 0 OFFCURVE",
"94 9 CURVE",
"88 15 OFFCURVE",
"208 39 OFFCURVE",
"275 39 CURVE SMOOTH",
"360 39 OFFCURVE",
"361 16 OFFCURVE",
"387 -25 CURVE SMOOTH"
);
}
);
width = 453;
}
);
note = z;
unicode = 007A;
},
{
glyphname = ordfeminine;
lastChange = "2021-08-19 04:52:29 +0000";
layers = (
{
hints = (
{
horizontal = 1;
place = "{502, 32}";
type = Stem;
},
{
horizontal = 1;
place = "{675, 47}";
type = Stem;
},
{
place = "{303, 18}";
type = Stem;
}
);
layerId = "5B1D346E-B0E2-499B-AAFE-AE2E263C1006";
paths = (
{
closed = 1;
nodes = (
"286 496 OFFCURVE",
"288 493 OFFCURVE",
"291 493 CURVE SMOOTH",
"298 493 OFFCURVE",
"317 496 OFFCURVE",
"321 507 CURVE SMOOTH",
"342 565 OFFCURVE",
"351 596 OFFCURVE",
"351 621 CURVE",
"352 627 OFFCURVE",
"317 637 OFFCURVE",
"307 637 CURVE SMOOTH",
"291 637 OFFCURVE",
"276 604 OFFCURVE",
"200 563 CURVE SMOOTH",
"175 549 OFFCURVE",
"144 534 OFFCURVE",
"124 534 CURVE SMOOTH",
"114 534 OFFCURVE",
"107 537 OFFCURVE",
"103 545 CURVE SMOOTH",
"102 548 OFFCURVE",
"101 551 OFFCURVE",
"101 554 CURVE SMOOTH",
"101 580 OFFCURVE",
"142 625 OFFCURVE",
"200 658 CURVE SMOOTH",
"224 671 OFFCURVE",
"243 675 OFFCURVE",
"257 675 CURVE SMOOTH",
"281 675 OFFCURVE",
"294 664 OFFCURVE",
"302 663 CURVE SMOOTH",
"313 661 OFFCURVE",
"314 667 OFFCURVE",
"319 671 CURVE",
"320 674 OFFCURVE",
"321 678 OFFCURVE",
"321 683 CURVE SMOOTH",
"321 699 OFFCURVE",
"310 724 OFFCURVE",
"246 724 CURVE SMOOTH",
"206 724 OFFCURVE",
"162 704 OFFCURVE",
"132 678 CURVE SMOOTH",
"63 618 OFFCURVE",
"44 565 OFFCURVE",
"40 527 CURVE",
"37 510 OFFCURVE",
"59 502 OFFCURVE",
"81 502 CURVE SMOOTH",
"152 502 OFFCURVE",
"236 553 OFFCURVE",
"291 602 CURVE SMOOTH",
"298 608 OFFCURVE",
"299 594 OFFCURVE",
"299 573 CURVE SMOOTH",
"299 554 OFFCURVE",
"291 528 OFFCURVE",
"287 504 CURVE SMOOTH"
);
}
);
width = 376;
}
);
note = ordfeminine;
unicode = 00AA;
},
{
glyphname = ordmasculine;
lastChange = "2021-08-19 04:52:27 +0000";
layers = (
{
hints = (
{
horizontal = 1;
place = "{521, 21}";
type = Stem;
},
{
horizontal = 1;
place = "{655, 65}";
type = Stem;
},
{
place = "{47, 28}";
type = Stem;
}
);
layerId = "5B1D346E-B0E2-499B-AAFE-AE2E263C1006";
paths = (
{
closed = 1;
nodes = (
"231 521 OFFCURVE",
"317 584 OFFCURVE",
"329 614 CURVE SMOOTH",
"331 620 OFFCURVE",
"333 626 OFFCURVE",
"333 631 CURVE SMOOTH",
"333 672 OFFCURVE",
"262 681 OFFCURVE",
"258 690 CURVE",
"242 712 OFFCURVE",
"196 721 OFFCURVE",
"171 721 CURVE SMOOTH",
"141 721 OFFCURVE",
"75 693 OFFCURVE",
"51 630 CURVE SMOOTH",
"48 621 OFFCURVE",
"46 612 OFFCURVE",
"46 603 CURVE SMOOTH",
"46 561 OFFCURVE",
"80 521 OFFCURVE",
"141 521 CURVE SMOOTH"
);
},
{
closed = 1;
nodes = (
"108 546 OFFCURVE",
"82 562 OFFCURVE",
"82 593 CURVE SMOOTH",
"82 602 OFFCURVE",
"84 611 OFFCURVE",
"89 623 CURVE SMOOTH",
"112 677 OFFCURVE",
"161 686 OFFCURVE",
"172 689 CURVE SMOOTH",
"173 689 OFFCURVE",
"170 684 OFFCURVE",
"170 677 CURVE SMOOTH",
"170 669 OFFCURVE",
"174 660 OFFCURVE",
"191 652 CURVE SMOOTH",
"197 650 OFFCURVE",
"204 649 OFFCURVE",
"209 649 CURVE SMOOTH",
"222 649 OFFCURVE",
"233 653 OFFCURVE",
"238 651 CURVE SMOOTH",
"256 647 OFFCURVE",
"268 637 OFFCURVE",
"268 623 CURVE SMOOTH",
"268 585 OFFCURVE",
"190 546 OFFCURVE",
"138 546 CURVE SMOOTH"
);
}
);
width = 377;
}
);
note = ordmasculine;
unicode = 00BA;
},
{
glyphname = zero;
lastChange = "2021-04-16 08:59:06 +0000";
layers = (
{
hints = (
{
horizontal = 1;
place = "{-31, 35}";
type = Stem;
},
{
horizontal = 1;
place = "{523, 27}";
type = Stem;
},
{
horizontal = 1;
place = "{611, 29}";
type = Stem;
},
{
place = "{49, 60}";
type = Stem;
},
{
place = "{581, 58}";
type = Stem;
},
{
place = "{550, 26}";
type = Stem;
}
);
layerId = "5B1D346E-B0E2-499B-AAFE-AE2E263C1006";
paths = (
{
closed = 1;
nodes = (
"211 -32 OFFCURVE",
"234 -36 OFFCURVE",
"259 -36 CURVE SMOOTH",
"379 -36 OFFCURVE",
"535 59 OFFCURVE",
"600 196 CURVE SMOOTH",
"617 232 OFFCURVE",
"624 266 OFFCURVE",
"624 298 CURVE SMOOTH",
"624 383 OFFCURVE",
"573 449 OFFCURVE",
"529 472 CURVE",
"535 482 OFFCURVE",
"540 495 OFFCURVE",
"540 508 CURVE SMOOTH",
"540 511 OFFCURVE",
"540 514 OFFCURVE",
"539 517 CURVE SMOOTH",
"534 550 OFFCURVE",
"486 566 OFFCURVE",
"431 566 CURVE SMOOTH",
"406 566 OFFCURVE",
"380 563 OFFCURVE",
"355 556 CURVE SMOOTH",
"236 523 OFFCURVE",
"112 420 OFFCURVE",
"68 307 CURVE SMOOTH",
"54 271 OFFCURVE",
"47 234 OFFCURVE",
"47 198 CURVE SMOOTH",
"47 102 OFFCURVE",
"97 15 OFFCURVE",
"191 -24 CURVE SMOOTH"
);
},
{
closed = 1;
nodes = (
"158 17 OFFCURVE",
"136 72 OFFCURVE",
"136 142 CURVE SMOOTH",
"136 271 OFFCURVE",
"207 450 OFFCURVE",
"365 520 CURVE SMOOTH",
"395 533 OFFCURVE",
"425 540 OFFCURVE",
"451 540 CURVE SMOOTH",
"489 540 OFFCURVE",
"517 525 OFFCURVE",
"517 495 CURVE SMOOTH",
"517 492 OFFCURVE",
"517 489 OFFCURVE",
"516 486 CURVE SMOOTH",
"515 480 LINE",
"508 484 OFFCURVE",
"498 485 OFFCURVE",
"489 485 CURVE SMOOTH",
"414 489 OFFCURVE",
"389 461 OFFCURVE",
"389 447 CURVE SMOOTH",
"389 442 OFFCURVE",
"392 439 OFFCURVE",
"396 439 CURVE SMOOTH",
"399 439 OFFCURVE",
"402 441 OFFCURVE",
"407 444 CURVE SMOOTH",
"421 456 OFFCURVE",
"438 461 OFFCURVE",
"455 461 CURVE SMOOTH",
"501 461 OFFCURVE",
"550 419 OFFCURVE",
"550 337 CURVE SMOOTH",
"550 301 OFFCURVE",
"540 257 OFFCURVE",
"516 205 CURVE SMOOTH",
"458 78 OFFCURVE",
"349 -4 OFFCURVE",
"250 -4 CURVE SMOOTH",
"232 -4 OFFCURVE",
"215 -1 OFFCURVE",
"198 4 CURVE SMOOTH"
);
}
);
width = 665;
}
);
note = zero;
unicode = 0030;
},
{
glyphname = one;
lastChange = "2021-04-16 08:59:06 +0000";
layers = (
{
hints = (
{
horizontal = 1;
place = "{-8, 25}";
type = Stem;
},
{
place = "{87, 44}";
type = Stem;
}
);
layerId = "5B1D346E-B0E2-499B-AAFE-AE2E263C1006";
paths = (
{
closed = 1;
nodes = (
"76 -26 OFFCURVE",
"256 -14 OFFCURVE",
"357 -13 CURVE SMOOTH",
"372 -13 OFFCURVE",
"379 -2 OFFCURVE",
"379 5 CURVE SMOOTH",
"379 10 OFFCURVE",
"377 13 OFFCURVE",
"372 13 CURVE SMOOTH",
"202 11 LINE",
"202 36 OFFCURVE",
"205 66 OFFCURVE",
"226 121 CURVE SMOOTH",
"269 237 OFFCURVE",
"374 398 OFFCURVE",
"424 462 CURVE SMOOTH",
"455 504 OFFCURVE",
"470 526 OFFCURVE",
"476 538 CURVE",
"481 556 OFFCURVE",
"467 563 OFFCURVE",
"449 563 CURVE SMOOTH",
"429 563 OFFCURVE",
"403 555 OFFCURVE",
"388 546 CURVE SMOOTH",
"370 534 OFFCURVE",
"241 410 OFFCURVE",
"171 386 CURVE",
"161 379 OFFCURVE",
"157 373 OFFCURVE",
"157 369 CURVE SMOOTH",
"157 365 OFFCURVE",
"160 363 OFFCURVE",
"166 363 CURVE SMOOTH",
"170 363 OFFCURVE",
"175 364 OFFCURVE",
"181 367 CURVE SMOOTH",
"192 373 OFFCURVE",
"309 425 OFFCURVE",
"325 433 CURVE",
"256 344 OFFCURVE",
"187 196 OFFCURVE",
"167 137 CURVE SMOOTH",
"152 93 OFFCURVE",
"134 43 OFFCURVE",
"136 14 CURVE",
"71 14 LINE SMOOTH",
"53 14 OFFCURVE",
"15 -4 OFFCURVE",
"15 -16 CURVE SMOOTH",
"15 -22 OFFCURVE",
"24 -26 OFFCURVE",
"46 -26 CURVE SMOOTH"
);
}
);
width = 450;
}
);
note = one;
unicode = 0031;
},
{
glyphname = two;
lastChange = "2021-04-16 08:59:06 +0000";
layers = (
{
hints = (
{
horizontal = 1;
place = "{504, 34}";
type = Stem;
}
);
layerId = "5B1D346E-B0E2-499B-AAFE-AE2E263C1006";
paths = (
{
closed = 1;
nodes = (
"600 -42 OFFCURVE",
"638 12 OFFCURVE",
"633 81 CURVE",
"630 85 OFFCURVE",
"628 87 OFFCURVE",
"626 87 CURVE SMOOTH",
"614 87 OFFCURVE",
"598 33 OFFCURVE",
"480 33 CURVE SMOOTH",
"469 33 OFFCURVE",
"456 34 OFFCURVE",
"442 35 CURVE SMOOTH",
"374 41 OFFCURVE",
"295 66 OFFCURVE",
"274 79 CURVE",
"334 118 OFFCURVE",
"549 252 OFFCURVE",
"611 410 CURVE SMOOTH",
"621 435 OFFCURVE",
"626 459 OFFCURVE",
"626 480 CURVE SMOOTH",
"626 560 OFFCURVE",
"558 607 OFFCURVE",
"469 607 CURVE SMOOTH",
"331 607 OFFCURVE",
"257 553 OFFCURVE",
"219 494 CURVE SMOOTH",
"210 480 OFFCURVE",
"206 467 OFFCURVE",
"206 454 CURVE SMOOTH",
"206 426 OFFCURVE",
"227 405 OFFCURVE",
"256 405 CURVE SMOOTH",
"281 405 OFFCURVE",
"291 410 OFFCURVE",
"291 418 CURVE SMOOTH",
"291 421 OFFCURVE",
"289 425 OFFCURVE",
"286 429 CURVE SMOOTH",
"282 434 OFFCURVE",
"280 439 OFFCURVE",
"280 445 CURVE SMOOTH",
"280 491 OFFCURVE",
"382 571 OFFCURVE",
"449 571 CURVE SMOOTH",
"508 571 OFFCURVE",
"542 518 OFFCURVE",
"542 463 CURVE SMOOTH",
"542 443 OFFCURVE",
"538 423 OFFCURVE",
"529 405 CURVE SMOOTH",
"448 231 OFFCURVE",
"307 151 OFFCURVE",
"250 110 CURVE",
"186 172 OFFCURVE",
"141 185 OFFCURVE",
"111 185 CURVE SMOOTH",
"97 185 OFFCURVE",
"86 183 OFFCURVE",
"77 180 CURVE",
"54 169 OFFCURVE",
"38 132 OFFCURVE",
"38 94 CURVE SMOOTH",
"38 60 OFFCURVE",
"51 26 OFFCURVE",
"84 10 CURVE",
"93 7 OFFCURVE",
"103 5 OFFCURVE",
"114 5 CURVE SMOOTH",
"153 5 OFFCURVE",
"203 25 OFFCURVE",
"250 60 CURVE",
"271 45 OFFCURVE",
"350 -42 OFFCURVE",
"469 -42 CURVE SMOOTH"
);
},
{
closed = 1;
nodes = (
"98 68 OFFCURVE",
"87 81 OFFCURVE",
"87 96 CURVE SMOOTH",
"87 103 OFFCURVE",
"89 110 OFFCURVE",
"94 117 CURVE SMOOTH",
"101 127 OFFCURVE",
"113 136 OFFCURVE",
"130 136 CURVE SMOOTH",
"150 136 OFFCURVE",
"179 124 OFFCURVE",
"219 88 CURVE",
"201 71 OFFCURVE",
"168 55 OFFCURVE",
"142 55 CURVE SMOOTH",
"134 55 OFFCURVE",
"127 57 OFFCURVE",
"121 60 CURVE"
);
}
);
width = 723;
}
);
note = two;
unicode = 0032;
},
{
glyphname = three;
lastChange = "2021-07-09 13:28:28 +0000";
layers = (
{
hints = (
{
horizontal = 1;
place = "{231, 25}";
type = Stem;
},
{
horizontal = 1;
place = "{516, 26}";
type = Stem;
}
);
layerId = "5B1D346E-B0E2-499B-AAFE-AE2E263C1006";
paths = (
{
closed = 1;
nodes = (
"552 -63 OFFCURVE",
"552 163 CURVE SMOOTH",
"552 229 OFFCURVE",
"510 260 OFFCURVE",
"461 293 CURVE",
"520 315 OFFCURVE",
"578 369 OFFCURVE",
"578 458 CURVE SMOOTH",
"578 550 OFFCURVE",
"496 589 OFFCURVE",
"372 589 CURVE SMOOTH",
"220 589 OFFCURVE",
"174 537 OFFCURVE",
"152 481 CURVE SMOOTH",
"149 473 OFFCURVE",
"148 466 OFFCURVE",
"148 459 CURVE SMOOTH",
"148 424 OFFCURVE",
"181 399 OFFCURVE",
"216 399 CURVE",
"225 401 OFFCURVE",
"228 402 OFFCURVE",
"228 405 CURVE SMOOTH",
"228 412 OFFCURVE",
"199 426 OFFCURVE",
"199 451 CURVE SMOOTH",
"199 506 OFFCURVE",
"282 560 OFFCURVE",
"359 560 CURVE SMOOTH",
"443 560 OFFCURVE",
"509 512 OFFCURVE",
"509 446 CURVE SMOOTH",
"509 397 OFFCURVE",
"471 337 OFFCURVE",
"417 321 CURVE",
"389 335 OFFCURVE",
"352 337 OFFCURVE",
"325 340 CURVE SMOOTH",
"308 343 OFFCURVE",
"290 344 OFFCURVE",
"272 344 CURVE SMOOTH",
"233 344 OFFCURVE",
"198 337 OFFCURVE",
"188 314 CURVE SMOOTH",
"187 310 OFFCURVE",
"186 307 OFFCURVE",
"186 304 CURVE SMOOTH",
"186 274 OFFCURVE",
"237 263 OFFCURVE",
"268 263 CURVE SMOOTH",
"310 263 OFFCURVE",
"355 269 OFFCURVE",
"398 280 CURVE",
"431 254 OFFCURVE",
"455 217 OFFCURVE",
"455 171 CURVE SMOOTH",
"455 78 OFFCURVE",
"366 -8 OFFCURVE",
"235 -8 CURVE SMOOTH",
"168 -8 OFFCURVE",
"100 34 OFFCURVE",
"100 94 CURVE SMOOTH",
"100 97 OFFCURVE",
"100 101 OFFCURVE",
"101 105 CURVE SMOOTH",
"108 129 OFFCURVE",
"123 147 OFFCURVE",
"141 148 CURVE",
"147 147 OFFCURVE",
"151 146 OFFCURVE",
"155 146 CURVE SMOOTH",
"165 146 OFFCURVE",
"169 150 OFFCURVE",
"169 154 CURVE SMOOTH",
"169 160 OFFCURVE",
"160 167 OFFCURVE",
"149 167 CURVE",
"141 169 OFFCURVE",
"132 170 OFFCURVE",
"123 170 CURVE SMOOTH",
"82 170 OFFCURVE",
"37 148 OFFCURVE",
"37 97 CURVE SMOOTH",
"37 -107 OFFCURVE"
);
},
{
closed = 1;
nodes = (
"251 292 OFFCURVE",
"250 295 OFFCURVE",
"248 309 CURVE SMOOTH",
"247 316 OFFCURVE",
"258 319 OFFCURVE",
"273 319 CURVE SMOOTH",
"287 319 OFFCURVE",
"304 316 OFFCURVE",
"317 313 CURVE",
"332 311 OFFCURVE",
"345 308 OFFCURVE",
"357 303 CURVE",
"334 297 OFFCURVE",
"313 294 OFFCURVE",
"291 292 CURVE"
);
}
);
width = 605;
}
);
note = three;
unicode = 0033;
},
{
glyphname = four;
lastChange = "2021-07-09 13:29:26 +0000";
layers = (
{
hints = (
{
horizontal = 1;
place = "{196, 23}";
type = Stem;
}
);
layerId = "5B1D346E-B0E2-499B-AAFE-AE2E263C1006";
paths = (
{
closed = 1;
nodes = (
"328 -52 OFFCURVE",
"338 -53 OFFCURVE",
"350 -53 CURVE SMOOTH",
"366 -53 OFFCURVE",
"385 -51 OFFCURVE",
"389 -45 CURVE",
"397 -39 OFFCURVE",
"401 -30 OFFCURVE",
"401 -23 CURVE SMOOTH",
"401 -19 OFFCURVE",
"399 -16 OFFCURVE",
"395 -16 CURVE SMOOTH",
"394 -16 OFFCURVE",
"393 -16 OFFCURVE",
"391 -17 CURVE SMOOTH",
"389 -18 OFFCURVE",
"386 -19 OFFCURVE",
"382 -19 CURVE SMOOTH",
"373 -19 OFFCURVE",
"362 -16 OFFCURVE",
"358 -10 CURVE",
"346 -1 OFFCURVE",
"342 13 OFFCURVE",
"342 30 CURVE SMOOTH",
"342 59 OFFCURVE",
"354 95 OFFCURVE",
"366 127 CURVE SMOOTH",
"379 161 OFFCURVE",
"396 193 OFFCURVE",
"408 223 CURVE",
"479 225 OFFCURVE",
"506 229 OFFCURVE",
"557 234 CURVE SMOOTH",
"575 236 OFFCURVE",
"586 247 OFFCURVE",
"586 256 CURVE SMOOTH",
"586 262 OFFCURVE",
"579 267 OFFCURVE",
"564 265 CURVE SMOOTH",
"528 259 OFFCURVE",
"468 247 OFFCURVE",
"422 248 CURVE",
"497 412 OFFCURVE",
"533 511 OFFCURVE",
"557 548 CURVE",
"565 575 OFFCURVE",
"529 587 OFFCURVE",
"496 587 CURVE SMOOTH",
"480 587 OFFCURVE",
"464 584 OFFCURVE",
"455 579 CURVE",
"377 524 OFFCURVE",
"314 468 OFFCURVE",
"244 415 CURVE SMOOTH",
"180 365 OFFCURVE",
"111 319 OFFCURVE",
"41 260 CURVE",
"38 258 OFFCURVE",
"36 255 OFFCURVE",
"36 252 CURVE SMOOTH",
"36 235 OFFCURVE",
"69 206 OFFCURVE",
"86 208 CURVE SMOOTH",
"161 212 OFFCURVE",
"240 217 OFFCURVE",
"328 219 CURVE",
"316 189 OFFCURVE",
"304 163 OFFCURVE",
"298 139 CURVE SMOOTH",
"286 96 OFFCURVE",
"281 63 OFFCURVE",
"281 36 CURVE SMOOTH",
"281 -15 OFFCURVE",
"300 -39 OFFCURVE",
"324 -50 CURVE SMOOTH"
);
},
{
closed = 1;
nodes = (
"287 243 OFFCURVE",
"245 241 OFFCURVE",
"214 241 CURVE SMOOTH",
"176 241 OFFCURVE",
"149 244 OFFCURVE",
"149 252 CURVE SMOOTH",
"149 264 OFFCURVE",
"165 275 OFFCURVE",
"168 278 CURVE SMOOTH",
"216 320 OFFCURVE",
"270 357 OFFCURVE",
"321 396 CURVE SMOOTH",
"374 435 OFFCURVE",
"427 481 OFFCURVE",
"442 492 CURVE",
"416 435 OFFCURVE",
"395 372 OFFCURVE",
"337 246 CURVE"
);
}
);
width = 624;
}
);
note = four;
unicode = 0034;
},
{
glyphname = five;
lastChange = "2021-04-16 08:59:06 +0000";
layers = (
{
hints = (
{
horizontal = 1;
place = "{478, 34}";
type = Stem;
}
);
layerId = "5B1D346E-B0E2-499B-AAFE-AE2E263C1006";
paths = (
{
closed = 1;
nodes = (
"169 -57 OFFCURVE",
"410 74 OFFCURVE",
"410 208 CURVE SMOOTH",
"410 245 OFFCURVE",
"384 279 OFFCURVE",
"319 304 CURVE",
"269 327 OFFCURVE",
"172 328 OFFCURVE",
"137 331 CURVE SMOOTH",
"114 332 OFFCURVE",
"110 340 OFFCURVE",
"110 347 CURVE SMOOTH",
"110 352 OFFCURVE",
"111 357 OFFCURVE",
"112 360 CURVE SMOOTH",
"114 371 OFFCURVE",
"120 398 OFFCURVE",
"160 445 CURVE SMOOTH",
"191 481 OFFCURVE",
"209 496 OFFCURVE",
"247 515 CURVE",
"307 536 OFFCURVE",
"429 541 OFFCURVE",
"444 541 CURVE SMOOTH",
"475 541 OFFCURVE",
"496 524 OFFCURVE",
"512 524 CURVE SMOOTH",
"515 524 OFFCURVE",
"519 525 OFFCURVE",
"522 527 CURVE",
"526 532 OFFCURVE",
"528 540 OFFCURVE",
"528 548 CURVE SMOOTH",
"528 563 OFFCURVE",
"521 578 OFFCURVE",
"499 578 CURVE SMOOTH",
"488 578 OFFCURVE",
"420 578 OFFCURVE",
"373 573 CURVE SMOOTH",
"306 569 OFFCURVE",
"196 572 OFFCURVE",
"165 551 CURVE",
"165 551 OFFCURVE",
"101 496 OFFCURVE",
"70 453 CURVE SMOOTH",
"48 422 OFFCURVE",
"30 381 OFFCURVE",
"30 350 CURVE SMOOTH",
"30 333 OFFCURVE",
"36 319 OFFCURVE",
"50 313 CURVE",
"108 298 OFFCURVE",
"303 308 OFFCURVE",
"303 219 CURVE SMOOTH",
"303 173 OFFCURVE",
"266 107 OFFCURVE",
"206 58 CURVE SMOOTH",
"137 2 OFFCURVE",
"82 -12 OFFCURVE",
"15 -29 CURVE",
"5 -26 OFFCURVE",
"3 -2 OFFCURVE",
"-13 -2 CURVE SMOOTH",
"-16 -2 OFFCURVE",
"-20 -3 OFFCURVE",
"-24 -5 CURVE SMOOTH",
"-30 -8 OFFCURVE",
"-33 -14 OFFCURVE",
"-33 -20 CURVE SMOOTH",
"-33 -26 OFFCURVE",
"-31 -31 OFFCURVE",
"-26 -37 CURVE SMOOTH",
"-18 -48 OFFCURVE",
"-5 -57 OFFCURVE",
"20 -57 CURVE SMOOTH"
);
}
);
width = 479;
}
);
note = five;
unicode = 0035;
},
{
glyphname = six;
lastChange = "2021-04-16 08:59:06 +0000";
layers = (
{
hints = (
{
horizontal = 1;
place = "{-66, 42}";
type = Stem;
},
{
horizontal = 1;
place = "{328, 33}";
type = Stem;
},
{
horizontal = 1;
place = "{602, 43}";
type = Stem;
},
{
place = "{47, 56}";
type = Stem;
},
{
place = "{418, 61}";
type = Stem;
},
{
place = "{539, 39}";
type = Stem;
}
);
layerId = "5B1D346E-B0E2-499B-AAFE-AE2E263C1006";
paths = (
{
closed = 1;
nodes = (
"371 -34 OFFCURVE",
"484 126 OFFCURVE",
"484 245 CURVE SMOOTH",
"484 316 OFFCURVE",
"444 373 OFFCURVE",
"348 373 CURVE SMOOTH",
"205 373 OFFCURVE",
"156 295 OFFCURVE",
"112 224 CURVE",
"167 431 OFFCURVE",
"284 511 OFFCURVE",
"343 537 CURVE SMOOTH",
"356 542 OFFCURVE",
"381 551 OFFCURVE",
"404 551 CURVE SMOOTH",
"433 551 OFFCURVE",
"459 538 OFFCURVE",
"454 491 CURVE SMOOTH",
"453 479 OFFCURVE",
"460 474 OFFCURVE",
"468 474 CURVE SMOOTH",
"477 474 OFFCURVE",
"487 480 OFFCURVE",
"489 491 CURVE SMOOTH",
"491 499 OFFCURVE",
"491 507 OFFCURVE",
"491 514 CURVE SMOOTH",
"491 571 OFFCURVE",
"443 592 OFFCURVE",
"388 592 CURVE SMOOTH",
"357 592 OFFCURVE",
"324 586 OFFCURVE",
"296 576 CURVE SMOOTH",
"220 551 OFFCURVE",
"113 426 OFFCURVE",
"81 333 CURVE SMOOTH",
"57 263 OFFCURVE",
"46 207 OFFCURVE",
"46 160 CURVE SMOOTH",
"46 108 OFFCURVE",
"59 65 OFFCURVE",
"83 24 CURVE SMOOTH",
"111 -23 OFFCURVE",
"170 -34 OFFCURVE",
"214 -34 CURVE SMOOTH"
);
},
{
closed = 1;
nodes = (
"323 52 OFFCURVE",
"254 6 OFFCURVE",
"202 6 CURVE SMOOTH",
"155 6 OFFCURVE",
"122 42 OFFCURVE",
"122 102 CURVE SMOOTH",
"122 138 OFFCURVE",
"134 183 OFFCURVE",
"164 233 CURVE SMOOTH",
"208 307 OFFCURVE",
"270 341 OFFCURVE",
"320 341 CURVE SMOOTH",
"367 341 OFFCURVE",
"404 310 OFFCURVE",
"404 254 CURVE SMOOTH",
"404 228 OFFCURVE",
"396 198 OFFCURVE",
"379 163 CURVE SMOOTH"
);
}
);
width = 536;
}
);
note = six;
unicode = 0036;
},
{
glyphname = seven;
lastChange = "2021-04-16 08:59:06 +0000";
layers = (
{
hints = (
{
horizontal = 1;
place = "{627, 44}";
type = Stem;
},
{
place = "{107, 50}";
type = Stem;
},
{
place = "{100, 91}";
type = Stem;
},
{
horizontal = 1;
place = "{-55, 45}";
type = Stem;
}
);
layerId = "5B1D346E-B0E2-499B-AAFE-AE2E263C1006";
paths = (
{
closed = 1;
nodes = (
"112 -138 OFFCURVE",
"121 -139 OFFCURVE",
"131 -139 CURVE SMOOTH",
"144 -139 OFFCURVE",
"159 -136 OFFCURVE",
"168 -130 CURVE",
"179 -121 OFFCURVE",
"189 -108 OFFCURVE",
"189 -101 CURVE SMOOTH",
"189 -97 OFFCURVE",
"186 -94 OFFCURVE",
"179 -94 CURVE SMOOTH",
"169 -94 OFFCURVE",
"159 -107 OFFCURVE",
"146 -107 CURVE SMOOTH",
"143 -107 OFFCURVE",
"141 -106 OFFCURVE",
"138 -105 CURVE",
"133 -101 OFFCURVE",
"130 -93 OFFCURVE",
"130 -83 CURVE SMOOTH",
"130 -52 OFFCURVE",
"153 3 OFFCURVE",
"204 72 CURVE SMOOTH",
"331 244 OFFCURVE",
"502 442 OFFCURVE",
"583 520 CURVE",
"606 571 OFFCURVE",
"389 587 OFFCURVE",
"290 587 CURVE SMOOTH",
"194 587 OFFCURVE",
"73 554 OFFCURVE",
"73 452 CURVE SMOOTH",
"73 441 OFFCURVE",
"74 430 OFFCURVE",
"77 417 CURVE SMOOTH",
"82 398 OFFCURVE",
"86 390 OFFCURVE",
"90 390 CURVE SMOOTH",
"100 390 OFFCURVE",
"110 438 OFFCURVE",
"119 467 CURVE SMOOTH",
"133 511 OFFCURVE",
"253 529 OFFCURVE",
"349 529 CURVE SMOOTH",
"399 529 OFFCURVE",
"443 524 OFFCURVE",
"462 516 CURVE",
"462 516 OFFCURVE",
"205 188 OFFCURVE",
"119 50 CURVE SMOOTH",
"82 -10 OFFCURVE",
"69 -50 OFFCURVE",
"69 -76 CURVE SMOOTH",
"69 -111 OFFCURVE",
"90 -124 OFFCURVE",
"108 -135 CURVE SMOOTH"
);
}
);
width = 561;
}
);
note = seven;
unicode = 0037;
},
{
glyphname = eight;
lastChange = "2021-04-16 08:59:06 +0000";
layers = (
{
hints = (
{
horizontal = 1;
place = "{-25, 33}";
type = Stem;
},
{
horizontal = 1;
place = "{635, 46}";
type = Stem;
},
{
place = "{3, 60}";
type = Stem;
},
{
place = "{217, 71}";
type = Stem;
},
{
place = "{440, 78}";
type = Stem;
},
{
place = "{549, 53}";
type = Stem;
}
);
layerId = "5B1D346E-B0E2-499B-AAFE-AE2E263C1006";
paths = (
{
closed = 1;
nodes = (
"327 8 OFFCURVE",
"450 115 OFFCURVE",
"450 210 CURVE SMOOTH",
"450 248 OFFCURVE",
"430 285 OFFCURVE",
"379 313 CURVE SMOOTH",
"340 334 OFFCURVE",
"305 346 OFFCURVE",
"276 359 CURVE",
"284 365 OFFCURVE",
"293 369 OFFCURVE",
"303 375 CURVE SMOOTH",
"395 426 OFFCURVE",
"494 470 OFFCURVE",
"566 510 CURVE",
"579 516 OFFCURVE",
"585 522 OFFCURVE",
"585 527 CURVE SMOOTH",
"585 532 OFFCURVE",
"580 535 OFFCURVE",
"571 535 CURVE SMOOTH",
"561 535 OFFCURVE",
"547 532 OFFCURVE",
"529 523 CURVE SMOOTH",
"430 476 OFFCURVE",
"348 435 OFFCURVE",
"280 397 CURVE SMOOTH",
"265 388 OFFCURVE",
"252 381 OFFCURVE",
"239 375 CURVE",
"230 380 OFFCURVE",
"216 393 OFFCURVE",
"208 404 CURVE SMOOTH",
"200 414 OFFCURVE",
"196 425 OFFCURVE",
"196 435 CURVE SMOOTH",
"196 485 OFFCURVE",
"280 531 OFFCURVE",
"357 531 CURVE SMOOTH",
"370 531 OFFCURVE",
"382 530 OFFCURVE",
"394 527 CURVE SMOOTH",
"413 523 OFFCURVE",
"417 517 OFFCURVE",
"417 510 CURVE SMOOTH",
"417 504 OFFCURVE",
"413 497 OFFCURVE",
"413 492 CURVE SMOOTH",
"413 489 OFFCURVE",
"415 487 OFFCURVE",
"419 485 CURVE",
"420 485 LINE SMOOTH",
"441 485 OFFCURVE",
"465 506 OFFCURVE",
"465 531 CURVE SMOOTH",
"465 545 OFFCURVE",
"457 560 OFFCURVE",
"437 573 CURVE SMOOTH",
"424 581 OFFCURVE",
"407 584 OFFCURVE",
"386 584 CURVE SMOOTH",
"286 584 OFFCURVE",
"117 505 OFFCURVE",
"117 422 CURVE SMOOTH",
"117 412 OFFCURVE",
"120 401 OFFCURVE",
"126 390 CURVE SMOOTH",
"136 375 OFFCURVE",
"161 360 OFFCURVE",
"190 345 CURVE",
"41 251 OFFCURVE",
"-14 180 OFFCURVE",
"-20 96 CURVE SMOOTH",
"-24 6 OFFCURVE",
"70 -27 OFFCURVE",
"152 -27 CURVE SMOOTH",
"174 -27 OFFCURVE",
"196 -25 OFFCURVE",
"214 -20 CURVE SMOOTH"
);
},
{
closed = 1;
nodes = (
"173 3 OFFCURVE",
"163 2 OFFCURVE",
"152 2 CURVE SMOOTH",
"105 2 OFFCURVE",
"55 29 OFFCURVE",
"55 91 CURVE SMOOTH",
"55 101 OFFCURVE",
"57 111 OFFCURVE",
"59 122 CURVE SMOOTH",
"76 199 OFFCURVE",
"140 267 OFFCURVE",
"226 328 CURVE",
"253 316 OFFCURVE",
"281 302 OFFCURVE",
"309 286 CURVE SMOOTH",
"346 266 OFFCURVE",
"364 231 OFFCURVE",
"364 193 CURVE SMOOTH",
"364 121 OFFCURVE",
"301 35 OFFCURVE",
"183 6 CURVE SMOOTH"
);
}
);
width = 550;
}
);
note = eight;
unicode = 0038;
},
{
glyphname = nine;
lastChange = "2021-04-16 08:59:06 +0000";
layers = (
{
hints = (
{
horizontal = 1;
place = "{237, 54}";
type = Stem;
},
{
horizontal = 1;
place = "{622, 42}";
type = Stem;
},
{
place = "{215, 37}";
type = Stem;
},
{
place = "{454, 30}";
type = Stem;
}
);
layerId = "5B1D346E-B0E2-499B-AAFE-AE2E263C1006";
paths = (
{
closed = 1;
nodes = (
"265 -62 OFFCURVE",
"269 -56 OFFCURVE",
"269 -51 CURVE SMOOTH",
"269 -44 OFFCURVE",
"263 -38 OFFCURVE",
"252 -38 CURVE SMOOTH",
"251 -38 OFFCURVE",
"250 -38 OFFCURVE",
"248 -38 CURVE SMOOTH",
"237 -40 OFFCURVE",
"232 -47 OFFCURVE",
"224 -47 CURVE SMOOTH",
"221 -47 OFFCURVE",
"218 -46 OFFCURVE",
"214 -44 CURVE SMOOTH",
"206 -40 OFFCURVE",
"203 -32 OFFCURVE",
"203 -22 CURVE SMOOTH",
"203 26 OFFCURVE",
"276 130 OFFCURVE",
"320 187 CURVE SMOOTH",
"390 277 OFFCURVE",
"441 347 OFFCURVE",
"457 367 CURVE SMOOTH",
"467 380 OFFCURVE",
"471 393 OFFCURVE",
"471 405 CURVE SMOOTH",
"471 441 OFFCURVE",
"434 470 OFFCURVE",
"421 468 CURVE",
"389 459 OFFCURVE",
"348 436 OFFCURVE",
"225 356 CURVE SMOOTH",
"187 331 OFFCURVE",
"102 286 OFFCURVE",
"71 286 CURVE SMOOTH",
"62 286 OFFCURVE",
"57 290 OFFCURVE",
"60 300 CURVE SMOOTH",
"74 347 OFFCURVE",
"174 454 OFFCURVE",
"246 502 CURVE SMOOTH",
"290 532 OFFCURVE",
"331 546 OFFCURVE",
"361 546 CURVE SMOOTH",
"394 546 OFFCURVE",
"415 529 OFFCURVE",
"415 500 CURVE",
"416 493 OFFCURVE",
"405 487 OFFCURVE",
"405 482 CURVE SMOOTH",
"405 480 OFFCURVE",
"406 478 OFFCURVE",
"411 477 CURVE SMOOTH",
"415 476 OFFCURVE",
"418 476 OFFCURVE",
"420 476 CURVE SMOOTH",
"430 476 OFFCURVE",
"433 482 OFFCURVE",
"440 488 CURVE",
"443 493 OFFCURVE",
"447 504 OFFCURVE",
"447 516 CURVE SMOOTH",
"447 538 OFFCURVE",
"434 564 OFFCURVE",
"381 579 CURVE SMOOTH",
"362 584 OFFCURVE",
"342 587 OFFCURVE",
"322 587 CURVE SMOOTH",
"270 587 OFFCURVE",
"217 568 OFFCURVE",
"170 534 CURVE SMOOTH",
"54 447 OFFCURVE",
"9 386 OFFCURVE",
"-11 290 CURVE SMOOTH",
"-17 259 OFFCURVE",
"22 241 OFFCURVE",
"55 241 CURVE SMOOTH",
"63 241 OFFCURVE",
"71 243 OFFCURVE",
"78 245 CURVE SMOOTH",
"186 287 OFFCURVE",
"305 361 OFFCURVE",
"388 411 CURVE",
"357 366 OFFCURVE",
"257 219 OFFCURVE",
"245 198 CURVE",
"182 105 OFFCURVE",
"160 43 OFFCURVE",
"160 2 CURVE SMOOTH",
"160 -33 OFFCURVE",
"176 -54 OFFCURVE",
"197 -66 CURVE SMOOTH",
"206 -70 OFFCURVE",
"219 -73 OFFCURVE",
"231 -73 CURVE SMOOTH",
"241 -73 OFFCURVE",
"251 -71 OFFCURVE",
"257 -67 CURVE SMOOTH"
);
}
);
width = 502;
}
);
note = nine;
unicode = 0039;
},
{
glyphname = onesuperior;
lastChange = "2021-08-19 04:56:13 +0000";
layers = (
{
hints = (
{
horizontal = 1;
place = "{283, 12.5}";
type = Stem;
},
{
place = "{35.5, 22}";
type = Stem;
}
);
layerId = "5B1D346E-B0E2-499B-AAFE-AE2E263C1006";
paths = (
{
closed = 1;
nodes = (
"55 267 OFFCURVE",
"145 273 OFFCURVE",
"196 274 CURVE SMOOTH",
"203 274 OFFCURVE",
"207 286 OFFCURVE",
"207 290 CURVE SMOOTH",
"207 292 OFFCURVE",
"206 294 OFFCURVE",
"203 294 CURVE SMOOTH",
"126 293 LINE",
"126 305 OFFCURVE",
"128 320 OFFCURVE",
"138 348 CURVE SMOOTH",
"160 406 OFFCURVE",
"212 486 OFFCURVE",
"237 518 CURVE SMOOTH",
"253 539 OFFCURVE",
"260 550 OFFCURVE",
"263 556 CURVE",
"266 565 OFFCURVE",
"251 569 OFFCURVE",
"242 569 CURVE SMOOTH",
"232 569 OFFCURVE",
"219 565 OFFCURVE",
"211 560 CURVE SMOOTH",
"202 554 OFFCURVE",
"138 499 OFFCURVE",
"103 480 CURVE",
"98 477 OFFCURVE",
"96 474 OFFCURVE",
"96 472 CURVE SMOOTH",
"96 463 OFFCURVE",
"112 467 OFFCURVE",
"116 469 CURVE SMOOTH",
"121 472 OFFCURVE",
"172 500 OFFCURVE",
"180 504 CURVE",
"145 459 OFFCURVE",
"111 385 OFFCURVE",
"101 356 CURVE SMOOTH",
"93 334 OFFCURVE",
"84 309 OFFCURVE",
"85 294 CURVE",
"53 294 LINE SMOOTH",
"44 294 OFFCURVE",
"25 278 OFFCURVE",
"25 272 CURVE SMOOTH",
"25 269 OFFCURVE",
"29 267 OFFCURVE",
"40 267 CURVE SMOOTH"
);
}
);
width = 288;
}
);
unicode = 00B9;
},
{
glyphname = twosuperior;
lastChange = "2021-08-19 04:56:18 +0000";
layers = (
{
hints = (
{
horizontal = 1;
place = "{522, 17}";
type = Stem;
}
);
layerId = "5B1D346E-B0E2-499B-AAFE-AE2E263C1006";
paths = (
{
closed = 1;
nodes = (
"306 249 OFFCURVE",
"325 276 OFFCURVE",
"323 311 CURVE",
"321 313 OFFCURVE",
"320 314 OFFCURVE",
"319 314 CURVE SMOOTH",
"313 314 OFFCURVE",
"305 291 OFFCURVE",
"246 291 CURVE SMOOTH",
"241 291 OFFCURVE",
"234 292 OFFCURVE",
"227 292 CURVE SMOOTH",
"193 295 OFFCURVE",
"154 303 OFFCURVE",
"143 310 CURVE",
"173 329 OFFCURVE",
"284 390 OFFCURVE",
"321 475 CURVE SMOOTH",
"327 488 OFFCURVE",
"328 500 OFFCURVE",
"328 510 CURVE SMOOTH",
"328 550 OFFCURVE",
"285 573 OFFCURVE",
"241 574 CURVE SMOOTH",
"161 574 OFFCURVE",
"128 547 OFFCURVE",
"109 517 CURVE SMOOTH",
"104 510 OFFCURVE",
"102 504 OFFCURVE",
"102 497 CURVE SMOOTH",
"102 483 OFFCURVE",
"113 473 OFFCURVE",
"134 473 CURVE SMOOTH",
"146 472 OFFCURVE",
"152 476 OFFCURVE",
"152 479 CURVE",
"152 530 OFFCURVE",
"183 556 OFFCURVE",
"231 556 CURVE SMOOTH",
"260 556 OFFCURVE",
"277 529 OFFCURVE",
"277 502 CURVE SMOOTH",
"277 492 OFFCURVE",
"275 482 OFFCURVE",
"271 473 CURVE SMOOTH",
"230 386 OFFCURVE",
"160 346 OFFCURVE",
"131 325 CURVE",
"99 356 OFFCURVE",
"77 363 OFFCURVE",
"62 363 CURVE SMOOTH",
"55 363 OFFCURVE",
"49 362 OFFCURVE",
"45 360 CURVE",
"33 355 OFFCURVE",
"25 336 OFFCURVE",
"25 317 CURVE SMOOTH",
"25 300 OFFCURVE",
"32 283 OFFCURVE",
"48 275 CURVE",
"53 274 OFFCURVE",
"58 273 OFFCURVE",
"63 273 CURVE SMOOTH",
"83 273 OFFCURVE",
"108 283 OFFCURVE",
"131 300 CURVE",
"142 293 OFFCURVE",
"181 249 OFFCURVE",
"241 249 CURVE SMOOTH"
);
},
{
closed = 1;
nodes = (
"61 303 OFFCURVE",
"57 309 OFFCURVE",
"57 316 CURVE SMOOTH",
"57 319 OFFCURVE",
"57 322 OFFCURVE",
"60 325 CURVE SMOOTH",
"63 329 OFFCURVE",
"68 333 OFFCURVE",
"76 333 CURVE SMOOTH",
"85 333 OFFCURVE",
"98 328 OFFCURVE",
"116 312 CURVE",
"107 305 OFFCURVE",
"93 298 OFFCURVE",
"81 298 CURVE SMOOTH",
"78 298 OFFCURVE",
"74 298 OFFCURVE",
"72 300 CURVE"
);
}
);
width = 378;
}
);
unicode = 00B2;
},
{
glyphname = threesuperior;
lastChange = "2021-08-19 04:56:08 +0000";
layers = (
{
hints = (
{
horizontal = 1;
place = "{395.5, 12.5}";
type = Stem;
},
{
horizontal = 1;
place = "{538, 13}";
type = Stem;
}
);
layerId = "5B1D346E-B0E2-499B-AAFE-AE2E263C1006";
paths = (
{
closed = 1;
nodes = (
"50 219 OFFCURVE",
"312 243 OFFCURVE",
"312 362 CURVE SMOOTH",
"312 395 OFFCURVE",
"294 415 OFFCURVE",
"262 427 CURVE",
"291 438 OFFCURVE",
"320 465 OFFCURVE",
"320 509 CURVE SMOOTH",
"320 555 OFFCURVE",
"277 575 OFFCURVE",
"215 575 CURVE SMOOTH",
"155 575 OFFCURVE",
"105 551 OFFCURVE",
"105 514 CURVE SMOOTH",
"105 492 OFFCURVE",
"114 480 OFFCURVE",
"139 480 CURVE",
"152 482 OFFCURVE",
"141 484 OFFCURVE",
"141 507 CURVE SMOOTH",
"141 535 OFFCURVE",
"174 558 OFFCURVE",
"212 558 CURVE SMOOTH",
"248 558 OFFCURVE",
"279 536 OFFCURVE",
"279 503 CURVE SMOOTH",
"279 479 OFFCURVE",
"260 449 OFFCURVE",
"240 441 CURVE",
"232 444 OFFCURVE",
"197 449 OFFCURVE",
"180 449 CURVE SMOOTH",
"166 449 OFFCURVE",
"154 445 OFFCURVE",
"151 435 CURVE SMOOTH",
"150 433 OFFCURVE",
"150 432 OFFCURVE",
"150 430 CURVE SMOOTH",
"150 417 OFFCURVE",
"168 412 OFFCURVE",
"178 412 CURVE SMOOTH",
"193 412 OFFCURVE",
"209 414 OFFCURVE",
"230 420 CURVE",
"247 407 OFFCURVE",
"259 389 OFFCURVE",
"259 366 CURVE SMOOTH",
"259 319 OFFCURVE",
"214 276 OFFCURVE",
"149 276 CURVE SMOOTH",
"115 276 OFFCURVE",
"81 297 OFFCURVE",
"81 327 CURVE SMOOTH",
"81 329 OFFCURVE",
"81 331 OFFCURVE",
"82 333 CURVE SMOOTH",
"85 345 OFFCURVE",
"93 354 OFFCURVE",
"102 354 CURVE",
"105 354 OFFCURVE",
"107 353 OFFCURVE",
"109 353 CURVE SMOOTH",
"114 353 OFFCURVE",
"116 355 OFFCURVE",
"116 357 CURVE SMOOTH",
"116 360 OFFCURVE",
"111 364 OFFCURVE",
"106 364 CURVE",
"102 365 OFFCURVE",
"97 365 OFFCURVE",
"93 365 CURVE SMOOTH",
"72 365 OFFCURVE",
"50 354 OFFCURVE",
"50 329 CURVE SMOOTH"
);
}
);
width = 370;
}
);
unicode = 00B3;
},
{
glyphname = foursuperior;
lastChange = "2021-08-19 04:57:29 +0000";
layers = (
{
hints = (
{
horizontal = 1;
place = "{381, 11.5}";
type = Stem;
}
);
layerId = "5B1D346E-B0E2-499B-AAFE-AE2E263C1006";
paths = (
{
closed = 1;
nodes = (
"183 254 OFFCURVE",
"214 254 OFFCURVE",
"214 272 CURVE SMOOTH",
"214 279 OFFCURVE",
"203 272 OFFCURVE",
"196 279 CURVE SMOOTH",
"190 285 OFFCURVE",
"188 291 OFFCURVE",
"188 299 CURVE SMOOTH",
"188 314 OFFCURVE",
"190 331 OFFCURVE",
"196 347 CURVE SMOOTH",
"203 364 OFFCURVE",
"209 381 OFFCURVE",
"212 388 CURVE",
"247 389 OFFCURVE",
"261 391 OFFCURVE",
"286 393 CURVE SMOOTH",
"295 394 OFFCURVE",
"306 407 OFFCURVE",
"306 411 CURVE SMOOTH",
"306 414 OFFCURVE",
"303 417 OFFCURVE",
"295 416 CURVE SMOOTH",
"277 413 OFFCURVE",
"247 407 OFFCURVE",
"224 407 CURVE",
"262 489 OFFCURVE",
"280 539 OFFCURVE",
"292 557 CURVE",
"296 571 OFFCURVE",
"278 577 OFFCURVE",
"261 577 CURVE SMOOTH",
"253 577 OFFCURVE",
"239 575 OFFCURVE",
"234 573 CURVE",
"195 545 OFFCURVE",
"164 517 OFFCURVE",
"129 491 CURVE SMOOTH",
"97 466 OFFCURVE",
"62 443 OFFCURVE",
"27 413 CURVE",
"26 412 OFFCURVE",
"25 411 OFFCURVE",
"25 409 CURVE SMOOTH",
"25 401 OFFCURVE",
"42 379 OFFCURVE",
"51 380 CURVE SMOOTH",
"88 382 OFFCURVE",
"128 384 OFFCURVE",
"172 385 CURVE",
"165 367 OFFCURVE",
"154 322 OFFCURVE",
"154 301 CURVE SMOOTH",
"154 276 OFFCURVE",
"163 264 OFFCURVE",
"175 258 CURVE SMOOTH"
);
},
{
closed = 1;
nodes = (
"157 405 OFFCURVE",
"136 404 OFFCURVE",
"120 404 CURVE SMOOTH",
"101 404 OFFCURVE",
"88 405 OFFCURVE",
"88 409 CURVE SMOOTH",
"88 415 OFFCURVE",
"96 421 OFFCURVE",
"97 422 CURVE SMOOTH",
"121 443 OFFCURVE",
"148 462 OFFCURVE",
"174 481 CURVE SMOOTH",
"200 501 OFFCURVE",
"227 524 OFFCURVE",
"234 529 CURVE",
"221 501 OFFCURVE",
"211 469 OFFCURVE",
"182 406 CURVE"
);
}
);
width = 331;
}
);
unicode = 2074;
},
{
glyphname = fraction;
lastChange = "2021-04-16 08:59:06 +0000";
layers = (
{
hints = (
{
horizontal = 1;
place = "{581, -20}";
target = down;
type = TopGhost;
},
{
place = "{-28, 581}";
type = Stem;
}
);
layerId = "5B1D346E-B0E2-499B-AAFE-AE2E263C1006";
paths = (
{
closed = 1;
nodes = (
"283 252 OFFCURVE",
"281 266 OFFCURVE",
"541 541 CURVE",
"547 545 OFFCURVE",
"553 560 OFFCURVE",
"553 570 CURVE SMOOTH",
"553 576 OFFCURVE",
"551 581 OFFCURVE",
"546 581 CURVE SMOOTH",
"543 581 OFFCURVE",
"537 578 OFFCURVE",
"529 570 CURVE SMOOTH",
"262 312 OFFCURVE",
"230 263 OFFCURVE",
"-25 -9 CURVE SMOOTH",
"-27 -12 OFFCURVE",
"-29 -15 OFFCURVE",
"-29 -18 CURVE SMOOTH",
"-29 -28 OFFCURVE",
"-18 -39 OFFCURVE",
"-4 -39 CURVE SMOOTH",
"4 -39 OFFCURVE",
"14 -35 OFFCURVE",
"23 -25 CURVE SMOOTH"
);
}
);
width = 542;
}
);
note = fraction;
unicode = 2044;
},
{
glyphname = period;
lastChange = "2021-04-16 08:59:06 +0000";
layers = (
{
hints = (
{
horizontal = 1;
place = "{-10, 58}";
type = Stem;
},
{
place = "{140, 131}";
type = Stem;
}
);
layerId = "5B1D346E-B0E2-499B-AAFE-AE2E263C1006";
paths = (
{
closed = 1;
nodes = (
"198 -10 OFFCURVE",
"279 5 OFFCURVE",
"271 15 CURVE",
"260 34 OFFCURVE",
"250 48 OFFCURVE",
"221 48 CURVE SMOOTH",
"204 48 OFFCURVE",
"179 44 OFFCURVE",
"143 32 CURVE",
"128 29 OFFCURVE",
"167 -10 OFFCURVE",
"184 -10 CURVE SMOOTH"
);
}
);
width = 303;
}
);
note = period;
unicode = 002E;
},
{
glyphname = comma;
lastChange = "2021-04-16 08:59:06 +0000";
layers = (
{
hints = (
{
horizontal = 1;
place = "{-131, 185}";
type = Stem;
},
{
place = "{119, 90}";
type = Stem;
}
);
layerId = "5B1D346E-B0E2-499B-AAFE-AE2E263C1006";
paths = (
{
closed = 1;
nodes = (
"45 -130 LINE",
"179 -97 OFFCURVE",
"201 -32 OFFCURVE",
"209 3 CURVE",
"212 36 OFFCURVE",
"155 54 OFFCURVE",
"120 54 CURVE SMOOTH",
"103 54 OFFCURVE",
"91 50 OFFCURVE",
"91 42 CURVE SMOOTH",
"91 38 OFFCURVE",
"94 33 OFFCURVE",
"102 27 CURVE SMOOTH",
"114 17 OFFCURVE",
"119 6 OFFCURVE",
"119 -7 CURVE SMOOTH",
"119 -62 OFFCURVE",
"25 -136 OFFCURVE",
"46 -131 CURVE"
);
}
);
width = 286;
}
);
note = comma;
unicode = 002C;
},
{
glyphname = colon;
lastChange = "2021-04-16 08:59:06 +0000";
layers = (
{
hints = (
{
horizontal = 1;
place = "{13, 59}";
type = Stem;
},
{
horizontal = 1;
place = "{186, 60}";
type = Stem;
},
{
place = "{191, 175}";
type = Stem;
}
);
layerId = "5B1D346E-B0E2-499B-AAFE-AE2E263C1006";
paths = (
{
closed = 1;
nodes = (
"293 186 OFFCURVE",
"373 202 OFFCURVE",
"366 213 CURVE SMOOTH",
"355 232 OFFCURVE",
"347 246 OFFCURVE",
"317 246 CURVE SMOOTH",
"299 246 OFFCURVE",
"274 241 OFFCURVE",
"238 230 CURVE SMOOTH",
"223 225 OFFCURVE",
"263 186 OFFCURVE",
"279 186 CURVE SMOOTH"
);
},
{
closed = 1;
nodes = (
"249 13 OFFCURVE",
"330 29 OFFCURVE",
"322 39 CURVE",
"311 58 OFFCURVE",
"303 72 OFFCURVE",
"274 72 CURVE SMOOTH",
"256 72 OFFCURVE",
"232 68 OFFCURVE",
"194 56 CURVE",
"179 53 OFFCURVE",
"218 13 OFFCURVE",
"237 13 CURVE SMOOTH"
);
}
);
width = 467;
}
);
note = colon;
unicode = 003A;
},
{
glyphname = semicolon;
lastChange = "2021-04-16 08:59:06 +0000";
layers = (
{
hints = (
{
horizontal = 1;
place = "{186, 60}";
type = Stem;
},
{
place = "{210, 91}";
type = Stem;
}
);
layerId = "5B1D346E-B0E2-499B-AAFE-AE2E263C1006";
paths = (
{
closed = 1;
nodes = (
"270 -97 OFFCURVE",
"293 -32 OFFCURVE",
"301 3 CURVE",
"303 36 OFFCURVE",
"246 54 OFFCURVE",
"210 54 CURVE SMOOTH",
"194 54 OFFCURVE",
"182 50 OFFCURVE",
"182 43 CURVE SMOOTH",
"182 39 OFFCURVE",
"185 33 OFFCURVE",
"193 27 CURVE SMOOTH",
"205 18 OFFCURVE",
"210 6 OFFCURVE",
"210 -6 CURVE SMOOTH",
"210 -61 OFFCURVE",
"115 -135 OFFCURVE",
"135 -130 CURVE SMOOTH"
);
},
{
closed = 1;
nodes = (
"293 186 OFFCURVE",
"373 202 OFFCURVE",
"366 213 CURVE SMOOTH",
"355 232 OFFCURVE",
"347 246 OFFCURVE",
"317 246 CURVE SMOOTH",
"299 246 OFFCURVE",
"274 241 OFFCURVE",
"238 230 CURVE SMOOTH",
"223 225 OFFCURVE",
"263 186 OFFCURVE",
"279 186 CURVE SMOOTH"
);
}
);
width = 342;
}
);
note = semicolon;
unicode = 003B;
},
{
glyphname = ellipsis;
lastChange = "2021-04-16 08:59:06 +0000";
layers = (
{
hints = (
{
horizontal = 1;
place = "{-10, 58}";
type = Stem;
},
{
place = "{82, 578}";
type = Stem;
}
);
layerId = "5B1D346E-B0E2-499B-AAFE-AE2E263C1006";
paths = (
{
closed = 1;
nodes = (
"359 -10 OFFCURVE",
"440 5 OFFCURVE",
"432 15 CURVE",
"421 34 OFFCURVE",
"411 48 OFFCURVE",
"382 48 CURVE SMOOTH",
"365 48 OFFCURVE",
"340 44 OFFCURVE",
"304 32 CURVE",
"289 29 OFFCURVE",
"328 -10 OFFCURVE",
"345 -10 CURVE SMOOTH"
);
},
{
closed = 1;
nodes = (
"140 -10 OFFCURVE",
"221 5 OFFCURVE",
"213 15 CURVE",
"202 34 OFFCURVE",
"192 48 OFFCURVE",
"163 48 CURVE SMOOTH",
"146 48 OFFCURVE",
"121 44 OFFCURVE",
"85 32 CURVE",
"70 29 OFFCURVE",
"109 -10 OFFCURVE",
"126 -10 CURVE SMOOTH"
);
},
{
closed = 1;
nodes = (
"587 -10 OFFCURVE",
"668 5 OFFCURVE",
"660 15 CURVE",
"649 34 OFFCURVE",
"639 48 OFFCURVE",
"610 48 CURVE SMOOTH",
"593 48 OFFCURVE",
"568 44 OFFCURVE",
"532 32 CURVE",
"517 29 OFFCURVE",
"556 -10 OFFCURVE",
"573 -10 CURVE SMOOTH"
);
}
);
width = 699;
}
);
note = ellipsis;
unicode = 2026;
},
{
glyphname = exclam;
lastChange = "2021-04-16 08:59:06 +0000";
layers = (
{
hints = (
{
horizontal = 1;
place = "{-10, 58}";
type = Stem;
},
{
place = "{88, 317}";
type = Stem;
}
);
layerId = "5B1D346E-B0E2-499B-AAFE-AE2E263C1006";
paths = (
{
closed = 1;
nodes = (
"192 147 OFFCURVE",
"191 153 OFFCURVE",
"191 159 CURVE SMOOTH",
"191 279 OFFCURVE",
"405 366 OFFCURVE",
"405 460 CURVE SMOOTH",
"405 494 OFFCURVE",
"382 505 OFFCURVE",
"354 505 CURVE SMOOTH",
"306 505 OFFCURVE",
"244 475 OFFCURVE",
"253 459 CURVE SMOOTH",
"254 456 OFFCURVE",
"255 453 OFFCURVE",
"255 449 CURVE SMOOTH",
"255 405 OFFCURVE",
"159 290 OFFCURVE",
"159 210 CURVE SMOOTH",
"159 204 OFFCURVE",
"160 198 OFFCURVE",
"161 192 CURVE SMOOTH",
"171 145 OFFCURVE",
"182 133 OFFCURVE",
"188 133 CURVE SMOOTH",
"192 133 OFFCURVE",
"194 137 OFFCURVE",
"193 141 CURVE SMOOTH"
);
},
{
closed = 1;
nodes = (
"147 -10 OFFCURVE",
"226 5 OFFCURVE",
"218 15 CURVE",
"207 34 OFFCURVE",
"199 48 OFFCURVE",
"170 48 CURVE SMOOTH",
"152 48 OFFCURVE",
"128 44 OFFCURVE",
"91 32 CURVE",
"77 29 OFFCURVE",
"115 -10 OFFCURVE",
"134 -10 CURVE SMOOTH"
);
}
);
width = 342;
}
);
note = exclam;
unicode = 0021;
},
{
glyphname = exclamdown;
lastChange = "2021-04-16 08:59:06 +0000";
layers = (
{
hints = (
{
horizontal = 1;
place = "{207, 58}";
type = Stem;
},
{
place = "{7, 317}";
type = Stem;
}
);
layerId = "5B1D346E-B0E2-499B-AAFE-AE2E263C1006";
paths = (
{
closed = 1;
nodes = (
"15 -243 OFFCURVE",
"35 -250 OFFCURVE",
"58 -250 CURVE SMOOTH",
"106 -250 OFFCURVE",
"168 -220 OFFCURVE",
"159 -204 CURVE SMOOTH",
"158 -201 OFFCURVE",
"157 -198 OFFCURVE",
"157 -194 CURVE SMOOTH",
"157 -150 OFFCURVE",
"253 -35 OFFCURVE",
"253 45 CURVE SMOOTH",
"253 51 OFFCURVE",
"252 57 OFFCURVE",
"251 63 CURVE SMOOTH",
"241 110 OFFCURVE",
"230 122 OFFCURVE",
"224 122 CURVE SMOOTH",
"221 122 OFFCURVE",
"219 120 OFFCURVE",
"219 116 CURVE SMOOTH",
"219 109 OFFCURVE",
"221 103 OFFCURVE",
"221 96 CURVE SMOOTH",
"221 -24 OFFCURVE",
"7 -111 OFFCURVE",
"7 -205 CURVE SMOOTH",
"7 -211 OFFCURVE",
"7 -216 OFFCURVE",
"9 -222 CURVE SMOOTH"
);
},
{
closed = 1;
nodes = (
"335 226 OFFCURVE",
"297 265 OFFCURVE",
"278 265 CURVE SMOOTH",
"265 265 OFFCURVE",
"186 250 OFFCURVE",
"194 240 CURVE",
"205 221 OFFCURVE",
"213 207 OFFCURVE",
"242 207 CURVE SMOOTH",
"260 207 OFFCURVE",
"284 211 OFFCURVE",
"321 223 CURVE"
);
}
);
width = 342;
}
);
note = exclamdown;
unicode = 00A1;
},
{
glyphname = question;
lastChange = "2021-04-16 08:59:06 +0000";
layers = (
{
hints = (
{
horizontal = 1;
place = "{-10, 58}";
type = Stem;
},
{
horizontal = 1;
place = "{561, 23}";
type = Stem;
},
{
place = "{57, 74}";
type = Stem;
},
{
place = "{206, 27}";
type = Stem;
},
{
place = "{492, 151}";
type = Stem;
}
);
layerId = "5B1D346E-B0E2-499B-AAFE-AE2E263C1006";
paths = (
{
closed = 1;
nodes = (
"270 170 OFFCURVE",
"272 172 OFFCURVE",
"272 174 CURVE SMOOTH",
"272 182 OFFCURVE",
"233 190 OFFCURVE",
"233 214 CURVE SMOOTH",
"233 231 OFFCURVE",
"254 256 OFFCURVE",
"327 294 CURVE SMOOTH",
"430 347 OFFCURVE",
"619 401 OFFCURVE",
"635 442 CURVE SMOOTH",
"640 455 OFFCURVE",
"643 467 OFFCURVE",
"643 478 CURVE SMOOTH",
"643 553 OFFCURVE",
"532 584 OFFCURVE",
"407 584 CURVE SMOOTH",
"286 584 OFFCURVE",
"152 555 OFFCURVE",
"87 509 CURVE SMOOTH",
"66 494 OFFCURVE",
"56 477 OFFCURVE",
"56 463 CURVE SMOOTH",
"56 438 OFFCURVE",
"84 418 OFFCURVE",
"128 418 CURVE SMOOTH",
"134 418 OFFCURVE",
"140 418 OFFCURVE",
"146 419 CURVE SMOOTH",
"168 421 OFFCURVE",
"131 421 OFFCURVE",
"131 447 CURVE SMOOTH",
"131 457 OFFCURVE",
"135 469 OFFCURVE",
"149 486 CURVE SMOOTH",
"188 534 OFFCURVE",
"276 561 OFFCURVE",
"353 561 CURVE SMOOTH",
"428 561 OFFCURVE",
"492 536 OFFCURVE",
"492 481 CURVE SMOOTH",
"492 472 OFFCURVE",
"490 463 OFFCURVE",
"487 453 CURVE SMOOTH",
"473 411 OFFCURVE",
"363 362 OFFCURVE",
"267 297 CURVE SMOOTH",
"222 266 OFFCURVE",
"206 237 OFFCURVE",
"206 214 CURVE SMOOTH",
"206 186 OFFCURVE",
"230 167 OFFCURVE",
"253 167 CURVE SMOOTH",
"256 167 OFFCURVE",
"259 167 OFFCURVE",
"262 168 CURVE SMOOTH"
);
},
{
closed = 1;
nodes = (
"227 -10 OFFCURVE",
"309 5 OFFCURVE",
"301 15 CURVE",
"289 34 OFFCURVE",
"280 48 OFFCURVE",
"251 48 CURVE SMOOTH",
"233 48 OFFCURVE",
"209 44 OFFCURVE",
"173 32 CURVE",
"158 29 OFFCURVE",
"197 -10 OFFCURVE",
"214 -10 CURVE SMOOTH"
);
}
);
width = 665;
}
);
note = question;
unicode = 003F;
},
{
glyphname = questiondown;
lastChange = "2021-04-16 08:59:06 +0000";
layers = (
{
hints = (
{
horizontal = 1;
place = "{-199, 23}";
type = Stem;
},
{
horizontal = 1;
place = "{337, 58}";
type = Stem;
},
{
place = "{-10, 151}";
type = Stem;
},
{
place = "{400, 27}";
type = Stem;
},
{
place = "{502, 74}";
type = Stem;
}
);
layerId = "5B1D346E-B0E2-499B-AAFE-AE2E263C1006";
paths = (
{
closed = 1;
nodes = (
"567 -109 OFFCURVE",
"577 -92 OFFCURVE",
"577 -78 CURVE SMOOTH",
"577 -53 OFFCURVE",
"549 -33 OFFCURVE",
"505 -33 CURVE SMOOTH",
"499 -33 OFFCURVE",
"493 -33 OFFCURVE",
"487 -34 CURVE SMOOTH",
"465 -36 OFFCURVE",
"502 -36 OFFCURVE",
"502 -62 CURVE SMOOTH",
"502 -72 OFFCURVE",
"498 -84 OFFCURVE",
"484 -101 CURVE SMOOTH",
"445 -149 OFFCURVE",
"357 -176 OFFCURVE",
"280 -176 CURVE SMOOTH",
"205 -176 OFFCURVE",
"141 -151 OFFCURVE",
"141 -96 CURVE SMOOTH",
"141 -87 OFFCURVE",
"143 -78 OFFCURVE",
"146 -68 CURVE SMOOTH",
"160 -26 OFFCURVE",
"270 23 OFFCURVE",
"366 88 CURVE SMOOTH",
"411 119 OFFCURVE",
"427 148 OFFCURVE",
"427 171 CURVE SMOOTH",
"427 199 OFFCURVE",
"403 218 OFFCURVE",
"380 218 CURVE SMOOTH",
"377 218 OFFCURVE",
"374 218 OFFCURVE",
"371 217 CURVE SMOOTH",
"363 215 OFFCURVE",
"361 213 OFFCURVE",
"361 211 CURVE SMOOTH",
"361 203 OFFCURVE",
"400 195 OFFCURVE",
"400 171 CURVE SMOOTH",
"400 154 OFFCURVE",
"379 129 OFFCURVE",
"306 91 CURVE SMOOTH",
"203 38 OFFCURVE",
"14 -16 OFFCURVE",
"-2 -57 CURVE SMOOTH",
"-7 -70 OFFCURVE",
"-10 -82 OFFCURVE",
"-10 -93 CURVE SMOOTH",
"-10 -168 OFFCURVE",
"101 -199 OFFCURVE",
"226 -199 CURVE SMOOTH",
"347 -199 OFFCURVE",
"481 -170 OFFCURVE",
"546 -124 CURVE SMOOTH"
);
},
{
closed = 1;
nodes = (
"475 356 OFFCURVE",
"436 395 OFFCURVE",
"419 395 CURVE SMOOTH",
"406 395 OFFCURVE",
"324 380 OFFCURVE",
"332 370 CURVE",
"344 351 OFFCURVE",
"353 337 OFFCURVE",
"382 337 CURVE SMOOTH",
"400 337 OFFCURVE",
"424 341 OFFCURVE",
"460 353 CURVE"
);
}
);
width = 665;
}
);
note = questiondown;
unicode = 00BF;
},
{
glyphname = bullet;
lastChange = "2021-04-16 08:59:06 +0000";
layers = (
{
hints = (
{
horizontal = 1;
place = "{131, 308}";
type = Stem;
},
{
place = "{103, 308}";
type = Stem;
}
);
layerId = "5B1D346E-B0E2-499B-AAFE-AE2E263C1006";
paths = (
{
closed = 1;
nodes = (
"342 131 OFFCURVE",
"411 200 OFFCURVE",
"411 285 CURVE SMOOTH",
"411 370 OFFCURVE",
"342 439 OFFCURVE",
"257 439 CURVE SMOOTH",
"172 439 OFFCURVE",
"103 370 OFFCURVE",
"103 285 CURVE SMOOTH",
"103 200 OFFCURVE",
"172 131 OFFCURVE",
"257 131 CURVE SMOOTH"
);
}
);
width = 508;
}
);
note = bullet;
unicode = 2022;
},
{
glyphname = asterisk;
lastChange = "2021-04-16 08:59:06 +0000";
layers = (
{
hints = (
{
horizontal = 1;
place = "{430, 46}";
type = Stem;
},
{
place = "{211, 34}";
type = Stem;
}
);
layerId = "5B1D346E-B0E2-499B-AAFE-AE2E263C1006";
paths = (
{
closed = 1;
nodes = (
"199 300 OFFCURVE",
"210 293 OFFCURVE",
"221 293 CURVE SMOOTH",
"233 293 OFFCURVE",
"245 301 OFFCURVE",
"245 317 CURVE SMOOTH",
"245 354 OFFCURVE",
"227 388 OFFCURVE",
"227 434 CURVE",
"259 400 OFFCURVE",
"275 367 OFFCURVE",
"301 341 CURVE SMOOTH",
"307 335 OFFCURVE",
"313 332 OFFCURVE",
"319 332 CURVE SMOOTH",
"331 332 OFFCURVE",
"341 344 OFFCURVE",
"341 356 CURVE SMOOTH",
"341 362 OFFCURVE",
"338 369 OFFCURVE",
"333 374 CURVE SMOOTH",
"307 400 OFFCURVE",
"271 413 OFFCURVE",
"236 444 CURVE",
"283 444 OFFCURVE",
"319 430 OFFCURVE",
"356 430 CURVE SMOOTH",
"373 430 OFFCURVE",
"381 441 OFFCURVE",
"381 452 CURVE SMOOTH",
"381 464 OFFCURVE",
"372 476 OFFCURVE",
"356 476 CURVE SMOOTH",
"319 476 OFFCURVE",
"283 455 OFFCURVE",
"234 455 CURVE",
"268 490 OFFCURVE",
"305 505 OFFCURVE",
"332 532 CURVE SMOOTH",
"338 538 OFFCURVE",
"340 544 OFFCURVE",
"340 549 CURVE SMOOTH",
"340 562 OFFCURVE",
"328 573 OFFCURVE",
"316 573 CURVE SMOOTH",
"310 573 OFFCURVE",
"304 570 OFFCURVE",
"299 565 CURVE SMOOTH",
"272 538 OFFCURVE",
"259 501 OFFCURVE",
"226 465 CURVE",
"226 511 OFFCURVE",
"245 548 OFFCURVE",
"245 585 CURVE SMOOTH",
"245 603 OFFCURVE",
"234 612 OFFCURVE",
"222 612 CURVE SMOOTH",
"211 612 OFFCURVE",
"199 603 OFFCURVE",
"199 585 CURVE SMOOTH",
"199 550 OFFCURVE",
"213 508 OFFCURVE",
"213 465 CURVE",
"185 497 OFFCURVE",
"170 538 OFFCURVE",
"145 563 CURVE SMOOTH",
"138 570 OFFCURVE",
"130 573 OFFCURVE",
"123 573 CURVE SMOOTH",
"111 573 OFFCURVE",
"101 563 OFFCURVE",
"101 551 CURVE SMOOTH",
"101 544 OFFCURVE",
"104 537 OFFCURVE",
"111 530 CURVE SMOOTH",
"137 505 OFFCURVE",
"172 486 OFFCURVE",
"204 457 CURVE",
"163 457 OFFCURVE",
"125 476 OFFCURVE",
"89 476 CURVE SMOOTH",
"71 476 OFFCURVE",
"62 465 OFFCURVE",
"62 453 CURVE SMOOTH",
"62 442 OFFCURVE",
"71 430 OFFCURVE",
"89 430 CURVE SMOOTH",
"126 430 OFFCURVE",
"164 445 OFFCURVE",
"205 445 CURVE",
"174 415 OFFCURVE",
"138 403 OFFCURVE",
"110 375 CURVE SMOOTH",
"103 368 OFFCURVE",
"101 361 OFFCURVE",
"101 355 CURVE SMOOTH",
"101 343 OFFCURVE",
"110 333 OFFCURVE",
"122 333 CURVE SMOOTH",
"129 333 OFFCURVE",
"136 336 OFFCURVE",
"143 343 CURVE SMOOTH",
"168 368 OFFCURVE",
"186 404 OFFCURVE",
"212 434 CURVE",
"212 388 OFFCURVE",
"199 354 OFFCURVE",
"199 317 CURVE SMOOTH"
);
}
);
width = 430;
}
);
note = asterisk;
unicode = 002A;
},
{
glyphname = numbersign;
lastChange = "2021-04-16 08:59:06 +0000";
layers = (
{
hints = (
{
horizontal = 1;
place = "{645, 21}";
target = up;
type = BottomGhost;
}
);
layerId = "5B1D346E-B0E2-499B-AAFE-AE2E263C1006";
paths = (
{
closed = 1;
nodes = (
"285 -24 OFFCURVE",
"296 -8 OFFCURVE",
"296 1 CURVE SMOOTH",
"296 6 OFFCURVE",
"293 9 OFFCURVE",
"289 9 CURVE SMOOTH",
"276 9 OFFCURVE",
"262 -18 OFFCURVE",
"223 -18 CURVE SMOOTH",
"213 -18 OFFCURVE",
"202 4 OFFCURVE",
"202 35 CURVE SMOOTH",
"202 55 OFFCURVE",
"206 80 OFFCURVE",
"217 105 CURVE SMOOTH",
"232 139 OFFCURVE",
"255 185 OFFCURVE",
"285 236 CURVE",
"356 238 OFFCURVE",
"436 241 OFFCURVE",
"513 245 CURVE",
"499 220 OFFCURVE",
"487 197 OFFCURVE",
"477 177 CURVE SMOOTH",
"446 113 OFFCURVE",
"430 71 OFFCURVE",
"430 42 CURVE SMOOTH",
"430 20 OFFCURVE",
"440 5 OFFCURVE",
"461 -6 CURVE SMOOTH",
"477 -15 OFFCURVE",
"493 -42 OFFCURVE",
"513 -42 CURVE SMOOTH",
"515 -42 OFFCURVE",
"518 -41 OFFCURVE",
"521 -40 CURVE SMOOTH",
"563 -24 OFFCURVE",
"574 -8 OFFCURVE",
"574 1 CURVE SMOOTH",
"574 6 OFFCURVE",
"571 9 OFFCURVE",
"567 9 CURVE SMOOTH",
"554 9 OFFCURVE",
"540 -18 OFFCURVE",
"502 -18 CURVE SMOOTH",
"491 -18 OFFCURVE",
"480 4 OFFCURVE",
"480 37 CURVE SMOOTH",
"480 57 OFFCURVE",
"484 80 OFFCURVE",
"495 105 CURVE SMOOTH",
"511 142 OFFCURVE",
"538 192 OFFCURVE",
"571 248 CURVE",
"663 253 OFFCURVE",
"747 260 OFFCURVE",
"803 265 CURVE SMOOTH",
"840 269 OFFCURVE",
"843 281 OFFCURVE",
"830 281 CURVE SMOOTH",
"812 282 OFFCURVE",
"779 282 OFFCURVE",
"738 282 CURVE SMOOTH",
"696 282 OFFCURVE",
"646 282 OFFCURVE",
"591 281 CURVE",
"618 324 OFFCURVE",
"649 370 OFFCURVE",
"682 415 CURVE",
"767 420 OFFCURVE",
"844 426 OFFCURVE",
"895 431 CURVE SMOOTH",
"933 435 OFFCURVE",
"935 448 OFFCURVE",
"923 448 CURVE SMOOTH",
"912 448 OFFCURVE",
"895 448 OFFCURVE",
"874 448 CURVE SMOOTH",
"831 448 OFFCURVE",
"772 448 OFFCURVE",
"706 448 CURVE",
"739 492 OFFCURVE",
"775 535 OFFCURVE",
"812 574 CURVE SMOOTH",
"868 635 OFFCURVE",
"893 644 OFFCURVE",
"898 654 CURVE",
"901 662 OFFCURVE",
"893 665 OFFCURVE",
"881 665 CURVE SMOOTH",
"849 665 OFFCURVE",
"783 644 OFFCURVE",
"766 630 CURVE SMOOTH",
"752 617 OFFCURVE",
"726 597 OFFCURVE",
"701 568 CURVE SMOOTH",
"692 557 OFFCURVE",
"746 586 OFFCURVE",
"734 572 CURVE SMOOTH",
"701 530 OFFCURVE",
"670 488 OFFCURVE",
"642 448 CURVE",
"570 447 OFFCURVE",
"494 446 OFFCURVE",
"426 446 CURVE",
"460 491 OFFCURVE",
"496 534 OFFCURVE",
"533 574 CURVE SMOOTH",
"596 642 OFFCURVE",
"620 645 OFFCURVE",
"620 657 CURVE SMOOTH",
"620 663 OFFCURVE",
"613 665 OFFCURVE",
"602 665 CURVE SMOOTH",
"571 665 OFFCURVE",
"505 644 OFFCURVE",
"488 630 CURVE SMOOTH",
"473 617 OFFCURVE",
"448 597 OFFCURVE",
"422 568 CURVE SMOOTH",
"413 557 OFFCURVE",
"467 586 OFFCURVE",
"455 572 CURVE SMOOTH",
"422 530 OFFCURVE",
"390 487 OFFCURVE",
"361 445 CURVE",
"266 445 OFFCURVE",
"197 444 OFFCURVE",
"197 444 CURVE",
"197 444 OFFCURVE",
"165 443 OFFCURVE",
"152 439 CURVE SMOOTH",
"137 434 OFFCURVE",
"130 428 OFFCURVE",
"130 422 CURVE SMOOTH",
"130 415 OFFCURVE",
"138 409 OFFCURVE",
"154 404 CURVE SMOOTH",
"162 402 OFFCURVE",
"191 400 OFFCURVE",
"233 400 CURVE SMOOTH",
"261 400 OFFCURVE",
"294 401 OFFCURVE",
"331 402 CURVE",
"302 358 OFFCURVE",
"276 316 OFFCURVE",
"254 279 CURVE",
"105 277 LINE",
"105 277 OFFCURVE",
"72 276 OFFCURVE",
"59 272 CURVE SMOOTH",
"44 267 OFFCURVE",
"37 261 OFFCURVE",
"37 255 CURVE SMOOTH",
"37 248 OFFCURVE",
"45 242 OFFCURVE",
"61 237 CURVE SMOOTH",
"69 235 OFFCURVE",
"94 234 OFFCURVE",
"132 234 CURVE SMOOTH",
"159 234 OFFCURVE",
"192 234 OFFCURVE",
"229 235 CURVE",
"217 213 OFFCURVE",
"207 194 OFFCURVE",
"199 177 CURVE SMOOTH",
"168 113 OFFCURVE",
"152 71 OFFCURVE",
"152 42 CURVE SMOOTH",
"152 20 OFFCURVE",
"162 5 OFFCURVE",
"182 -6 CURVE SMOOTH",
"198 -15 OFFCURVE",
"214 -42 OFFCURVE",
"234 -42 CURVE SMOOTH",
"237 -42 OFFCURVE",
"240 -41 OFFCURVE",
"243 -40 CURVE SMOOTH"
);
},
{
closed = 1;
nodes = (
"336 319 OFFCURVE",
"364 361 OFFCURVE",
"394 403 CURVE",
"464 405 OFFCURVE",
"542 408 OFFCURVE",
"617 412 CURVE",
"586 366 OFFCURVE",
"558 321 OFFCURVE",
"534 281 CURVE",
"459 280 OFFCURVE",
"380 280 OFFCURVE",
"311 279 CURVE"
);
}
);
width = 921;
}
);
note = numbersign;
unicode = 0023;
},
{
glyphname = slash;
lastChange = "2021-08-19 04:37:25 +0000";
layers = (
{
hints = (
{
horizontal = 1;
place = "{581, -20}";
target = down;
type = TopGhost;
},
{
place = "{-28, 581}";
type = Stem;
}
);
layerId = "5B1D346E-B0E2-499B-AAFE-AE2E263C1006";
paths = (
{
closed = 1;
nodes = (
"283 252 OFFCURVE",
"281 266 OFFCURVE",
"541 541 CURVE",
"547 545 OFFCURVE",
"553 560 OFFCURVE",
"553 570 CURVE SMOOTH",
"553 576 OFFCURVE",
"551 581 OFFCURVE",
"546 581 CURVE SMOOTH",
"543 581 OFFCURVE",
"537 578 OFFCURVE",
"529 570 CURVE SMOOTH",
"262 312 OFFCURVE",
"230 263 OFFCURVE",
"-25 -9 CURVE SMOOTH",
"-27 -12 OFFCURVE",
"-29 -15 OFFCURVE",
"-29 -18 CURVE SMOOTH",
"-29 -28 OFFCURVE",
"-18 -39 OFFCURVE",
"-4 -39 CURVE SMOOTH",
"4 -39 OFFCURVE",
"14 -35 OFFCURVE",
"23 -25 CURVE SMOOTH"
);
}
);
width = 542;
}
);
note = slash;
unicode = 002F;
},
{
glyphname = backslash;
lastChange = "2021-04-16 08:59:06 +0000";
layers = (
{
hints = (
{
horizontal = 1;
place = "{581, -20}";
target = down;
type = TopGhost;
},
{
place = "{22, 582}";
type = Stem;
}
);
layerId = "5B1D346E-B0E2-499B-AAFE-AE2E263C1006";
paths = (
{
closed = 1;
nodes = (
"562 -35 OFFCURVE",
"571 -38 OFFCURVE",
"580 -38 CURVE SMOOTH",
"594 -38 OFFCURVE",
"604 -28 OFFCURVE",
"604 -18 CURVE SMOOTH",
"604 -15 OFFCURVE",
"603 -12 OFFCURVE",
"600 -9 CURVE SMOOTH",
"346 263 OFFCURVE",
"313 312 OFFCURVE",
"46 570 CURVE SMOOTH",
"38 578 OFFCURVE",
"32 581 OFFCURVE",
"28 581 CURVE SMOOTH",
"24 581 OFFCURVE",
"22 576 OFFCURVE",
"22 570 CURVE SMOOTH",
"22 560 OFFCURVE",
"28 545 OFFCURVE",
"34 541 CURVE",
"294 266 OFFCURVE",
"293 252 OFFCURVE",
"552 -25 CURVE SMOOTH"
);
}
);
width = 633;
}
);
note = backslash;
unicode = 005C;
},
{
glyphname = parenleft;
lastChange = "2021-04-16 08:59:06 +0000";
layers = (
{
hints = (
{
horizontal = 1;
place = "{-22, 577}";
type = Stem;
},
{
place = "{22, 62}";
type = Stem;
}
);
layerId = "5B1D346E-B0E2-499B-AAFE-AE2E263C1006";
paths = (
{
closed = 1;
nodes = (
"213 -21 OFFCURVE",
"224 -22 OFFCURVE",
"232 -22 CURVE SMOOTH",
"242 -22 OFFCURVE",
"248 -20 OFFCURVE",
"248 -17 CURVE SMOOTH",
"248 -13 OFFCURVE",
"235 -6 OFFCURVE",
"203 2 CURVE SMOOTH",
"126 21 OFFCURVE",
"83 105 OFFCURVE",
"83 202 CURVE SMOOTH",
"83 337 OFFCURVE",
"167 496 OFFCURVE",
"355 533 CURVE SMOOTH",
"403 543 OFFCURVE",
"421 549 OFFCURVE",
"421 552 CURVE SMOOTH",
"421 555 OFFCURVE",
"410 556 OFFCURVE",
"395 556 CURVE SMOOTH",
"380 556 OFFCURVE",
"360 555 OFFCURVE",
"341 553 CURVE SMOOTH",
"147 537 OFFCURVE",
"22 358 OFFCURVE",
"22 203 CURVE SMOOTH",
"22 101 OFFCURVE",
"77 9 OFFCURVE",
"201 -18 CURVE SMOOTH"
);
}
);
width = 442;
}
);
note = parenleft;
unicode = 0028;
},
{
glyphname = parenright;
lastChange = "2021-04-16 08:59:06 +0000";
layers = (
{
hints = (
{
horizontal = 1;
place = "{-21, 578}";
type = Stem;
},
{
place = "{398, 62}";
type = Stem;
}
);
layerId = "5B1D346E-B0E2-499B-AAFE-AE2E263C1006";
paths = (
{
closed = 1;
nodes = (
"335 -2 OFFCURVE",
"460 178 OFFCURVE",
"460 333 CURVE SMOOTH",
"460 435 OFFCURVE",
"406 526 OFFCURVE",
"281 553 CURVE SMOOTH",
"270 556 OFFCURVE",
"260 557 OFFCURVE",
"252 557 CURVE SMOOTH",
"241 557 OFFCURVE",
"235 554 OFFCURVE",
"235 551 CURVE SMOOTH",
"235 546 OFFCURVE",
"248 539 OFFCURVE",
"279 531 CURVE SMOOTH",
"356 512 OFFCURVE",
"398 428 OFFCURVE",
"398 332 CURVE SMOOTH",
"398 197 OFFCURVE",
"315 38 OFFCURVE",
"126 1 CURVE SMOOTH",
"78 -9 OFFCURVE",
"60 -15 OFFCURVE",
"60 -18 CURVE SMOOTH",
"60 -20 OFFCURVE",
"70 -21 OFFCURVE",
"83 -21 CURVE SMOOTH",
"100 -21 OFFCURVE",
"122 -20 OFFCURVE",
"142 -18 CURVE SMOOTH"
);
}
);
width = 455;
}
);
note = parenright;
unicode = 0029;
},
{
glyphname = braceleft;
lastChange = "2021-04-16 08:59:06 +0000";
layers = (
{
hints = (
{
horizontal = 1;
place = "{-78, 30}";
type = Stem;
},
{
place = "{69, 57}";
type = Stem;
},
{
place = "{185, 30}";
type = Stem;
},
{
place = "{219, 30}";
type = Stem;
}
);
layerId = "5B1D346E-B0E2-499B-AAFE-AE2E263C1006";
paths = (
{
closed = 1;
nodes = (
"195 -79 OFFCURVE",
"201 -71 OFFCURVE",
"201 -63 CURVE SMOOTH",
"201 -55 OFFCURVE",
"197 -48 OFFCURVE",
"187 -48 CURVE SMOOTH",
"148 -46 OFFCURVE",
"126 11 OFFCURVE",
"126 55 CURVE SMOOTH",
"126 208 OFFCURVE",
"215 289 OFFCURVE",
"215 339 CURVE SMOOTH",
"215 359 OFFCURVE",
"211 391 OFFCURVE",
"188 397 CURVE",
"193 400 LINE SMOOTH",
"220 414 OFFCURVE",
"249 437 OFFCURVE",
"249 473 CURVE SMOOTH",
"249 496 OFFCURVE",
"237 506 OFFCURVE",
"226 523 CURVE SMOOTH",
"218 536 OFFCURVE",
"214 551 OFFCURVE",
"214 566 CURVE SMOOTH",
"214 628 OFFCURVE",
"272 701 OFFCURVE",
"322 712 CURVE SMOOTH",
"328 714 OFFCURVE",
"331 720 OFFCURVE",
"331 728 CURVE SMOOTH",
"331 747 OFFCURVE",
"318 773 OFFCURVE",
"305 770 CURVE SMOOTH",
"232 753 OFFCURVE",
"167 672 OFFCURVE",
"167 597 CURVE SMOOTH",
"167 585 OFFCURVE",
"169 574 OFFCURVE",
"172 563 CURVE SMOOTH",
"177 545 OFFCURVE",
"219 488 OFFCURVE",
"219 473 CURVE SMOOTH",
"219 432 OFFCURVE",
"139 408 OFFCURVE",
"108 402 CURVE SMOOTH",
"99 400 OFFCURVE",
"94 394 OFFCURVE",
"94 387 CURVE SMOOTH",
"94 381 OFFCURVE",
"99 374 OFFCURVE",
"108 372 CURVE SMOOTH",
"122 370 OFFCURVE",
"137 370 OFFCURVE",
"151 370 CURVE SMOOTH",
"161 370 OFFCURVE",
"171 370 OFFCURVE",
"180 368 CURVE",
"182 359 OFFCURVE",
"185 348 OFFCURVE",
"185 339 CURVE SMOOTH",
"185 310 OFFCURVE",
"69 207 OFFCURVE",
"69 54 CURVE SMOOTH",
"69 -4 OFFCURVE",
"128 -74 OFFCURVE",
"185 -78 CURVE SMOOTH"
);
}
);
width = 365;
}
);
note = braceleft;
unicode = 007B;
},
{
glyphname = braceright;
lastChange = "2021-04-16 08:59:06 +0000";
layers = (
{
hints = (
{
horizontal = 1;
place = "{747, 30}";
type = Stem;
},
{
place = "{118, 30}";
type = Stem;
},
{
place = "{152, 30}";
type = Stem;
},
{
place = "{241, 57}";
type = Stem;
}
);
layerId = "5B1D346E-B0E2-499B-AAFE-AE2E263C1006";
paths = (
{
closed = 1;
nodes = (
"135 -54 OFFCURVE",
"200 27 OFFCURVE",
"200 102 CURVE SMOOTH",
"200 114 OFFCURVE",
"198 125 OFFCURVE",
"195 136 CURVE SMOOTH",
"190 154 OFFCURVE",
"148 211 OFFCURVE",
"148 226 CURVE SMOOTH",
"148 268 OFFCURVE",
"228 291 OFFCURVE",
"259 297 CURVE SMOOTH",
"269 299 OFFCURVE",
"273 306 OFFCURVE",
"273 312 CURVE SMOOTH",
"273 319 OFFCURVE",
"269 325 OFFCURVE",
"259 327 CURVE SMOOTH",
"249 329 OFFCURVE",
"240 329 OFFCURVE",
"230 329 CURVE SMOOTH",
"224 329 OFFCURVE",
"218 329 OFFCURVE",
"212 329 CURVE SMOOTH",
"203 329 OFFCURVE",
"195 329 OFFCURVE",
"187 331 CURVE",
"185 340 OFFCURVE",
"182 351 OFFCURVE",
"182 360 CURVE SMOOTH",
"182 389 OFFCURVE",
"298 492 OFFCURVE",
"298 645 CURVE SMOOTH",
"298 703 OFFCURVE",
"239 774 OFFCURVE",
"182 777 CURVE SMOOTH",
"172 778 OFFCURVE",
"166 770 OFFCURVE",
"166 762 CURVE SMOOTH",
"166 754 OFFCURVE",
"170 747 OFFCURVE",
"180 747 CURVE SMOOTH",
"219 745 OFFCURVE",
"241 688 OFFCURVE",
"241 644 CURVE SMOOTH",
"241 491 OFFCURVE",
"152 410 OFFCURVE",
"152 360 CURVE SMOOTH",
"152 340 OFFCURVE",
"156 308 OFFCURVE",
"179 302 CURVE",
"174 300 LINE SMOOTH",
"147 286 OFFCURVE",
"118 262 OFFCURVE",
"118 226 CURVE SMOOTH",
"118 203 OFFCURVE",
"130 193 OFFCURVE",
"141 176 CURVE SMOOTH",
"149 163 OFFCURVE",
"153 148 OFFCURVE",
"153 133 CURVE SMOOTH",
"153 71 OFFCURVE",
"95 -2 OFFCURVE",
"45 -13 CURVE SMOOTH",
"39 -15 OFFCURVE",
"36 -21 OFFCURVE",
"36 -29 CURVE SMOOTH",
"36 -48 OFFCURVE",
"49 -74 OFFCURVE",
"62 -71 CURVE SMOOTH"
);
}
);
width = 334;
}
);
note = braceright;
unicode = 007D;
},
{
glyphname = bracketleft;
lastChange = "2021-04-16 08:59:06 +0000";
layers = (
{
hints = (
{
horizontal = 1;
place = "{-102, 30}";
type = Stem;
},
{
horizontal = 1;
place = "{670, 54}";
type = Stem;
},
{
place = "{50, 65}";
type = Stem;
}
);
layerId = "5B1D346E-B0E2-499B-AAFE-AE2E263C1006";
paths = (
{
closed = 1;
nodes = (
"233 -102 OFFCURVE",
"238 -95 OFFCURVE",
"238 -87 CURVE SMOOTH",
"238 -80 OFFCURVE",
"233 -72 OFFCURVE",
"223 -72 CURVE SMOOTH",
"185 -72 OFFCURVE",
"152 -58 OFFCURVE",
"115 -46 CURVE",
"117 35 OFFCURVE",
"120 392 OFFCURVE",
"120 567 CURVE SMOOTH",
"120 622 OFFCURVE",
"120 659 OFFCURVE",
"119 664 CURVE",
"163 665 OFFCURVE",
"201 670 OFFCURVE",
"249 670 CURVE SMOOTH",
"258 670 OFFCURVE",
"263 682 OFFCURVE",
"263 694 CURVE SMOOTH",
"263 708 OFFCURVE",
"257 724 OFFCURVE",
"246 724 CURVE SMOOTH",
"195 724 OFFCURVE",
"155 718 OFFCURVE",
"107 718 CURVE SMOOTH",
"100 718 OFFCURVE",
"91 723 OFFCURVE",
"85 723 CURVE SMOOTH",
"81 723 OFFCURVE",
"78 720 OFFCURVE",
"77 713 CURVE SMOOTH",
"45 455 OFFCURVE",
"57 214 OFFCURVE",
"50 -58 CURVE SMOOTH",
"49 -94 OFFCURVE",
"208 -102 OFFCURVE",
"223 -102 CURVE SMOOTH"
);
}
);
width = 279;
}
);
note = bracketleft;
unicode = 005B;
},
{
glyphname = bracketright;
lastChange = "2021-04-16 08:59:06 +0000";
layers = (
{
hints = (
{
horizontal = 1;
place = "{-102, 54}";
type = Stem;
},
{
horizontal = 1;
place = "{694, 30}";
type = Stem;
},
{
place = "{187, 69}";
type = Stem;
}
);
layerId = "5B1D346E-B0E2-499B-AAFE-AE2E263C1006";
paths = (
{
closed = 1;
nodes = (
"111 -102 OFFCURVE",
"151 -96 OFFCURVE",
"199 -96 CURVE SMOOTH",
"206 -96 OFFCURVE",
"214 -101 OFFCURVE",
"220 -101 CURVE SMOOTH",
"224 -101 OFFCURVE",
"227 -98 OFFCURVE",
"228 -91 CURVE SMOOTH",
"260 167 OFFCURVE",
"248 408 OFFCURVE",
"255 680 CURVE SMOOTH",
"256 716 OFFCURVE",
"97 724 OFFCURVE",
"83 724 CURVE SMOOTH",
"73 724 OFFCURVE",
"68 717 OFFCURVE",
"68 709 CURVE SMOOTH",
"68 702 OFFCURVE",
"73 694 OFFCURVE",
"83 694 CURVE SMOOTH",
"121 694 OFFCURVE",
"153 680 OFFCURVE",
"191 668 CURVE",
"189 590 OFFCURVE",
"185 263 OFFCURVE",
"185 81 CURVE SMOOTH",
"185 11 OFFCURVE",
"186 -37 OFFCURVE",
"187 -42 CURVE",
"142 -43 OFFCURVE",
"104 -48 OFFCURVE",
"57 -48 CURVE SMOOTH",
"48 -48 OFFCURVE",
"43 -60 OFFCURVE",
"43 -72 CURVE SMOOTH",
"43 -86 OFFCURVE",
"49 -102 OFFCURVE",
"60 -102 CURVE SMOOTH"
);
}
);
width = 279;
}
);
note = bracketright;
unicode = 005D;
},
{
glyphname = hyphen;
lastChange = "2021-04-16 08:59:06 +0000";
layers = (
{
hints = (
{
horizontal = 1;
place = "{133, 65}";
type = Stem;
},
{
place = "{20, 385}";
type = Stem;
}
);
layerId = "5B1D346E-B0E2-499B-AAFE-AE2E263C1006";
paths = (
{
closed = 1;
nodes = (
"68 140 OFFCURVE",
"109 133 OFFCURVE",
"154 133 CURVE SMOOTH",
"231 133 OFFCURVE",
"316 155 OFFCURVE",
"359 167 CURVE SMOOTH",
"383 173 OFFCURVE",
"405 181 OFFCURVE",
"405 187 CURVE SMOOTH",
"405 193 OFFCURVE",
"382 198 OFFCURVE",
"314 198 CURVE SMOOTH",
"259 198 OFFCURVE",
"222 197 OFFCURVE",
"191 197 CURVE SMOOTH",
"151 197 OFFCURVE",
"123 199 OFFCURVE",
"82 208 CURVE SMOOTH",
"69 211 OFFCURVE",
"59 212 OFFCURVE",
"50 212 CURVE SMOOTH",
"28 212 OFFCURVE",
"20 203 OFFCURVE",
"20 192 CURVE SMOOTH",
"20 181 OFFCURVE",
"28 168 OFFCURVE",
"38 161 CURVE SMOOTH"
);
}
);
width = 407;
}
);
note = hyphen;
unicode = 002D;
},
{
glyphname = endash;
lastChange = "2021-04-16 08:59:06 +0000";
layers = (
{
hints = (
{
horizontal = 1;
place = "{135, 66}";
type = Stem;
},
{
place = "{16, 462}";
type = Stem;
}
);
layerId = "5B1D346E-B0E2-499B-AAFE-AE2E263C1006";
paths = (
{
closed = 1;
nodes = (
"49 142 OFFCURVE",
"96 135 OFFCURVE",
"151 135 CURVE SMOOTH",
"263 135 OFFCURVE",
"411 163 OFFCURVE",
"444 176 CURVE SMOOTH",
"462 182 OFFCURVE",
"478 190 OFFCURVE",
"478 196 CURVE SMOOTH",
"478 202 OFFCURVE",
"461 207 OFFCURVE",
"410 207 CURVE SMOOTH",
"347 207 OFFCURVE",
"241 201 OFFCURVE",
"160 201 CURVE SMOOTH",
"117 201 OFFCURVE",
"80 202 OFFCURVE",
"62 208 CURVE SMOOTH",
"53 211 OFFCURVE",
"45 212 OFFCURVE",
"39 212 CURVE SMOOTH",
"22 212 OFFCURVE",
"16 203 OFFCURVE",
"16 192 CURVE SMOOTH",
"16 181 OFFCURVE",
"22 168 OFFCURVE",
"29 161 CURVE SMOOTH"
);
}
);
width = 508;
}
);
note = endash;
unicode = 2013;
},
{
glyphname = emdash;
lastChange = "2021-04-16 08:59:06 +0000";
layers = (
{
hints = (
{
horizontal = 1;
place = "{135, 66}";
type = Stem;
},
{
place = "{20, 618}";
type = Stem;
}
);
layerId = "5B1D346E-B0E2-499B-AAFE-AE2E263C1006";
paths = (
{
closed = 1;
nodes = (
"65 142 OFFCURVE",
"127 135 OFFCURVE",
"201 135 CURVE SMOOTH",
"350 135 OFFCURVE",
"547 163 OFFCURVE",
"592 176 CURVE SMOOTH",
"616 182 OFFCURVE",
"638 190 OFFCURVE",
"638 196 CURVE SMOOTH",
"638 202 OFFCURVE",
"615 207 OFFCURVE",
"547 207 CURVE SMOOTH",
"464 207 OFFCURVE",
"321 201 OFFCURVE",
"213 201 CURVE SMOOTH",
"155 201 OFFCURVE",
"107 202 OFFCURVE",
"82 208 CURVE SMOOTH",
"69 211 OFFCURVE",
"59 212 OFFCURVE",
"50 212 CURVE SMOOTH",
"28 212 OFFCURVE",
"20 203 OFFCURVE",
"20 192 CURVE SMOOTH",
"20 181 OFFCURVE",
"28 168 OFFCURVE",
"38 161 CURVE SMOOTH"
);
}
);
width = 677;
}
);
note = emdash;
unicode = 2014;
},
{
glyphname = underscore;
lastChange = "2021-04-16 08:59:06 +0000";
layers = (
{
hints = (
{
horizontal = 1;
place = "{-109, 65}";
type = Stem;
},
{
place = "{20, 618}";
type = Stem;
}
);
layerId = "5B1D346E-B0E2-499B-AAFE-AE2E263C1006";
paths = (
{
closed = 1;
nodes = (
"65 -102 OFFCURVE",
"127 -109 OFFCURVE",
"201 -109 CURVE SMOOTH",
"350 -109 OFFCURVE",
"547 -81 OFFCURVE",
"592 -68 CURVE SMOOTH",
"616 -62 OFFCURVE",
"638 -54 OFFCURVE",
"638 -48 CURVE SMOOTH",
"638 -42 OFFCURVE",
"615 -37 OFFCURVE",
"547 -37 CURVE SMOOTH",
"463 -37 OFFCURVE",
"321 -44 OFFCURVE",
"212 -44 CURVE SMOOTH",
"155 -44 OFFCURVE",
"107 -42 OFFCURVE",
"82 -36 CURVE SMOOTH",
"70 -33 OFFCURVE",
"60 -32 OFFCURVE",
"52 -32 CURVE SMOOTH",
"28 -32 OFFCURVE",
"20 -42 OFFCURVE",
"20 -53 CURVE SMOOTH",
"20 -64 OFFCURVE",
"28 -76 OFFCURVE",
"38 -83 CURVE SMOOTH"
);
}
);
width = 677;
}
);
note = underscore;
unicode = 005F;
},
{
glyphname = quotesinglbase;
lastChange = "2021-04-16 08:59:06 +0000";
layers = (
{
hints = (
{
horizontal = 1;
place = "{-131, 185}";
type = Stem;
},
{
place = "{119, 90}";
type = Stem;
}
);
layerId = "5B1D346E-B0E2-499B-AAFE-AE2E263C1006";
paths = (
{
closed = 1;
nodes = (
"45 -130 LINE",
"179 -97 OFFCURVE",
"201 -32 OFFCURVE",
"209 3 CURVE",
"212 36 OFFCURVE",
"155 54 OFFCURVE",
"120 54 CURVE SMOOTH",
"103 54 OFFCURVE",
"91 50 OFFCURVE",
"91 42 CURVE SMOOTH",
"91 38 OFFCURVE",
"94 33 OFFCURVE",
"102 27 CURVE SMOOTH",
"114 17 OFFCURVE",
"119 6 OFFCURVE",
"119 -7 CURVE SMOOTH",
"119 -62 OFFCURVE",
"25 -136 OFFCURVE",
"46 -131 CURVE"
);
}
);
width = 286;
}
);
note = quotesinglbase;
unicode = 201A;
},
{
glyphname = quotedblbase;
lastChange = "2021-04-16 08:59:06 +0000";
layers = (
{
hints = (
{
horizontal = 1;
place = "{-131, 185}";
type = Stem;
},
{
place = "{119, 90}";
type = Stem;
},
{
place = "{317, 90}";
type = Stem;
}
);
layerId = "5B1D346E-B0E2-499B-AAFE-AE2E263C1006";
paths = (
{
closed = 1;
nodes = (
"243 -130 LINE",
"377 -97 OFFCURVE",
"399 -32 OFFCURVE",
"407 3 CURVE",
"410 36 OFFCURVE",
"353 54 OFFCURVE",
"318 54 CURVE SMOOTH",
"301 54 OFFCURVE",
"289 50 OFFCURVE",
"289 42 CURVE SMOOTH",
"289 38 OFFCURVE",
"292 33 OFFCURVE",
"300 27 CURVE SMOOTH",
"312 17 OFFCURVE",
"317 6 OFFCURVE",
"317 -7 CURVE SMOOTH",
"317 -62 OFFCURVE",
"223 -136 OFFCURVE",
"244 -131 CURVE"
);
},
{
closed = 1;
nodes = (
"45 -130 LINE",
"179 -97 OFFCURVE",
"201 -32 OFFCURVE",
"209 3 CURVE",
"212 36 OFFCURVE",
"155 54 OFFCURVE",
"120 54 CURVE SMOOTH",
"103 54 OFFCURVE",
"91 50 OFFCURVE",
"91 42 CURVE SMOOTH",
"91 38 OFFCURVE",
"94 33 OFFCURVE",
"102 27 CURVE SMOOTH",
"114 17 OFFCURVE",
"119 6 OFFCURVE",
"119 -7 CURVE SMOOTH",
"119 -62 OFFCURVE",
"25 -136 OFFCURVE",
"46 -131 CURVE"
);
}
);
width = 434;
}
);
note = quotedblbase;
unicode = 201E;
},
